<?xml version="1.0" encoding="UTF-8"?>
<svg version="1.1" xmlns="http://www.w3.org/2000/svg" width="1172" height="244">
<path d="M0 0 C0.80824219 0.56332031 1.61648438 1.12664062 2.44921875 1.70703125 C6.50392651 4.61538184 6.50392651 4.61538184 8 6 C8 6.66 8 7.32 8 8 C8.56074219 8.21785156 9.12148438 8.43570313 9.69921875 8.66015625 C23.18323253 16.51247667 31.87809375 36.67386241 36 51 C42.29017756 77.49712178 38.14497419 103.63876301 24.07421875 126.98828125 C20.26279218 132.52238649 15.73860445 137.25481415 11 142 C10.195625 142.81597656 9.39125 143.63195312 8.5625 144.47265625 C-8.04939958 160.40150075 -30.65693909 167.61327471 -53.3125 167.4375 C-53.99764679 167.43412628 -54.68279358 167.43075256 -55.38870239 167.42727661 C-65.49366039 167.3551268 -74.52985836 166.82666395 -84 163 C-84.63325195 162.76394043 -85.26650391 162.52788086 -85.91894531 162.28466797 C-109.4054165 153.50695308 -127.18858537 136.57260927 -137.67504883 113.74755859 C-148.01254976 89.92489066 -147.52586352 63.43949125 -138.4453125 39.3515625 C-134.55971751 30.34118278 -129.21223254 22.54445957 -123 15 C-122.06414063 13.77216797 -122.06414063 13.77216797 -121.109375 12.51953125 C-92.24410819 -21.95842633 -35.43210471 -25.47219159 0 0 Z M-88 20 C-88.68191406 20.39703125 -89.36382813 20.7940625 -90.06640625 21.203125 C-91.89261917 22.2980025 -91.89261917 22.2980025 -94 24 C-94 24.66 -94 25.32 -94 26 C-94.57234375 26.24492188 -95.1446875 26.48984375 -95.734375 26.7421875 C-103.14123615 30.85427248 -107.68336102 38.63585871 -111.375 46 C-111.69629883 46.63953613 -112.01759766 47.27907227 -112.34863281 47.93798828 C-116.70740699 57.06747991 -118.56427122 65.57007151 -118.5 75.6875 C-118.49427979 76.73969727 -118.48855957 77.79189453 -118.48266602 78.87597656 C-118.15503121 93.2566075 -113.26121413 106.78336296 -103.625 117.6875 C-102.325625 118.8321875 -102.325625 118.8321875 -101 120 C-100.35417969 120.68578125 -99.70835937 121.3715625 -99.04296875 122.078125 C-87.99808717 133.76132724 -73.5128376 140.29960435 -57.37109375 141.203125 C-40.30111058 141.40654089 -25.88577163 137.19965427 -12 127 C-12 126.34 -12 125.68 -12 125 C-11.42894531 124.75765625 -10.85789062 124.5153125 -10.26953125 124.265625 C1.10156291 117.92442963 6.85650611 103.48224212 10.4375 91.6875 C14.44309495 74.84658559 12.10825545 58.60900351 3.625 43.5 C2.44519179 41.64818112 1.2383458 39.81319613 0 38 C-0.52207031 37.20207031 -1.04414062 36.40414062 -1.58203125 35.58203125 C-10.96246535 22.32161225 -26.44359685 14.41730823 -42 11 C-42.99 10.773125 -43.98 10.54625 -45 10.3125 C-60.35274836 8.71325538 -74.70580307 12.18729659 -88 20 Z " fill="#F8F6F6" transform="translate(741,73)"/>
<path d="M0 0 C3.23612002 2.65397701 4.85204588 5.32406854 6.48828125 9.13671875 C6.93961426 10.1721582 7.39094727 11.20759766 7.85595703 12.27441406 C8.33661621 13.40073242 8.81727539 14.52705078 9.3125 15.6875 C10.37732199 18.13482198 11.44378727 20.58138171 12.51171875 23.02734375 C12.7907605 23.66906525 13.06980225 24.31078674 13.3572998 24.97195435 C16.37504938 31.89871204 19.5159117 38.76821372 22.65927124 45.63864136 C27.79035746 56.85666001 32.82921204 68.10595963 37.7109375 79.43530273 C40.45566973 85.79234831 43.3295551 92.07260363 46.2890625 98.33203125 C48.26056024 102.52462709 50.12913154 106.76177367 52 111 C54.44152769 116.52879211 56.9248204 122.03215291 59.5 127.5 C62.42923114 133.71960037 65.2303978 139.99070477 68.00634766 146.2800293 C70.76675937 152.5175369 73.63798071 158.69749875 76.5546875 164.86328125 C78.84262243 169.8287184 80.49392511 173.44334252 80 179 C76.57320789 182.42679211 71.77077613 181.36909685 67.125 181.375 C66.11824219 181.39949219 65.11148438 181.42398438 64.07421875 181.44921875 C62.61822266 181.45501953 62.61822266 181.45501953 61.1328125 181.4609375 C60.24480957 181.46915527 59.35680664 181.47737305 58.44189453 181.48583984 C55.1595048 180.8327749 54.07122372 179.59248076 52 177 C50.69140625 174.56152344 50.69140625 174.56152344 49.5625 171.859375 C49.14226562 170.87066406 48.72203125 169.88195312 48.2890625 168.86328125 C47.65097656 167.32220703 47.65097656 167.32220703 47 165.75 C46.14791909 163.72308026 45.29378751 161.69702122 44.4375 159.671875 C43.82648438 158.22264648 43.82648438 158.22264648 43.203125 156.74414062 C42.10731502 154.24476883 40.93299834 151.8180311 39.6875 149.390625 C38 146 38 146 38 144 C36.93523437 144.47050781 35.87046875 144.94101563 34.7734375 145.42578125 C13.70571678 154.55537133 -9.87515787 158.32660373 -32 150 C-36.37213549 148.07966479 -40.69380318 146.06353116 -45 144 C-45.40839111 144.91289795 -45.81678223 145.8257959 -46.23754883 146.76635742 C-47.76074234 150.16899051 -49.28808257 153.56974895 -50.81665039 156.9699707 C-51.4763035 158.43886729 -52.13484711 159.90826267 -52.79223633 161.37817383 C-53.74005047 163.49694381 -54.69190561 165.6138585 -55.64453125 167.73046875 C-55.9352803 168.38274948 -56.22602936 169.03503021 -56.52558899 169.70707703 C-60.931952 179.465976 -60.931952 179.465976 -64 181 C-67.66149074 181.24014407 -71.3315042 181.18518986 -75 181.1875 C-76.02351563 181.19974609 -77.04703125 181.21199219 -78.1015625 181.22460938 C-79.07867187 181.22654297 -80.05578125 181.22847656 -81.0625 181.23046875 C-81.96097656 181.23457764 -82.85945313 181.23868652 -83.78515625 181.24291992 C-86 181 -86 181 -88 179 C-88.74265779 173.45707231 -86.75991285 169.545962 -84.4140625 164.69140625 C-84.04137741 163.89604965 -83.66869232 163.10069305 -83.28471375 162.28123474 C-82.07477694 159.7034956 -80.84976772 157.13322041 -79.625 154.5625 C-77.96000064 151.02440177 -76.30269167 147.4827136 -74.64453125 143.94140625 C-74.03344765 142.64077744 -74.03344765 142.64077744 -73.41001892 141.31387329 C-70.2570283 134.59192283 -67.23330902 127.82650749 -64.3125 121 C-61.25425489 113.87066067 -58.0927904 106.81392604 -54.77734375 99.80078125 C-52.62418156 95.22792167 -50.56588424 90.61277 -48.5 86 C-44.21114331 76.43476836 -39.81555971 66.92508738 -35.31640625 57.45703125 C-31.92564091 50.31054176 -28.59892043 43.13752931 -25.33203125 35.93359375 C-25.00391449 35.21018799 -24.67579773 34.48678223 -24.33773804 33.74145508 C-22.67758033 30.0792847 -21.02052508 26.41574255 -19.3671875 22.75048828 C-8.74793078 -0.75413196 -8.74793078 -0.75413196 0 0 Z M-5 52 C-5.48859497 53.08994263 -5.48859497 53.08994263 -5.98706055 54.2019043 C-6.97905257 56.41480959 -7.97108098 58.62769857 -8.96313477 60.84057617 C-10.12412324 63.4304287 -11.28472443 66.02045434 -12.44506836 68.6105957 C-15.20075617 74.76107099 -17.95807911 80.91077305 -20.72691345 87.05534363 C-21.8934853 89.64447532 -23.05856074 92.23427917 -24.22354126 94.8241272 C-25.04235721 96.64276178 -25.86331489 98.4604316 -26.68432617 100.27807617 C-29.61455391 106.79470547 -32.41829353 113.33713496 -35 120 C-18.72316007 129.06224061 -3.5972214 131.21326077 14.26171875 126.22265625 C18.90751782 124.70318383 22.95982513 122.73834075 27 120 C24.53389258 113.26082166 21.91705413 106.68494949 18.8359375 100.203125 C14.63892487 91.30480944 10.66424428 82.31085862 6.6875 73.3125 C5.61451311 70.88627024 4.54107794 68.46024236 3.46650696 66.03471375 C2.80553788 64.54263819 2.14548226 63.05015753 1.48649597 61.5572052 C0.05937356 58.33438951 -1.38019523 55.13121924 -3 52 C-3.66 52 -4.32 52 -5 52 Z " fill="#F7F6F6" transform="translate(90,57)"/>
<path d="M0 0 C0.89168884 -0.00845947 1.78337769 -0.01691895 2.7020874 -0.02563477 C4.16560638 -0.01652573 4.16560638 -0.01652573 5.65869141 -0.00723267 C6.68818909 -0.01248962 7.71768677 -0.01774658 8.77838135 -0.02316284 C12.18915883 -0.03639127 15.59947148 -0.02761447 19.01025391 -0.01748657 C21.37532644 -0.01950648 23.74039836 -0.02241723 26.10546875 -0.02618408 C31.06532717 -0.0306113 36.02502366 -0.02416344 40.98486328 -0.01016235 C47.35078826 0.00692956 53.71633382 -0.00290947 60.08224487 -0.02087975 C64.96690747 -0.03170674 69.85147974 -0.02827619 74.73614502 -0.02049637 C77.08376103 -0.01849137 79.43138518 -0.0209641 81.7789917 -0.02793503 C85.05682179 -0.0355315 88.33403258 -0.02397012 91.61181641 -0.00723267 C92.58749573 -0.01330536 93.56317505 -0.01937805 94.56842041 -0.02563477 C95.46010925 -0.01717529 96.3517981 -0.00871582 97.27050781 0 C98.43303574 0.00169662 98.43303574 0.00169662 99.61904907 0.00342751 C102.17050249 0.48117332 103.06092404 1.35368017 104.63525391 3.38095093 C105.00756836 5.52572632 105.00756836 5.52572632 104.99853516 7.97860718 C104.99756836 9.30408569 104.99756836 9.30408569 104.99658203 10.65634155 C104.98046875 11.57608765 104.96435547 12.49583374 104.94775391 13.44345093 C104.95097656 14.36706421 104.95419922 15.29067749 104.95751953 16.24227905 C104.90230564 23.1138992 104.90230564 23.1138992 102.63525391 25.38095093 C99.98481286 25.56890703 97.43974577 25.63278954 94.7890625 25.60800171 C93.97922409 25.60829376 93.16938568 25.60858582 92.33500671 25.60888672 C89.65112694 25.60749043 86.96752284 25.59191527 84.28369141 25.57626343 C82.4256709 25.57253436 80.56764842 25.56968689 78.70962524 25.56768799 C73.81378777 25.56004316 68.91806852 25.54038742 64.02227783 25.51828003 C58.15109704 25.49424756 52.27987677 25.48504466 46.40866089 25.47337341 C37.48410961 25.45396348 28.55981786 25.41564686 19.63525391 25.38095093 C19.63525391 42.21095093 19.63525391 59.04095093 19.63525391 76.38095093 C27.16273437 76.31134155 27.16273437 76.31134155 34.84228516 76.24032593 C38.01873809 76.21989122 41.19511016 76.20063586 44.37158203 76.18563843 C49.41512857 76.16171309 54.45838506 76.13338959 59.50170898 76.07919312 C63.56713224 76.03577801 67.63224454 76.01182303 71.6978817 76.00144196 C73.25008733 75.9940427 74.80227565 75.9795937 76.35434914 75.9580307 C78.52624097 75.92905264 80.6968429 75.92499232 82.86889648 75.92684937 C84.10577713 75.91796692 85.34265778 75.90908447 86.61701965 75.89993286 C89.63525391 76.38095093 89.63525391 76.38095093 91.5332489 78.1612854 C93.25183447 81.62287143 93.06795738 85.10457927 93.01025391 88.88095093 C93.02185547 89.64020874 93.03345703 90.39946655 93.04541016 91.18173218 C93.02919991 94.26708279 92.9181022 96.81123608 91.5332489 99.60061646 C88.73397411 102.22635858 86.65958058 101.86227464 82.86889648 101.83505249 C81.84411446 101.83592865 81.84411446 101.83592865 80.79862976 101.83682251 C78.5418302 101.83403708 76.28635375 101.80292649 74.02978516 101.77157593 C72.4646629 101.76411509 70.8995313 101.75842142 69.33439636 101.75442505 C65.21597479 101.73915608 61.09811795 101.69986404 56.97991943 101.65560913 C52.03824789 101.60748718 47.09638746 101.58912836 42.15454865 101.5657959 C34.64772436 101.52701304 27.14213904 101.45036985 19.63525391 101.38095093 C19.63525391 118.87095093 19.63525391 136.36095093 19.63525391 154.38095093 C25.51982422 154.34614624 31.40439453 154.31134155 37.46728516 154.27548218 C41.19060234 154.26015737 44.91388076 154.2457158 48.63720703 154.23446655 C54.54980524 154.21651839 60.46226436 154.19526364 66.37475586 154.15463257 C71.14041864 154.12208676 75.9059323 154.10410799 80.67169762 154.0963192 C82.49182165 154.09076709 84.31193734 154.07992541 86.13199806 154.06376076 C88.67729082 154.04204981 91.22196385 154.03898131 93.76733398 154.04037476 C94.52330872 154.02958893 95.27928345 154.0188031 96.0581665 154.00769043 C101.14876586 154.03793688 101.14876586 154.03793688 103.60273743 155.76818848 C104.98395898 157.9256187 105.02301763 159.4252874 105.03369141 161.97860718 C105.03755859 162.86225952 105.04142578 163.74591187 105.04541016 164.65634155 C105.03380859 165.57608765 105.02220703 166.49583374 105.01025391 167.44345093 C105.02185547 168.36706421 105.03345703 169.29067749 105.04541016 170.24227905 C105.04154297 171.12464233 105.03767578 172.00700562 105.03369141 172.91610718 C105.03030762 173.72442993 105.02692383 174.53275269 105.0234375 175.36557007 C104.83128662 176.36318359 104.83128662 176.36318359 104.63525391 177.38095093 C101.50089704 179.47052217 100.79189352 179.63230604 97.22581482 179.64164734 C96.32426666 179.64873215 95.42271851 179.65581696 94.49385071 179.66311646 C93.5072496 179.66063904 92.5206485 179.65816162 91.50415039 179.65560913 C89.94286407 179.66327553 89.94286407 179.66327553 88.35003662 179.6710968 C84.90208218 179.68502204 81.45432691 179.68403412 78.00634766 179.68173218 C75.6164594 179.68561686 73.22657184 179.68995105 70.83668518 179.69471741 C65.82558962 179.70218547 60.81456451 179.70188361 55.8034668 179.69662476 C49.36796066 179.6908226 42.93274161 179.70777652 36.49728298 179.73096943 C31.56206057 179.7456671 26.62690798 179.74658401 21.69166756 179.7434597 C19.3180999 179.74397469 16.94452851 179.74924545 14.57098198 179.75927162 C11.2594496 179.77154488 7.9484855 179.76489968 4.63696289 179.75326538 C3.15402489 179.76473099 3.15402489 179.76473099 1.64112854 179.77642822 C0.74240021 179.76941391 -0.15632813 179.7623996 -1.08229065 179.75517273 C-2.25726278 179.75542434 -2.25726278 179.75542434 -3.45597172 179.75568104 C-4.08586726 179.6320201 -4.71576281 179.50835917 -5.36474609 179.38095093 C-7.82464601 175.69110105 -7.6183176 173.87729711 -7.6254425 169.47262573 C-7.62926805 168.7657246 -7.6330936 168.05882346 -7.63703507 167.33050108 C-7.64737422 164.95596655 -7.64337127 162.58167341 -7.6394043 160.2071228 C-7.64375023 158.50713374 -7.64893298 156.80714665 -7.65489197 155.10716248 C-7.66830496 150.48536327 -7.66885816 145.86364571 -7.66632867 141.24183083 C-7.66526067 137.38721222 -7.67013786 133.53261025 -7.67493409 129.6779952 C-7.68603691 120.58726862 -7.68646211 111.49658336 -7.68041992 102.40585327 C-7.67437626 93.01784061 -7.68669932 83.62997768 -7.70798999 74.24199057 C-7.725583 66.18928618 -7.73161106 58.13662956 -7.72835225 50.08390665 C-7.72653581 45.2710097 -7.72921152 40.45821958 -7.74306679 35.64533997 C-7.75560342 31.12109518 -7.75374075 26.59708457 -7.7406559 22.07284355 C-7.73828157 20.4099412 -7.74105528 18.74702258 -7.74927902 17.08413887 C-7.75967619 14.81890946 -7.75170352 12.55447616 -7.7389679 10.28927612 C-7.73913564 9.02017647 -7.73930338 7.75107681 -7.7394762 6.44351959 C-7.36474609 3.38095093 -7.36474609 3.38095093 -6.11415386 1.47299004 C-3.92160167 0.10432529 -2.57997281 0.00376526 0 0 Z " fill="#F9F8F8" transform="translate(1065.36474609375,58.619049072265625)"/>
<path d="M0 0 C1.58203125 1.9921875 1.58203125 1.9921875 1.9453125 4.546875 C1.58203125 6.9921875 1.58203125 6.9921875 -0.41796875 9.9921875 C-1.07796875 9.9921875 -1.73796875 9.9921875 -2.41796875 9.9921875 C-2.67964844 10.57613281 -2.94132813 11.16007812 -3.2109375 11.76171875 C-4.4862953 14.11844788 -5.8599741 15.76771847 -7.73046875 17.6796875 C-8.30410156 18.28167969 -8.87773438 18.88367188 -9.46875 19.50390625 C-11.89641866 21.35749695 -13.35802325 21.90409816 -16.41796875 21.9921875 C-18.8203125 20.5859375 -18.8203125 20.5859375 -21.35546875 18.4921875 C-36.78641996 6.66524369 -53.45684516 1.92487744 -72.765625 4.42578125 C-89.27994805 7.65640824 -102.45627685 16.57280883 -112.35546875 29.9921875 C-120.05894484 41.83792202 -124.00345893 54.08246533 -123.91796875 68.1796875 C-123.91224854 69.27885498 -123.90652832 70.37802246 -123.90063477 71.51049805 C-123.53091138 88.42689904 -116.70015495 103.29374179 -105.0625 115.60546875 C-91.96359266 127.42737774 -75.99499292 133.28736258 -58.38232422 132.95361328 C-44.49885304 132.1511204 -28.49094044 126.06515919 -18.41796875 115.9921875 C-15.09894313 115.52337513 -12.54829344 115.29855142 -9.609375 117.10205078 C-7.7662446 118.66553027 -6.09307863 120.31280217 -4.41796875 122.0546875 C-3.82113281 122.61607422 -3.22429687 123.17746094 -2.609375 123.75585938 C0.4171703 126.81385838 1.53670867 128.19946997 1.7890625 132.61328125 C-1.20432077 140.99281693 -12.47970476 147.19159491 -19.9921875 151.390625 C-40.99209292 161.20814065 -67.75001432 164.2297722 -90.13671875 157.24609375 C-103.60530142 152.09917109 -116.99775205 145.1643038 -127.41796875 134.9921875 C-127.41796875 134.3321875 -127.41796875 133.6721875 -127.41796875 132.9921875 C-128.40796875 132.6621875 -129.39796875 132.3321875 -130.41796875 131.9921875 C-147.47489685 113.54162052 -155.23105168 89.4779314 -154.66796875 64.62109375 C-153.73991646 42.53808958 -145.19254051 22.41697321 -130.41796875 5.9921875 C-129.48017578 4.93064453 -129.48017578 4.93064453 -128.5234375 3.84765625 C-117.90410166 -7.48708747 -103.83750866 -15.13995773 -89.16796875 -19.8203125 C-88.51852295 -20.0275293 -87.86907715 -20.23474609 -87.19995117 -20.44824219 C-56.30219719 -29.75484186 -23.99476171 -20.25477258 0 0 Z " fill="#F7F6F6" transform="translate(536.41796875,80.0078125)"/>
<path d="M0 0 C1.00224609 -0.03287109 2.00449219 -0.06574219 3.03710938 -0.09960938 C10.29911705 -0.15289962 10.29911705 -0.15289962 13.44140625 2.27734375 C15.82842616 6.93059461 17.99139091 11.63501745 20.0625 16.4375 C20.6596347 17.80041033 21.25784713 19.16284881 21.85693359 20.52490234 C23.23720474 23.66510801 24.6138895 26.80684746 25.98754883 29.94995117 C33.02505687 46.05034194 40.13819225 62.11317572 47.375 78.125 C54.77193663 94.49162057 61.99072009 110.92780402 69.0625 127.4375 C71.1094617 124.85791051 72.62551949 122.46825339 73.859375 119.41796875 C74.1790625 118.64130859 74.49875 117.86464844 74.828125 117.06445312 C75.15296875 116.25943359 75.4778125 115.45441406 75.8125 114.625 C78.44177409 108.1449349 81.27393489 101.78478966 84.25160217 95.45835876 C87.86961914 87.75416712 91.30582411 79.97054455 94.75 72.1875 C95.45315102 70.60125774 96.15644092 69.01507703 96.85986328 67.42895508 C97.92140363 65.03515239 98.98279646 62.64128517 100.0435791 60.24714661 C102.16323115 55.46323916 104.28801489 50.68167372 106.41796875 45.90234375 C106.92626221 44.76120117 107.43455566 43.62005859 107.95825195 42.44433594 C108.93360102 40.25571637 109.90997743 38.0675543 110.88745117 35.87988281 C113.27102365 30.53049741 115.6106582 25.16727931 117.8828125 19.76953125 C118.33479004 18.70323486 118.78676758 17.63693848 119.25244141 16.53833008 C120.10066086 14.53064552 120.93951083 12.51896591 121.76708984 10.50268555 C122.1430127 9.61492432 122.51893555 8.72716309 122.90625 7.8125 C123.22787109 7.03648438 123.54949219 6.26046875 123.88085938 5.4609375 C125.32083168 2.99513369 126.58560555 1.85690312 129.0625 0.4375 C131.48852539 0.04931641 131.48852539 0.04931641 134.16015625 0.0390625 C135.12630859 0.03519531 136.09246094 0.03132813 137.08789062 0.02734375 C138.59125977 0.04474609 138.59125977 0.04474609 140.125 0.0625 C141.63416992 0.04509766 141.63416992 0.04509766 143.17382812 0.02734375 C144.13869141 0.03121094 145.10355469 0.03507812 146.09765625 0.0390625 C146.9781665 0.04244629 147.85867676 0.04583008 148.76586914 0.04931641 C151.52758054 0.51610934 152.45033327 1.17004838 154.0625 3.4375 C153.95479881 9.53031038 151.49724625 14.49592021 148.9375 19.9375 C148.57140625 20.73414062 148.2053125 21.53078125 147.828125 22.3515625 C146.58371406 25.0520189 145.32419541 27.74507606 144.0625 30.4375 C139.02392193 41.21161287 134.02586941 52.0035269 129.0625 62.8125 C128.69932678 63.60320892 128.33615356 64.39391785 127.9619751 65.20858765 C122.92008299 76.18801624 117.88996658 87.17279802 112.88476562 98.16900635 C112.26696111 99.52622574 111.64881332 100.88328893 111.03027344 102.24017334 C107.45427321 110.08742466 103.93521781 117.95643288 100.50350952 125.86799622 C98.06045016 131.48961006 95.4956142 137.05073309 92.87890625 142.59375 C92.43635498 143.53154297 92.43635498 143.53154297 91.98486328 144.48828125 C91.0214709 146.52420629 90.05577113 148.55902656 89.08984375 150.59375 C88.41374727 152.02068402 87.73796764 153.4477682 87.0625 154.875 C86.73048584 155.57560547 86.39847168 156.27621094 86.05639648 156.99804688 C83.34526729 162.75465363 80.78679772 168.57171514 78.3203125 174.43725586 C77.13487857 177.21312322 76.21849239 179.28150761 74.0625 181.4375 C72.07421875 181.9140625 72.07421875 181.9140625 69.75 182.0625 C68.61111328 182.17464844 68.61111328 182.17464844 67.44921875 182.2890625 C63.00877292 180.70474631 61.09480478 175.4867418 59.05186462 171.43127441 C58.10948229 169.40297421 57.20775583 167.36150694 56.3203125 165.30859375 C55.98885223 164.55643082 55.65739197 163.80426788 55.31588745 163.02931213 C54.2672739 160.64704493 53.22698742 158.26126149 52.1875 155.875 C50.81769075 152.7475595 49.44454554 149.62159262 48.0703125 146.49609375 C47.73203934 145.72577316 47.39376617 144.95545258 47.04524231 144.16178894 C44.10737563 137.49222501 41.03507013 130.89103342 37.93322754 124.29660034 C35.12439135 118.29942202 32.37989237 112.27208879 29.625 106.25 C29.28644989 105.51048096 28.94789978 104.77096191 28.59909058 104.0090332 C22.83896317 91.41884681 17.19804694 78.77817019 11.59832764 66.1159668 C7.91029781 57.78035839 4.2010936 49.46528929 0.25 41.25 C-3.27451179 33.89338266 -6.7061312 26.49745387 -10.0625 19.0625 C-10.56112549 17.98460205 -11.05975098 16.9067041 -11.57348633 15.79614258 C-12.02618896 14.78318115 -12.4788916 13.77021973 -12.9453125 12.7265625 C-13.35410645 11.82631348 -13.76290039 10.92606445 -14.18408203 9.99853516 C-15.06613829 7.00022986 -14.9764974 5.37330804 -13.9375 2.4375 C-9.47952339 -0.53448441 -5.24656929 0.03024928 0 0 Z " fill="#F7F6F6" transform="translate(841.9375,58.5625)"/>
<path d="M0 0 C0.95455078 -0.01998047 1.90910156 -0.03996094 2.89257812 -0.06054688 C3.81361328 -0.05990234 4.73464844 -0.05925781 5.68359375 -0.05859375 C6.5233374 -0.06044678 7.36308105 -0.0622998 8.22827148 -0.06420898 C11.44549917 0.62728802 12.51821624 1.88279614 14.5625 4.4375 C15.05469131 7.27229691 15.05469131 7.27229691 15.04351807 10.61309814 C15.04901672 11.88071991 15.05451538 13.14834167 15.06018066 14.45437622 C15.04602496 15.85663221 15.03148573 17.25888437 15.01660156 18.66113281 C15.01547312 20.13953623 15.01610688 21.61794188 15.01837158 23.09634399 C15.01951981 27.10857216 14.99599327 31.12032254 14.96807575 35.13243961 C14.94308005 39.32579696 14.94072155 43.5191651 14.93597412 47.71258545 C14.92353893 55.65281781 14.89071005 63.59283003 14.85057616 71.53296542 C14.80587529 80.57275835 14.78387566 89.61256176 14.76379442 98.65243769 C14.72197784 117.2475833 14.6516153 135.84252395 14.5625 154.4375 C15.86795525 154.42750725 15.86795525 154.42750725 17.19978333 154.41731262 C25.39571149 154.35723797 33.59156587 154.31154419 41.78766346 154.28206348 C46.00152276 154.26639769 50.21520036 154.24514297 54.42895508 154.21118164 C58.49436419 154.17862043 62.55959836 154.16065387 66.62512779 154.15286827 C68.17731163 154.1473189 69.72948573 154.13648245 71.28159523 154.12030983 C73.45332259 154.09857793 75.62432424 154.0955312 77.79614258 154.09692383 C79.65146355 154.08693108 79.65146355 154.08693108 81.54426575 154.07673645 C84.5625 154.4375 84.5625 154.4375 86.46212769 155.82473755 C87.9355978 157.98433139 87.93536444 159.43293067 87.92578125 162.03515625 C87.92481445 163.36063477 87.92481445 163.36063477 87.92382812 164.71289062 C87.90771484 165.63263672 87.89160156 166.55238281 87.875 167.5 C87.87822266 168.42361328 87.88144531 169.34722656 87.88476562 170.29882812 C87.82955173 177.17044827 87.82955173 177.17044827 85.5625 179.4375 C82.53532824 179.6416922 79.59926783 179.72062926 76.57055664 179.7121582 C75.63874069 179.71726913 74.70692474 179.72238007 73.74687195 179.72764587 C70.65540204 179.74158758 67.56415393 179.74058166 64.47265625 179.73828125 C62.33035702 179.74216569 60.18805856 179.74649984 58.04576111 179.75126648 C53.55074571 179.75873857 49.05580883 179.75843028 44.56079102 179.75317383 C38.79233829 179.74737823 33.02420655 179.76430774 27.25580692 179.7875185 C22.83009452 179.8022301 18.40445986 179.80313105 13.97872734 179.80000877 C11.85160117 179.80052329 9.7244708 179.80578538 7.59736824 179.81582069 C4.62597758 179.82811776 1.65521798 179.82143386 -1.31616211 179.80981445 C-2.19990509 179.81745819 -3.08364807 179.82510193 -3.99417114 179.83297729 C-4.8031636 179.82596298 -5.61215607 179.81894867 -6.44566345 179.8117218 C-7.49952445 179.81197341 -7.49952445 179.81197341 -8.57467556 179.81223011 C-11.16900269 179.29034921 -11.96227357 178.64675321 -13.4375 176.4375 C-13.81502342 173.37493134 -13.81502342 173.37493134 -13.81845093 169.5291748 C-13.82547089 168.4688231 -13.82547089 168.4688231 -13.83263266 167.38705015 C-13.84462271 165.01240129 -13.83511015 162.63832528 -13.82568359 160.26367188 C-13.82974753 158.56368166 -13.8350884 156.86369409 -13.84161377 155.16371155 C-13.85531443 150.54186872 -13.84997741 145.92022632 -13.84047651 141.2983799 C-13.83289413 136.46710281 -13.83992156 131.63584317 -13.84463501 126.80456543 C-13.85009671 118.69047964 -13.84289008 110.57647571 -13.82861328 102.46240234 C-13.81228597 93.07438138 -13.81757419 83.68655586 -13.8340925 74.29853964 C-13.84769556 66.24582795 -13.84963281 58.19317518 -13.84177649 50.14045572 C-13.83709347 45.32756756 -13.83649235 40.51477133 -13.84638596 35.70188904 C-13.8550362 31.17763025 -13.84906941 26.65362405 -13.83170319 22.12939262 C-13.82772792 20.46649534 -13.82889009 18.80357688 -13.83549118 17.14068794 C-13.84365604 14.87544429 -13.83344741 12.61101647 -13.81845093 10.3458252 C-13.81731985 9.07672554 -13.81618877 7.80762589 -13.81502342 6.50006866 C-13.4375 3.4375 -13.4375 3.4375 -12.05149269 1.53098297 C-8.59700302 -0.80944004 -4.02316955 -0.02976117 0 0 Z " fill="#F6F4F4" transform="translate(245.4375,58.5625)"/>
<path d="M0 0 C2.8341739 1.63093758 5.187019 3.70790577 7.625 5.875 C9.02857183 7.07192804 10.43354013 8.2672203 11.83984375 9.4609375 C12.53577637 10.05874023 13.23170898 10.65654297 13.94873047 11.27246094 C16.94405482 13.7950645 20.05465348 16.15196583 23.1875 18.5 C27.08633927 21.42287822 30.85487987 24.25665551 34 28 C33.97487646 31.29118425 32.1341449 33.62773648 30.25 36.25 C29.76015625 36.95640625 29.2703125 37.6628125 28.765625 38.390625 C27 40 27 40 24.72583008 40.3034668 C21.27379369 39.91915142 19.48390499 38.70670823 16.62109375 36.75390625 C15.61755859 36.08166016 14.61402344 35.40941406 13.58007812 34.71679688 C12.54302734 34.00587891 11.50597656 33.29496094 10.4375 32.5625 C8.3770945 31.16295521 6.31342235 29.76820425 4.24609375 28.37890625 C2.87988892 27.44413452 2.87988892 27.44413452 1.48608398 26.49047852 C-1.56945258 24.60514731 -1.56945258 24.60514731 -5 24 C-7.58742738 25.23530447 -7.58742738 25.23530447 -10.2109375 27.1484375 C-11.20867188 27.82390625 -12.20640625 28.499375 -13.234375 29.1953125 C-14.27078125 29.91460937 -15.3071875 30.63390625 -16.375 31.375 C-18.41793292 32.7881566 -20.46722938 34.19216756 -22.5234375 35.5859375 C-23.43013184 36.2154834 -24.33682617 36.8450293 -25.27099609 37.49365234 C-28.23308955 39.1286601 -30.65593798 39.63935984 -34 40 C-35.20572596 38.61987977 -36.38905751 37.22017172 -37.5625 35.8125 C-38.22378906 35.03519531 -38.88507812 34.25789063 -39.56640625 33.45703125 C-41 31 -41 31 -41.04296875 28.4921875 C-39.61429234 25.07834648 -37.64503387 23.60503336 -34.75 21.3125 C-34.21858398 20.88678711 -33.68716797 20.46107422 -33.13964844 20.02246094 C-31.43766303 18.66664205 -29.72091598 17.33168415 -28 16 C-27.15308594 15.33846924 -27.15308594 15.33846924 -26.2890625 14.66357422 C-23.53386058 12.51226304 -20.76625265 10.37984348 -17.9765625 8.2734375 C-16.17367803 6.89643125 -14.3907485 5.49195307 -12.6484375 4.0390625 C-11.98070312 3.48992188 -11.31296875 2.94078125 -10.625 2.375 C-10.08101562 1.90835937 -9.53703125 1.44171875 -8.9765625 0.9609375 C-5.73822837 -0.61343048 -3.55944801 -0.4894241 0 0 Z " fill="#F2F0F0" transform="translate(691,4)"/>
</svg>
