<svg width="236" height="59" viewBox="0 0 236 59" fill="none" xmlns="http://www.w3.org/2000/svg">
<g clip-path="url(#clip0_1061_8035)">
<mask id="mask0_1061_8035" style="mask-type:luminance" maskUnits="userSpaceOnUse" x="0" y="0" width="236" height="59">
<path d="M236 0H0V59H236V0Z" fill="white"/>
</mask>
<g mask="url(#mask0_1061_8035)">
<mask id="mask1_1061_8035" style="mask-type:luminance" maskUnits="userSpaceOnUse" x="0" y="0" width="236" height="58">
<path d="M235.231 0.129883H0.513672V57.9705H235.231V0.129883Z" fill="white"/>
</mask>
<g mask="url(#mask1_1061_8035)">
<path d="M200.439 2.82727V20.6973C200.439 29.0124 193.584 35.7227 185.196 35.7227C176.807 35.7227 169.951 29.0124 169.951 20.6973V3.04609C169.951 1.66024 168.785 0.493231 167.398 0.493231C165.94 0.493231 164.846 1.66024 164.846 3.04609V20.6973C164.846 31.7839 173.963 40.8284 185.196 40.8284C196.427 40.8284 205.619 31.7839 205.619 20.6973V2.82727C205.619 1.44143 204.451 0.274414 203.065 0.274414C201.607 0.274414 200.439 1.44143 200.439 2.82727Z" fill="white"/>
<path d="M208.973 2.82727V20.7702C208.973 31.8569 218.091 40.8284 229.324 40.8284C230.782 40.8284 231.876 39.6613 231.876 38.2756C231.876 36.8898 230.709 35.7227 229.324 35.7227C220.936 35.7227 214.079 29.0124 214.079 20.7702V2.82727C214.079 1.44143 212.912 0.274414 211.526 0.274414C210.14 0.274414 208.973 1.44143 208.973 2.82727Z" fill="white"/>
<path d="M43.7656 20.4055C43.7656 31.4923 52.883 40.5367 64.1886 40.5367H74.1812C75.64 40.5367 76.7341 39.3697 76.7341 37.9838C76.7341 36.598 75.567 35.4309 74.1812 35.4309H64.1886C55.8006 35.4309 48.9443 28.7206 48.9443 20.4055C48.9443 12.0905 55.8006 5.38013 64.1886 5.38013C72.5765 5.38013 79.4328 12.0905 79.4328 20.4055V38.0568C79.4328 39.4425 80.5998 40.6096 81.9856 40.6096C83.4444 40.6096 84.5385 39.4425 84.5385 38.0568V20.4055C84.5385 9.31883 75.4212 0.274414 64.1886 0.274414C52.9559 0.274414 43.7656 9.31883 43.7656 20.4055Z" fill="white"/>
<path d="M0.513672 20.4787C0.513672 31.5655 9.63104 40.6099 20.9365 40.6099H38.5878C40.0466 40.6099 41.1407 39.4429 41.1407 38.057C41.1407 36.6713 39.9737 35.5042 38.5878 35.5042H20.9365C12.5486 35.5042 5.69233 28.7209 5.69233 20.4787C5.69233 12.1638 12.4756 5.45338 20.9365 5.45338C29.3245 5.45338 36.1809 12.2367 36.1809 20.4787C36.1809 21.8646 37.3479 23.0316 38.7336 23.0316C40.1925 23.0316 41.2865 21.8646 41.2865 20.4787C41.2865 9.39208 32.1692 0.347656 20.9365 0.347656C9.63104 0.347656 0.513672 9.39208 0.513672 20.4787Z" fill="white"/>
<path d="M108.318 0.202148C97.0849 0.202148 87.9675 9.24657 87.9675 20.3332V38.0574C87.9675 39.4433 89.1346 40.6102 90.5204 40.6102C91.9791 40.6102 93.0732 39.4433 93.0732 38.0574V20.3332C93.0732 12.0183 99.9295 5.30788 108.318 5.30788C116.706 5.30788 123.562 12.0183 123.562 20.3332C123.562 28.2106 118.966 32.587 107.661 35.4316C99.2001 37.5468 87.8945 41.9961 87.8945 55.4898C87.8945 56.8756 89.0616 58.0427 90.4474 58.0427C91.9063 58.0427 93.0003 56.8756 93.0003 55.4898C93.0003 47.6853 97.7414 43.1631 108.828 40.3914C117.289 38.2763 128.594 33.8269 128.594 20.3332C128.74 9.17363 119.55 0.202148 108.318 0.202148Z" fill="white"/>
<path d="M141.503 10.4864C140.336 13.6957 140.045 17.6344 139.826 21.4272C139.534 25.293 139.315 29.3046 138.002 31.5657C136.397 34.4832 133.188 35.7233 128.521 35.2856C127.062 35.1398 125.749 36.2339 125.603 37.6926C125.457 39.1514 126.551 40.4643 128.01 40.5373C134.793 41.1207 140.045 38.8596 142.67 34.0456C144.494 30.7634 144.785 26.1682 145.078 21.719C145.296 18.2908 145.588 14.7168 146.463 12.237C148.214 7.423 152.444 5.16191 158.935 5.38072C160.395 5.45366 161.635 4.28664 161.707 2.82785C161.78 1.36908 160.613 0.129115 159.155 0.056176C150.402 -0.162641 144.056 3.48431 141.503 10.4864Z" fill="white"/>
<path d="M222.977 0.639648H227.936V1.58785H225.968V6.76651H224.874V1.51491H222.977V0.639648Z" fill="white"/>
<path d="M228.883 0.639648H230.416L232.093 5.45361L233.771 0.639648H235.229V6.76651H234.208V2.02549L232.531 6.76651H231.655L229.977 2.02549V6.76651H228.956V0.639648H228.883Z" fill="white"/>
</g>
</g>
</g>
<defs>
<clipPath id="clip0_1061_8035">
<rect width="236" height="59" fill="white"/>
</clipPath>
</defs>
</svg>
