<svg width="184" height="46" viewBox="0 0 184 46" fill="none" xmlns="http://www.w3.org/2000/svg">
<g clip-path="url(#clip0_992_8034)">
<mask id="mask0_992_8034" style="mask-type:luminance" maskUnits="userSpaceOnUse" x="0" y="0" width="184" height="46">
<path d="M183.4 0.101562H0.400391V45.1976H183.4V0.101562Z" fill="white"/>
</mask>
<g mask="url(#mask0_992_8034)">
<path d="M156.274 2.20521V16.1378C156.274 22.6207 150.929 27.8525 144.389 27.8525C137.849 27.8525 132.503 22.6207 132.503 16.1378V2.37581C132.503 1.29532 131.594 0.385447 130.513 0.385447C129.376 0.385447 128.523 1.29532 128.523 2.37581V16.1378C128.523 24.7816 135.631 31.8332 144.389 31.8332C153.146 31.8332 160.312 24.7816 160.312 16.1378V2.20521C160.312 1.12472 159.402 0.214844 158.321 0.214844C157.184 0.214844 156.274 1.12472 156.274 2.20521Z" fill="white"/>
<path d="M162.928 2.20521V16.1946C162.928 24.8385 170.037 31.8332 178.795 31.8332C179.932 31.8332 180.785 30.9233 180.785 29.8429C180.785 28.7624 179.875 27.8525 178.795 27.8525C172.255 27.8525 166.909 22.6207 166.909 16.1946V2.20521C166.909 1.12472 165.999 0.214844 164.919 0.214844C163.838 0.214844 162.928 1.12472 162.928 2.20521Z" fill="white"/>
<path d="M34.123 15.9103C34.123 24.5542 41.2315 31.6058 50.046 31.6058H57.8368C58.9742 31.6058 59.8272 30.6959 59.8272 29.6154C59.8272 28.5349 58.9173 27.625 57.8368 27.625H50.046C43.5062 27.625 38.1606 22.3932 38.1606 15.9103C38.1606 9.42739 43.5062 4.19557 50.046 4.19557C56.5857 4.19557 61.9313 9.42739 61.9313 15.9103V29.6723C61.9313 30.7527 62.8412 31.6626 63.9216 31.6626C65.059 31.6626 65.912 30.7527 65.912 29.6723V15.9103C65.912 7.26642 58.8036 0.214844 50.046 0.214844C41.2883 0.214844 34.123 7.26642 34.123 15.9103Z" fill="white"/>
<path d="M0.400391 15.9669C0.400391 24.6108 7.50885 31.6624 16.3233 31.6624H30.0853C31.2227 31.6624 32.0757 30.7525 32.0757 29.672C32.0757 28.5916 31.1658 27.6817 30.0853 27.6817H16.3233C9.78355 27.6817 4.43799 22.393 4.43799 15.9669C4.43799 9.48404 9.72668 4.25222 16.3233 4.25222C22.8631 4.25222 28.2087 9.54091 28.2087 15.9669C28.2087 17.0474 29.1186 17.9573 30.199 17.9573C31.3364 17.9573 32.1894 17.0474 32.1894 15.9669C32.1894 7.32307 25.081 0.271484 16.3233 0.271484C7.50885 0.271484 0.400391 7.32307 0.400391 15.9669Z" fill="white"/>
<path d="M84.4503 0.158203C75.6927 0.158203 68.5842 7.20979 68.5842 15.8536V29.6725C68.5842 30.753 69.4941 31.6628 70.5746 31.6628C71.7119 31.6628 72.5649 30.753 72.5649 29.6725V15.8536C72.5649 9.37076 77.9105 4.13894 84.4503 4.13894C90.9901 4.13894 96.3356 9.37076 96.3356 15.8536C96.3356 21.9953 92.7529 25.4074 83.9385 27.6252C77.3418 29.2744 68.5273 32.7433 68.5273 43.2638C68.5273 44.3443 69.4372 45.2542 70.5177 45.2542C71.6551 45.2542 72.5081 44.3443 72.5081 43.2638C72.5081 37.179 76.2045 33.6532 84.8484 31.4922C91.445 29.8431 100.259 26.3741 100.259 15.8536C100.373 7.15292 93.2079 0.158203 84.4503 0.158203Z" fill="white"/>
<path d="M110.325 8.17643C109.415 10.6786 109.188 13.7494 109.017 16.7065C108.79 19.7205 108.619 22.8482 107.595 24.6111C106.344 26.8858 103.842 27.8526 100.203 27.5114C99.0655 27.3977 98.0418 28.2507 97.9281 29.388C97.8144 30.5254 98.6674 31.549 99.8047 31.6059C105.093 32.0608 109.188 30.2979 111.235 26.5446C112.657 23.9856 112.884 20.4029 113.112 16.934C113.282 14.2612 113.51 11.4747 114.192 9.54126C115.557 5.78799 118.855 4.0251 123.916 4.1957C125.054 4.25257 126.021 3.34269 126.077 2.20533C126.134 1.06798 125.224 0.101229 124.087 0.044361C117.263 -0.126242 112.315 2.71714 110.325 8.17643Z" fill="white"/>
<path d="M173.846 0.499023H177.713V1.2383H176.178V5.2759H175.325V1.18143H173.846V0.499023Z" fill="#231F20"/>
<path d="M178.451 0.499023H179.646L180.954 4.25228L182.262 0.499023H183.399V5.2759H182.603V1.57951L181.295 5.2759H180.612L179.304 1.57951V5.2759H178.508V0.499023H178.451Z" fill="#231F20"/>
</g>
</g>
<defs>
<clipPath id="clip0_992_8034">
<rect width="184" height="46" fill="white"/>
</clipPath>
</defs>
</svg>
