<?xml version="1.0" encoding="utf-8"?>
<svg viewBox="250.776 217.187 16 14" width="16" height="14" xmlns="http://www.w3.org/2000/svg">
  <path class="icon__cat" d="M 265.776 224.187 L 265.776 225.187 L 266.776 225.187 L 266.776 226.187 L 265.776 226.187 L 265.776 227.187 L 265.776 228.187 L 265.776 229.187 L 265.776 230.187 L 264.776 230.187 L 264.776 231.187 L 263.776 231.187 L 262.776 231.187 L 261.776 231.187 L 260.776 231.187 L 259.776 231.187 L 258.776 231.187 L 257.776 231.187 L 256.776 231.187 L 255.776 231.187 L 254.776 231.187 L 253.576 231.187 L 253.176 231.187 L 252.876 231.187 L 252.876 230.187 L 251.776 230.187 L 251.776 229.187 L 251.776 228.187 L 251.776 227.187 L 251.776 226.187 L 250.776 226.187 L 250.776 225.187 L 251.776 225.187 L 251.776 224.187 L 250.776 224.187 L 250.776 223.187 L 251.776 223.187 L 252.476 223.187 L 252.476 222.187 L 252.476 221.187 L 253.476 221.187 L 253.476 220.187 L 253.476 219.187 L 253.476 218.187 L 254.476 218.187 L 254.476 217.187 L 255.476 217.187 L 255.476 218.187 L 256.476 218.187 L 256.476 219.187 L 257.476 219.187 L 258.476 219.187 L 259.476 219.187 L 260.476 219.187 L 260.476 218.187 L 261.476 218.187 L 261.476 217.187 L 262.476 217.187 L 262.476 218.187 L 263.476 218.187 L 263.476 219.187 L 263.476 220.187 L 263.476 221.187 L 264.476 221.187 L 264.476 222.187 L 264.476 223.187 L 265.776 223.187 L 266.776 223.187 L 266.776 224.187 L 265.776 224.187 Z" style="fill: rgb(255, 255, 255);"/>
  <path class="icon__eyes" d="M 260.476 222.087 L 261.476 222.087 L 261.476 223.087 L 261.476 224.087 L 260.476 224.087 L 260.476 223.187 L 260.476 222.087 Z M 255.976 223.187 L 255.976 224.187 L 256.976 224.187 L 256.976 223.187 L 256.976 222.187 L 255.976 222.187 L 255.976 223.187 Z" style="fill: rgb(236, 0, 0);"/>
</svg>