<?xml version="1.0" encoding="UTF-8"?>
<svg version="1.1" xmlns="http://www.w3.org/2000/svg" width="1536" height="963">
<path d="M0 0 C1.98 0 3.96 0 6 0 C6 1.98 6 3.96 6 6 C6.99 6 7.98 6 9 6 C9 6.99 9 7.98 9 9 C9.99 9 10.98 9 12 9 C12 9.99 12 10.98 12 12 C12.99 12 13.98 12 15 12 C15 13.98 15 15.96 15 18 C15.99 18 16.98 18 18 18 C18 19.98 18 21.96 18 24 C18.99 24 19.98 24 21 24 C21 25.98 21 27.96 21 30 C21.99 30 22.98 30 24 30 C24 31.98 24 33.96 24 36 C24.99 36 25.98 36 27 36 C27 39.96 27 43.92 27 48 C27.99 48 28.98 48 30 48 C30 75.72 30 103.44 30 132 C29.01 132 28.02 132 27 132 C27 153.78 27 175.56 27 198 C26.01 198 25.02 198 24 198 C24 208.89 24 219.78 24 231 C24.99 231 25.98 231 27 231 C27 230.01 27 229.02 27 228 C31.95 228 36.9 228 42 228 C42 227.01 42 226.02 42 225 C42.99 225 43.98 225 45 225 C45 230.94 45 236.88 45 243 C44.01 243 43.02 243 42 243 C42 246.96 42 250.92 42 255 C41.01 255 40.02 255 39 255 C39 258.96 39 262.92 39 267 C38.01 267 37.02 267 36 267 C36 268.98 36 270.96 36 273 C35.01 273 34.02 273 33 273 C33 275.97 33 278.94 33 282 C32.01 282 31.02 282 30 282 C30 283.98 30 285.96 30 288 C29.01 288 28.02 288 27 288 C27 289.98 27 291.96 27 294 C26.01 294 25.02 294 24 294 C24 295.98 24 297.96 24 300 C23.01 300 22.02 300 21 300 C21 301.98 21 303.96 21 306 C20.01 306 19.02 306 18 306 C18 306.99 18 307.98 18 309 C17.01 309 16.02 309 15 309 C15 310.98 15 312.96 15 315 C14.01 315 13.02 315 12 315 C12 315.99 12 316.98 12 318 C11.01 318 10.02 318 9 318 C9 318.99 9 319.98 9 321 C8.01 321 7.02 321 6 321 C6 322.98 6 324.96 6 327 C5.01 327 4.02 327 3 327 C3 327.99 3 328.98 3 330 C2.01 330 1.02 330 0 330 C0 330.99 0 331.98 0 333 C-0.99 333 -1.98 333 -3 333 C-3 333.99 -3 334.98 -3 336 C-3.99 336 -4.98 336 -6 336 C-6 336.99 -6 337.98 -6 339 C-6.99 339 -7.98 339 -9 339 C-9 339.99 -9 340.98 -9 342 C-9.99 342 -10.98 342 -12 342 C-12 342.99 -12 343.98 -12 345 C-12.99 345 -13.98 345 -15 345 C-15 345.99 -15 346.98 -15 348 C-15.99 348 -16.98 348 -18 348 C-18 348.99 -18 349.98 -18 351 C-18.99 351 -19.98 351 -21 351 C-21 351.99 -21 352.98 -21 354 C-21.99 354 -22.98 354 -24 354 C-24 354.99 -24 355.98 -24 357 C-24.99 357 -25.98 357 -27 357 C-27 357.99 -27 358.98 -27 360 C-27.99 360 -28.98 360 -30 360 C-30 360.99 -30 361.98 -30 363 C-30.99 363 -31.98 363 -33 363 C-33 363.99 -33 364.98 -33 366 C-33.99 366 -34.98 366 -36 366 C-36 366.99 -36 367.98 -36 369 C-37.98 369 -39.96 369 -42 369 C-42 369.99 -42 370.98 -42 372 C-42.99 372 -43.98 372 -45 372 C-45 372.99 -45 373.98 -45 375 C-45.99 375 -46.98 375 -48 375 C-48 375.99 -48 376.98 -48 378 C-49.98 378 -51.96 378 -54 378 C-54 378.99 -54 379.98 -54 381 C-54.99 381 -55.98 381 -57 381 C-57 381.99 -57 382.98 -57 384 C-58.98 384 -60.96 384 -63 384 C-63 384.99 -63 385.98 -63 387 C-64.98 387 -66.96 387 -69 387 C-69 387.99 -69 388.98 -69 390 C-69.99 390 -70.98 390 -72 390 C-72 390.99 -72 391.98 -72 393 C-73.98 393 -75.96 393 -78 393 C-78 393.99 -78 394.98 -78 396 C-79.98 396 -81.96 396 -84 396 C-84 396.99 -84 397.98 -84 399 C-85.98 399 -87.96 399 -90 399 C-90 399.99 -90 400.98 -90 402 C-91.98 402 -93.96 402 -96 402 C-96 402.99 -96 403.98 -96 405 C-97.98 405 -99.96 405 -102 405 C-102 405.99 -102 406.98 -102 408 C-103.98 408 -105.96 408 -108 408 C-108 408.99 -108 409.98 -108 411 C-111.96 411 -115.92 411 -120 411 C-120 411.99 -120 412.98 -120 414 C-123.96 414 -127.92 414 -132 414 C-132 414.99 -132 415.98 -132 417 C-143.88 417 -155.76 417 -168 417 C-168 416.01 -168 415.02 -168 414 C-171.96 414 -175.92 414 -180 414 C-180 413.01 -180 412.02 -180 411 C-182.97 411 -185.94 411 -189 411 C-189 410.01 -189 409.02 -189 408 C-190.98 408 -192.96 408 -195 408 C-195 407.01 -195 406.02 -195 405 C-195.99 405 -196.98 405 -198 405 C-198 404.01 -198 403.02 -198 402 C-197.01 402 -196.02 402 -195 402 C-195 401.01 -195 400.02 -195 399 C-193.02 399 -191.04 399 -189 399 C-189 398.01 -189 397.02 -189 396 C-187.02 396 -185.04 396 -183 396 C-183 395.01 -183 394.02 -183 393 C-182.01 393 -181.02 393 -180 393 C-180 392.01 -180 391.02 -180 390 C-178.02 390 -176.04 390 -174 390 C-174 389.01 -174 388.02 -174 387 C-172.02 387 -170.04 387 -168 387 C-168 386.01 -168 385.02 -168 384 C-167.01 384 -166.02 384 -165 384 C-165 383.01 -165 382.02 -165 381 C-163.02 381 -161.04 381 -159 381 C-159 380.01 -159 379.02 -159 378 C-158.01 378 -157.02 378 -156 378 C-156 377.01 -156 376.02 -156 375 C-154.02 375 -152.04 375 -150 375 C-150 374.01 -150 373.02 -150 372 C-149.01 372 -148.02 372 -147 372 C-147 371.01 -147 370.02 -147 369 C-146.01 369 -145.02 369 -144 369 C-144 368.01 -144 367.02 -144 366 C-143.01 366 -142.02 366 -141 366 C-141 365.01 -141 364.02 -141 363 C-139.02 363 -137.04 363 -135 363 C-135 362.01 -135 361.02 -135 360 C-134.01 360 -133.02 360 -132 360 C-132 359.01 -132 358.02 -132 357 C-131.01 357 -130.02 357 -129 357 C-129 356.01 -129 355.02 -129 354 C-128.01 354 -127.02 354 -126 354 C-126 353.01 -126 352.02 -126 351 C-125.01 351 -124.02 351 -123 351 C-123 350.01 -123 349.02 -123 348 C-122.01 348 -121.02 348 -120 348 C-120 347.01 -120 346.02 -120 345 C-119.01 345 -118.02 345 -117 345 C-117 344.01 -117 343.02 -117 342 C-116.01 342 -115.02 342 -114 342 C-114 341.01 -114 340.02 -114 339 C-113.01 339 -112.02 339 -111 339 C-111 338.01 -111 337.02 -111 336 C-110.01 336 -109.02 336 -108 336 C-108 334.02 -108 332.04 -108 330 C-107.01 330 -106.02 330 -105 330 C-105 329.01 -105 328.02 -105 327 C-104.01 327 -103.02 327 -102 327 C-102 326.01 -102 325.02 -102 324 C-101.01 324 -100.02 324 -99 324 C-99 323.01 -99 322.02 -99 321 C-98.01 321 -97.02 321 -96 321 C-96 319.02 -96 317.04 -96 315 C-95.01 315 -94.02 315 -93 315 C-93 314.01 -93 313.02 -93 312 C-92.01 312 -91.02 312 -90 312 C-90 310.02 -90 308.04 -90 306 C-89.01 306 -88.02 306 -87 306 C-87 304.02 -87 302.04 -87 300 C-86.01 300 -85.02 300 -84 300 C-84 298.02 -84 296.04 -84 294 C-83.01 294 -82.02 294 -81 294 C-81 293.01 -81 292.02 -81 291 C-80.01 291 -79.02 291 -78 291 C-78 288.03 -78 285.06 -78 282 C-77.01 282 -76.02 282 -75 282 C-75 280.02 -75 278.04 -75 276 C-74.01 276 -73.02 276 -72 276 C-72 274.02 -72 272.04 -72 270 C-71.01 270 -70.02 270 -69 270 C-69 267.03 -69 264.06 -69 261 C-68.01 261 -67.02 261 -66 261 C-66 258.03 -66 255.06 -66 252 C-65.01 252 -64.02 252 -63 252 C-63 248.04 -63 244.08 -63 240 C-62.01 240 -61.02 240 -60 240 C-60 236.04 -60 232.08 -60 228 C-59.01 228 -58.02 228 -57 228 C-57 225.03 -57 222.06 -57 219 C-57.99 219 -58.98 219 -60 219 C-60 220.98 -60 222.96 -60 225 C-60.99 225 -61.98 225 -63 225 C-63 226.98 -63 228.96 -63 231 C-63.99 231 -64.98 231 -66 231 C-66 232.98 -66 234.96 -66 237 C-66.99 237 -67.98 237 -69 237 C-69 238.98 -69 240.96 -69 243 C-69.99 243 -70.98 243 -72 243 C-72 244.98 -72 246.96 -72 249 C-72.99 249 -73.98 249 -75 249 C-75 250.98 -75 252.96 -75 255 C-75.99 255 -76.98 255 -78 255 C-78 255.99 -78 256.98 -78 258 C-78.99 258 -79.98 258 -81 258 C-81 259.98 -81 261.96 -81 264 C-81.99 264 -82.98 264 -84 264 C-84 265.98 -84 267.96 -84 270 C-84.99 270 -85.98 270 -87 270 C-87 270.99 -87 271.98 -87 273 C-87.99 273 -88.98 273 -90 273 C-90 274.98 -90 276.96 -90 279 C-90.99 279 -91.98 279 -93 279 C-93 279.99 -93 280.98 -93 282 C-93.99 282 -94.98 282 -96 282 C-96 283.98 -96 285.96 -96 288 C-96.99 288 -97.98 288 -99 288 C-99 288.99 -99 289.98 -99 291 C-99.99 291 -100.98 291 -102 291 C-102 291.99 -102 292.98 -102 294 C-102.99 294 -103.98 294 -105 294 C-105 295.98 -105 297.96 -105 300 C-105.99 300 -106.98 300 -108 300 C-108 300.99 -108 301.98 -108 303 C-108.99 303 -109.98 303 -111 303 C-111 303.99 -111 304.98 -111 306 C-111.99 306 -112.98 306 -114 306 C-114 307.98 -114 309.96 -114 312 C-114.99 312 -115.98 312 -117 312 C-117 312.99 -117 313.98 -117 315 C-117.99 315 -118.98 315 -120 315 C-120 315.99 -120 316.98 -120 318 C-120.99 318 -121.98 318 -123 318 C-123 318.99 -123 319.98 -123 321 C-123.99 321 -124.98 321 -126 321 C-126 321.99 -126 322.98 -126 324 C-126.99 324 -127.98 324 -129 324 C-129 324.99 -129 325.98 -129 327 C-129.99 327 -130.98 327 -132 327 C-132 327.99 -132 328.98 -132 330 C-132.99 330 -133.98 330 -135 330 C-135 330.99 -135 331.98 -135 333 C-135.99 333 -136.98 333 -138 333 C-138 333.99 -138 334.98 -138 336 C-138.99 336 -139.98 336 -141 336 C-141 336.99 -141 337.98 -141 339 C-141.99 339 -142.98 339 -144 339 C-144 339.99 -144 340.98 -144 342 C-144.99 342 -145.98 342 -147 342 C-147 342.99 -147 343.98 -147 345 C-147.99 345 -148.98 345 -150 345 C-150 345.99 -150 346.98 -150 348 C-150.99 348 -151.98 348 -153 348 C-153 348.99 -153 349.98 -153 351 C-153.99 351 -154.98 351 -156 351 C-156 351.99 -156 352.98 -156 354 C-156.99 354 -157.98 354 -159 354 C-159 354.99 -159 355.98 -159 357 C-159.99 357 -160.98 357 -162 357 C-162 357.99 -162 358.98 -162 360 C-162.99 360 -163.98 360 -165 360 C-165 360.99 -165 361.98 -165 363 C-165.99 363 -166.98 363 -168 363 C-168 363.99 -168 364.98 -168 366 C-169.98 366 -171.96 366 -174 366 C-174 366.99 -174 367.98 -174 369 C-174.99 369 -175.98 369 -177 369 C-177 369.99 -177 370.98 -177 372 C-177.99 372 -178.98 372 -180 372 C-180 372.99 -180 373.98 -180 375 C-180.99 375 -181.98 375 -183 375 C-183 375.99 -183 376.98 -183 378 C-184.98 378 -186.96 378 -189 378 C-189 378.99 -189 379.98 -189 381 C-189.99 381 -190.98 381 -192 381 C-192 381.99 -192 382.98 -192 384 C-192.99 384 -193.98 384 -195 384 C-195 384.99 -195 385.98 -195 387 C-196.98 387 -198.96 387 -201 387 C-201 387.99 -201 388.98 -201 390 C-201.99 390 -202.98 390 -204 390 C-204 390.99 -204 391.98 -204 393 C-205.98 393 -207.96 393 -210 393 C-210 393.99 -210 394.98 -210 396 C-210.99 396 -211.98 396 -213 396 C-213 396.99 -213 397.98 -213 399 C-214.98 399 -216.96 399 -219 399 C-219 399.99 -219 400.98 -219 402 C-219.99 402 -220.98 402 -222 402 C-222 402.99 -222 403.98 -222 405 C-223.98 405 -225.96 405 -228 405 C-228 405.99 -228 406.98 -228 408 C-229.98 408 -231.96 408 -234 408 C-234 408.99 -234 409.98 -234 411 C-234.99 411 -235.98 411 -237 411 C-237 411.99 -237 412.98 -237 414 C-238.98 414 -240.96 414 -243 414 C-243 414.99 -243 415.98 -243 417 C-244.98 417 -246.96 417 -249 417 C-249 417.99 -249 418.98 -249 420 C-250.98 420 -252.96 420 -255 420 C-255 420.99 -255 421.98 -255 423 C-256.98 423 -258.96 423 -261 423 C-261 423.99 -261 424.98 -261 426 C-261.99 426 -262.98 426 -264 426 C-264 426.99 -264 427.98 -264 429 C-265.98 429 -267.96 429 -270 429 C-270 429.99 -270 430.98 -270 432 C-270.99 432 -271.98 432 -273 432 C-273 432.99 -273 433.98 -273 435 C-274.98 435 -276.96 435 -279 435 C-279 435.99 -279 436.98 -279 438 C-279.99 438 -280.98 438 -282 438 C-282 438.99 -282 439.98 -282 441 C-283.98 441 -285.96 441 -288 441 C-288 442.98 -288 444.96 -288 447 C-287.01 447 -286.02 447 -285 447 C-285 448.98 -285 450.96 -285 453 C-284.01 453 -283.02 453 -282 453 C-282 453.99 -282 454.98 -282 456 C-281.01 456 -280.02 456 -279 456 C-279 456.99 -279 457.98 -279 459 C-278.01 459 -277.02 459 -276 459 C-276 459.99 -276 460.98 -276 462 C-275.01 462 -274.02 462 -273 462 C-273 463.98 -273 465.96 -273 468 C-272.01 468 -271.02 468 -270 468 C-270 468.99 -270 469.98 -270 471 C-269.01 471 -268.02 471 -267 471 C-267 471.99 -267 472.98 -267 474 C-266.01 474 -265.02 474 -264 474 C-264 474.99 -264 475.98 -264 477 C-263.01 477 -262.02 477 -261 477 C-261 477.99 -261 478.98 -261 480 C-260.01 480 -259.02 480 -258 480 C-258 479.01 -258 478.02 -258 477 C-256.02 477 -254.04 477 -252 477 C-252 476.01 -252 475.02 -252 474 C-251.01 474 -250.02 474 -249 474 C-249 473.01 -249 472.02 -249 471 C-247.02 471 -245.04 471 -243 471 C-243 470.01 -243 469.02 -243 468 C-242.01 468 -241.02 468 -240 468 C-240 467.01 -240 466.02 -240 465 C-238.02 465 -236.04 465 -234 465 C-234 464.01 -234 463.02 -234 462 C-232.02 462 -230.04 462 -228 462 C-228 461.01 -228 460.02 -228 459 C-226.02 459 -224.04 459 -222 459 C-222 458.01 -222 457.02 -222 456 C-220.02 456 -218.04 456 -216 456 C-216 455.01 -216 454.02 -216 453 C-213.03 453 -210.06 453 -207 453 C-207 452.01 -207 451.02 -207 450 C-204.03 450 -201.06 450 -198 450 C-198 449.01 -198 448.02 -198 447 C-194.04 447 -190.08 447 -186 447 C-186 446.01 -186 445.02 -186 444 C-171.15 444 -156.3 444 -141 444 C-141 444.99 -141 445.98 -141 447 C-136.05 447 -131.1 447 -126 447 C-126 447.99 -126 448.98 -126 450 C-122.04 450 -118.08 450 -114 450 C-114 450.99 -114 451.98 -114 453 C-111.03 453 -108.06 453 -105 453 C-105 453.99 -105 454.98 -105 456 C-103.02 456 -101.04 456 -99 456 C-99 456.99 -99 457.98 -99 459 C-96.03 459 -93.06 459 -90 459 C-90 459.99 -90 460.98 -90 462 C-88.02 462 -86.04 462 -84 462 C-84 462.99 -84 463.98 -84 465 C-82.02 465 -80.04 465 -78 465 C-78 465.99 -78 466.98 -78 468 C-76.02 468 -74.04 468 -72 468 C-72 468.99 -72 469.98 -72 471 C-71.01 471 -70.02 471 -69 471 C-69 471.99 -69 472.98 -69 474 C-67.02 474 -65.04 474 -63 474 C-63 474.99 -63 475.98 -63 477 C-61.02 477 -59.04 477 -57 477 C-57 477.99 -57 478.98 -57 480 C-56.01 480 -55.02 480 -54 480 C-54 480.99 -54 481.98 -54 483 C-53.01 483 -52.02 483 -51 483 C-51 483.99 -51 484.98 -51 486 C-49.02 486 -47.04 486 -45 486 C-45 486.99 -45 487.98 -45 489 C-44.01 489 -43.02 489 -42 489 C-42 489.99 -42 490.98 -42 492 C-41.01 492 -40.02 492 -39 492 C-39 492.99 -39 493.98 -39 495 C-37.02 495 -35.04 495 -33 495 C-33 495.99 -33 496.98 -33 498 C-32.01 498 -31.02 498 -30 498 C-30 498.99 -30 499.98 -30 501 C-29.01 501 -28.02 501 -27 501 C-27 501.99 -27 502.98 -27 504 C-26.01 504 -25.02 504 -24 504 C-24 504.99 -24 505.98 -24 507 C-23.01 507 -22.02 507 -21 507 C-21 507.99 -21 508.98 -21 510 C-20.01 510 -19.02 510 -18 510 C-18 510.99 -18 511.98 -18 513 C-17.01 513 -16.02 513 -15 513 C-15 513.99 -15 514.98 -15 516 C-14.01 516 -13.02 516 -12 516 C-12 516.99 -12 517.98 -12 519 C-11.01 519 -10.02 519 -9 519 C-9 519.99 -9 520.98 -9 522 C-8.01 522 -7.02 522 -6 522 C-6 522.99 -6 523.98 -6 525 C-5.01 525 -4.02 525 -3 525 C-3 525.99 -3 526.98 -3 528 C-2.01 528 -1.02 528 0 528 C0 528.99 0 529.98 0 531 C0.99 531 1.98 531 3 531 C3 532.98 3 534.96 3 537 C0.03 537 -2.94 537 -6 537 C-6 537.99 -6 538.98 -6 540 C-10.95 540 -15.9 540 -21 540 C-21 541.98 -21 543.96 -21 546 C-19.02 546 -17.04 546 -15 546 C-15 546.99 -15 547.98 -15 549 C-14.01 549 -13.02 549 -12 549 C-12 549.99 -12 550.98 -12 552 C-10.02 552 -8.04 552 -6 552 C-6 552.99 -6 553.98 -6 555 C-5.01 555 -4.02 555 -3 555 C-3 555.99 -3 556.98 -3 558 C-2.01 558 -1.02 558 0 558 C0 559.98 0 561.96 0 564 C0.99 564 1.98 564 3 564 C3 564.99 3 565.98 3 567 C3.99 567 4.98 567 6 567 C6 568.98 6 570.96 6 573 C6.99 573 7.98 573 9 573 C9 573.99 9 574.98 9 576 C9.99 576 10.98 576 12 576 C12 576.99 12 577.98 12 579 C12.99 579 13.98 579 15 579 C15 580.98 15 582.96 15 585 C15.99 585 16.98 585 18 585 C18 585.99 18 586.98 18 588 C18.99 588 19.98 588 21 588 C21 589.98 21 591.96 21 594 C21.99 594 22.98 594 24 594 C24 594.99 24 595.98 24 597 C24.99 597 25.98 597 27 597 C27 598.98 27 600.96 27 603 C27.99 603 28.98 603 30 603 C30 604.98 30 606.96 30 609 C30.99 609 31.98 609 33 609 C33 609.99 33 610.98 33 612 C33.99 612 34.98 612 36 612 C36 613.98 36 615.96 36 618 C36.99 618 37.98 618 39 618 C39 618.99 39 619.98 39 621 C39.99 621 40.98 621 42 621 C42 622.98 42 624.96 42 627 C42.99 627 43.98 627 45 627 C45 627.99 45 628.98 45 630 C45.99 630 46.98 630 48 630 C48 631.98 48 633.96 48 636 C48.99 636 49.98 636 51 636 C51 637.98 51 639.96 51 642 C51.99 642 52.98 642 54 642 C54 643.98 54 645.96 54 648 C54.99 648 55.98 648 57 648 C57 649.98 57 651.96 57 654 C57.99 654 58.98 654 60 654 C60 655.98 60 657.96 60 660 C60.99 660 61.98 660 63 660 C63 661.98 63 663.96 63 666 C63.99 666 64.98 666 66 666 C66 667.98 66 669.96 66 672 C66.99 672 67.98 672 69 672 C69 673.98 69 675.96 69 678 C69.99 678 70.98 678 72 678 C72 679.98 72 681.96 72 684 C72.99 684 73.98 684 75 684 C75 685.98 75 687.96 75 690 C75.99 690 76.98 690 78 690 C78 691.98 78 693.96 78 696 C78.99 696 79.98 696 81 696 C81 697.98 81 699.96 81 702 C81.99 702 82.98 702 84 702 C84 702.99 84 703.98 84 705 C84.99 705 85.98 705 87 705 C87 706.98 87 708.96 87 711 C87.99 711 88.98 711 90 711 C90 711.99 90 712.98 90 714 C90.99 714 91.98 714 93 714 C93 714.99 93 715.98 93 717 C93.99 717 94.98 717 96 717 C96 717.99 96 718.98 96 720 C96.99 720 97.98 720 99 720 C99 720.99 99 721.98 99 723 C99.99 723 100.98 723 102 723 C102 723.99 102 724.98 102 726 C102.99 726 103.98 726 105 726 C105 726.99 105 727.98 105 729 C105.99 729 106.98 729 108 729 C108 729.99 108 730.98 108 732 C108.99 732 109.98 732 111 732 C111 732.99 111 733.98 111 735 C111.99 735 112.98 735 114 735 C114 735.99 114 736.98 114 738 C115.98 738 117.96 738 120 738 C120 738.99 120 739.98 120 741 C121.98 741 123.96 741 126 741 C126 741.99 126 742.98 126 744 C127.98 744 129.96 744 132 744 C132 744.99 132 745.98 132 747 C133.98 747 135.96 747 138 747 C138 747.99 138 748.98 138 750 C140.97 750 143.94 750 147 750 C147 751.98 147 753.96 147 756 C145.02 756 143.04 756 141 756 C141 756.99 141 757.98 141 759 C140.01 759 139.02 759 138 759 C138 759.99 138 760.98 138 762 C136.02 762 134.04 762 132 762 C132 762.99 132 763.98 132 765 C130.02 765 128.04 765 126 765 C126 765.99 126 766.98 126 768 C124.02 768 122.04 768 120 768 C120 768.99 120 769.98 120 771 C117.03 771 114.06 771 111 771 C111 771.99 111 772.98 111 774 C107.04 774 103.08 774 99 774 C99 774.99 99 775.98 99 777 C95.04 777 91.08 777 87 777 C87 777.99 87 778.98 87 780 C81.06 780 75.12 780 69 780 C69 780.99 69 781.98 69 783 C38.31 783 7.62 783 -24 783 C-24 782.01 -24 781.02 -24 780 C-30.93 780 -37.86 780 -45 780 C-45 779.01 -45 778.02 -45 777 C-48.96 777 -52.92 777 -57 777 C-57 776.01 -57 775.02 -57 774 C-60.96 774 -64.92 774 -69 774 C-69 773.01 -69 772.02 -69 771 C-72.96 771 -76.92 771 -81 771 C-81 770.01 -81 769.02 -81 768 C-83.97 768 -86.94 768 -90 768 C-90 767.01 -90 766.02 -90 765 C-92.97 765 -95.94 765 -99 765 C-99 764.01 -99 763.02 -99 762 C-100.98 762 -102.96 762 -105 762 C-105 761.01 -105 760.02 -105 759 C-107.97 759 -110.94 759 -114 759 C-114 758.01 -114 757.02 -114 756 C-115.98 756 -117.96 756 -120 756 C-120 758.97 -120 761.94 -120 765 C-119.01 765 -118.02 765 -117 765 C-117 769.95 -117 774.9 -117 780 C-116.01 780 -115.02 780 -114 780 C-114 783.96 -114 787.92 -114 792 C-115.98 792 -117.96 792 -120 792 C-120 791.01 -120 790.02 -120 789 C-121.98 789 -123.96 789 -126 789 C-126 788.01 -126 787.02 -126 786 C-128.97 786 -131.94 786 -135 786 C-135 785.01 -135 784.02 -135 783 C-136.98 783 -138.96 783 -141 783 C-141 782.01 -141 781.02 -141 780 C-142.98 780 -144.96 780 -147 780 C-147 779.01 -147 778.02 -147 777 C-148.98 777 -150.96 777 -153 777 C-153 776.01 -153 775.02 -153 774 C-154.98 774 -156.96 774 -159 774 C-159 773.01 -159 772.02 -159 771 C-159.99 771 -160.98 771 -162 771 C-162 770.01 -162 769.02 -162 768 C-163.98 768 -165.96 768 -168 768 C-168 767.01 -168 766.02 -168 765 C-168.99 765 -169.98 765 -171 765 C-171 764.01 -171 763.02 -171 762 C-172.98 762 -174.96 762 -177 762 C-177 761.01 -177 760.02 -177 759 C-177.99 759 -178.98 759 -180 759 C-180 758.01 -180 757.02 -180 756 C-180.99 756 -181.98 756 -183 756 C-183 755.01 -183 754.02 -183 753 C-184.98 753 -186.96 753 -189 753 C-189 752.01 -189 751.02 -189 750 C-189.99 750 -190.98 750 -192 750 C-192 749.01 -192 748.02 -192 747 C-192.99 747 -193.98 747 -195 747 C-195 746.01 -195 745.02 -195 744 C-195.99 744 -196.98 744 -198 744 C-198 743.01 -198 742.02 -198 741 C-199.98 741 -201.96 741 -204 741 C-204 740.01 -204 739.02 -204 738 C-204.99 738 -205.98 738 -207 738 C-207 737.01 -207 736.02 -207 735 C-207.99 735 -208.98 735 -210 735 C-210 734.01 -210 733.02 -210 732 C-210.99 732 -211.98 732 -213 732 C-213 731.01 -213 730.02 -213 729 C-213.99 729 -214.98 729 -216 729 C-216 728.01 -216 727.02 -216 726 C-216.99 726 -217.98 726 -219 726 C-219 725.01 -219 724.02 -219 723 C-219.99 723 -220.98 723 -222 723 C-222 722.01 -222 721.02 -222 720 C-222.99 720 -223.98 720 -225 720 C-225 719.01 -225 718.02 -225 717 C-225.99 717 -226.98 717 -228 717 C-228 716.01 -228 715.02 -228 714 C-228.99 714 -229.98 714 -231 714 C-231 713.01 -231 712.02 -231 711 C-231.99 711 -232.98 711 -234 711 C-234 710.01 -234 709.02 -234 708 C-234.99 708 -235.98 708 -237 708 C-237 707.01 -237 706.02 -237 705 C-237.99 705 -238.98 705 -240 705 C-240 704.01 -240 703.02 -240 702 C-240.99 702 -241.98 702 -243 702 C-243 701.01 -243 700.02 -243 699 C-243.99 699 -244.98 699 -246 699 C-246 698.01 -246 697.02 -246 696 C-246.99 696 -247.98 696 -249 696 C-249 694.02 -249 692.04 -249 690 C-249.99 690 -250.98 690 -252 690 C-252 689.01 -252 688.02 -252 687 C-252.99 687 -253.98 687 -255 687 C-255 686.01 -255 685.02 -255 684 C-255.99 684 -256.98 684 -258 684 C-258 682.02 -258 680.04 -258 678 C-258.99 678 -259.98 678 -261 678 C-261 677.01 -261 676.02 -261 675 C-261.99 675 -262.98 675 -264 675 C-264 673.02 -264 671.04 -264 669 C-264.99 669 -265.98 669 -267 669 C-267 668.01 -267 667.02 -267 666 C-267.99 666 -268.98 666 -270 666 C-270 664.02 -270 662.04 -270 660 C-270.99 660 -271.98 660 -273 660 C-273 658.02 -273 656.04 -273 654 C-273.99 654 -274.98 654 -276 654 C-276 652.02 -276 650.04 -276 648 C-276.99 648 -277.98 648 -279 648 C-279 646.02 -279 644.04 -279 642 C-279.99 642 -280.98 642 -282 642 C-282 640.02 -282 638.04 -282 636 C-282.99 636 -283.98 636 -285 636 C-285 634.02 -285 632.04 -285 630 C-285.99 630 -286.98 630 -288 630 C-288 627.03 -288 624.06 -288 621 C-288.99 621 -289.98 621 -291 621 C-291 617.04 -291 613.08 -291 609 C-291.99 609 -292.98 609 -294 609 C-294 602.07 -294 595.14 -294 588 C-294.99 588 -295.98 588 -297 588 C-297 581.07 -297 574.14 -297 567 C-296.01 567 -295.02 567 -294 567 C-294 560.07 -294 553.14 -294 546 C-293.01 546 -292.02 546 -291 546 C-291 543.03 -291 540.06 -291 537 C-290.01 537 -289.02 537 -288 537 C-288 534.03 -288 531.06 -288 528 C-287.01 528 -286.02 528 -285 528 C-285 527.01 -285 526.02 -285 525 C-283.02 525 -281.04 525 -279 525 C-279 525.99 -279 526.98 -279 528 C-278.01 528 -277.02 528 -276 528 C-276 528.99 -276 529.98 -276 531 C-275.01 531 -274.02 531 -273 531 C-273 531.99 -273 532.98 -273 534 C-272.01 534 -271.02 534 -270 534 C-270 534.99 -270 535.98 -270 537 C-269.01 537 -268.02 537 -267 537 C-267 537.99 -267 538.98 -267 540 C-266.01 540 -265.02 540 -264 540 C-264 540.99 -264 541.98 -264 543 C-263.01 543 -262.02 543 -261 543 C-261 543.99 -261 544.98 -261 546 C-260.01 546 -259.02 546 -258 546 C-258 546.99 -258 547.98 -258 549 C-256.02 549 -254.04 549 -252 549 C-252 549.99 -252 550.98 -252 552 C-251.01 552 -250.02 552 -249 552 C-249 552.99 -249 553.98 -249 555 C-248.01 555 -247.02 555 -246 555 C-246 555.99 -246 556.98 -246 558 C-245.01 558 -244.02 558 -243 558 C-243 558.99 -243 559.98 -243 561 C-242.01 561 -241.02 561 -240 561 C-240 561.99 -240 562.98 -240 564 C-239.01 564 -238.02 564 -237 564 C-237 564.99 -237 565.98 -237 567 C-236.01 567 -235.02 567 -234 567 C-234 567.99 -234 568.98 -234 570 C-233.01 570 -232.02 570 -231 570 C-231 570.99 -231 571.98 -231 573 C-229.02 573 -227.04 573 -225 573 C-225 573.99 -225 574.98 -225 576 C-224.01 576 -223.02 576 -222 576 C-222 576.99 -222 577.98 -222 579 C-221.01 579 -220.02 579 -219 579 C-219 579.99 -219 580.98 -219 582 C-218.01 582 -217.02 582 -216 582 C-216 582.99 -216 583.98 -216 585 C-215.01 585 -214.02 585 -213 585 C-213 585.99 -213 586.98 -213 588 C-211.02 588 -209.04 588 -207 588 C-207 588.99 -207 589.98 -207 591 C-206.01 591 -205.02 591 -204 591 C-204 591.99 -204 592.98 -204 594 C-203.01 594 -202.02 594 -201 594 C-201 594.99 -201 595.98 -201 597 C-200.01 597 -199.02 597 -198 597 C-198 597.99 -198 598.98 -198 600 C-196.02 600 -194.04 600 -192 600 C-192 600.99 -192 601.98 -192 603 C-191.01 603 -190.02 603 -189 603 C-189 603.99 -189 604.98 -189 606 C-188.01 606 -187.02 606 -186 606 C-186 606.99 -186 607.98 -186 609 C-185.01 609 -184.02 609 -183 609 C-183 609.99 -183 610.98 -183 612 C-181.02 612 -179.04 612 -177 612 C-177 612.99 -177 613.98 -177 615 C-176.01 615 -175.02 615 -174 615 C-174 615.99 -174 616.98 -174 618 C-173.01 618 -172.02 618 -171 618 C-171 618.99 -171 619.98 -171 621 C-169.02 621 -167.04 621 -165 621 C-165 621.99 -165 622.98 -165 624 C-164.01 624 -163.02 624 -162 624 C-162 624.99 -162 625.98 -162 627 C-160.02 627 -158.04 627 -156 627 C-156 627.99 -156 628.98 -156 630 C-155.01 630 -154.02 630 -153 630 C-153 630.99 -153 631.98 -153 633 C-151.02 633 -149.04 633 -147 633 C-147 633.99 -147 634.98 -147 636 C-146.01 636 -145.02 636 -144 636 C-144 636.99 -144 637.98 -144 639 C-142.02 639 -140.04 639 -138 639 C-138 639.99 -138 640.98 -138 642 C-137.01 642 -136.02 642 -135 642 C-135 642.99 -135 643.98 -135 645 C-133.02 645 -131.04 645 -129 645 C-129 645.99 -129 646.98 -129 648 C-127.02 648 -125.04 648 -123 648 C-123 648.99 -123 649.98 -123 651 C-121.02 651 -119.04 651 -117 651 C-117 651.99 -117 652.98 -117 654 C-116.01 654 -115.02 654 -114 654 C-114 654.99 -114 655.98 -114 657 C-112.02 657 -110.04 657 -108 657 C-108 657.99 -108 658.98 -108 660 C-106.02 660 -104.04 660 -102 660 C-102 660.99 -102 661.98 -102 663 C-100.02 663 -98.04 663 -96 663 C-96 663.99 -96 664.98 -96 666 C-93.03 666 -90.06 666 -87 666 C-87 666.99 -87 667.98 -87 669 C-85.02 669 -83.04 669 -81 669 C-81 669.99 -81 670.98 -81 672 C-79.02 672 -77.04 672 -75 672 C-75 671.01 -75 670.02 -75 669 C-75.99 669 -76.98 669 -78 669 C-78 668.01 -78 667.02 -78 666 C-79.98 666 -81.96 666 -84 666 C-84 665.01 -84 664.02 -84 663 C-84.99 663 -85.98 663 -87 663 C-87 662.01 -87 661.02 -87 660 C-88.98 660 -90.96 660 -93 660 C-93 659.01 -93 658.02 -93 657 C-93.99 657 -94.98 657 -96 657 C-96 656.01 -96 655.02 -96 654 C-97.98 654 -99.96 654 -102 654 C-102 653.01 -102 652.02 -102 651 C-102.99 651 -103.98 651 -105 651 C-105 650.01 -105 649.02 -105 648 C-106.98 648 -108.96 648 -111 648 C-111 647.01 -111 646.02 -111 645 C-111.99 645 -112.98 645 -114 645 C-114 644.01 -114 643.02 -114 642 C-115.98 642 -117.96 642 -120 642 C-120 641.01 -120 640.02 -120 639 C-120.99 639 -121.98 639 -123 639 C-123 638.01 -123 637.02 -123 636 C-124.98 636 -126.96 636 -129 636 C-129 635.01 -129 634.02 -129 633 C-129.99 633 -130.98 633 -132 633 C-132 632.01 -132 631.02 -132 630 C-132.99 630 -133.98 630 -135 630 C-135 629.01 -135 628.02 -135 627 C-136.98 627 -138.96 627 -141 627 C-141 626.01 -141 625.02 -141 624 C-141.99 624 -142.98 624 -144 624 C-144 623.01 -144 622.02 -144 621 C-144.99 621 -145.98 621 -147 621 C-147 620.01 -147 619.02 -147 618 C-148.98 618 -150.96 618 -153 618 C-153 617.01 -153 616.02 -153 615 C-153.99 615 -154.98 615 -156 615 C-156 614.01 -156 613.02 -156 612 C-156.99 612 -157.98 612 -159 612 C-159 611.01 -159 610.02 -159 609 C-159.99 609 -160.98 609 -162 609 C-162 608.01 -162 607.02 -162 606 C-163.98 606 -165.96 606 -168 606 C-168 605.01 -168 604.02 -168 603 C-168.99 603 -169.98 603 -171 603 C-171 602.01 -171 601.02 -171 600 C-171.99 600 -172.98 600 -174 600 C-174 599.01 -174 598.02 -174 597 C-174.99 597 -175.98 597 -177 597 C-177 596.01 -177 595.02 -177 594 C-177.99 594 -178.98 594 -180 594 C-180 593.01 -180 592.02 -180 591 C-180.99 591 -181.98 591 -183 591 C-183 590.01 -183 589.02 -183 588 C-184.98 588 -186.96 588 -189 588 C-189 587.01 -189 586.02 -189 585 C-189.99 585 -190.98 585 -192 585 C-192 584.01 -192 583.02 -192 582 C-192.99 582 -193.98 582 -195 582 C-195 581.01 -195 580.02 -195 579 C-195.99 579 -196.98 579 -198 579 C-198 578.01 -198 577.02 -198 576 C-198.99 576 -199.98 576 -201 576 C-201 575.01 -201 574.02 -201 573 C-201.99 573 -202.98 573 -204 573 C-204 572.01 -204 571.02 -204 570 C-204.99 570 -205.98 570 -207 570 C-207 569.01 -207 568.02 -207 567 C-207.99 567 -208.98 567 -210 567 C-210 566.01 -210 565.02 -210 564 C-210.99 564 -211.98 564 -213 564 C-213 563.01 -213 562.02 -213 561 C-213.99 561 -214.98 561 -216 561 C-216 560.01 -216 559.02 -216 558 C-217.98 558 -219.96 558 -222 558 C-222 557.01 -222 556.02 -222 555 C-222.99 555 -223.98 555 -225 555 C-225 554.01 -225 553.02 -225 552 C-225.99 552 -226.98 552 -228 552 C-228 551.01 -228 550.02 -228 549 C-228.99 549 -229.98 549 -231 549 C-231 548.01 -231 547.02 -231 546 C-231.99 546 -232.98 546 -234 546 C-234 545.01 -234 544.02 -234 543 C-234.99 543 -235.98 543 -237 543 C-237 542.01 -237 541.02 -237 540 C-237.99 540 -238.98 540 -240 540 C-240 539.01 -240 538.02 -240 537 C-240.99 537 -241.98 537 -243 537 C-243 536.01 -243 535.02 -243 534 C-243.99 534 -244.98 534 -246 534 C-246 533.01 -246 532.02 -246 531 C-246.99 531 -247.98 531 -249 531 C-249 529.02 -249 527.04 -249 525 C-249.99 525 -250.98 525 -252 525 C-252 524.01 -252 523.02 -252 522 C-252.99 522 -253.98 522 -255 522 C-255 521.01 -255 520.02 -255 519 C-255.99 519 -256.98 519 -258 519 C-258 518.01 -258 517.02 -258 516 C-258.99 516 -259.98 516 -261 516 C-261 515.01 -261 514.02 -261 513 C-261.99 513 -262.98 513 -264 513 C-264 512.01 -264 511.02 -264 510 C-264.99 510 -265.98 510 -267 510 C-267 509.01 -267 508.02 -267 507 C-267.99 507 -268.98 507 -270 507 C-270 506.01 -270 505.02 -270 504 C-270.99 504 -271.98 504 -273 504 C-273 503.01 -273 502.02 -273 501 C-273.99 501 -274.98 501 -276 501 C-276 500.01 -276 499.02 -276 498 C-276.99 498 -277.98 498 -279 498 C-279 497.01 -279 496.02 -279 495 C-279.99 495 -280.98 495 -282 495 C-282 493.02 -282 491.04 -282 489 C-282.99 489 -283.98 489 -285 489 C-285 488.01 -285 487.02 -285 486 C-285.99 486 -286.98 486 -288 486 C-288 485.01 -288 484.02 -288 483 C-288.99 483 -289.98 483 -291 483 C-291 482.01 -291 481.02 -291 480 C-291.99 480 -292.98 480 -294 480 C-294 479.01 -294 478.02 -294 477 C-294.99 477 -295.98 477 -297 477 C-297 475.02 -297 473.04 -297 471 C-298.98 471 -300.96 471 -303 471 C-303 551.19 -303 631.38 -303 714 C-302.01 714 -301.02 714 -300 714 C-300 727.86 -300 741.72 -300 756 C-300.99 756 -301.98 756 -303 756 C-303 757.98 -303 759.96 -303 762 C-303.99 762 -304.98 762 -306 762 C-306 762.99 -306 763.98 -306 765 C-306.99 765 -307.98 765 -309 765 C-309 765.99 -309 766.98 -309 768 C-350.58 768 -392.16 768 -435 768 C-435 767.01 -435 766.02 -435 765 C-435.99 765 -436.98 765 -438 765 C-438 764.01 -438 763.02 -438 762 C-438.99 762 -439.98 762 -441 762 C-441 730.32 -441 698.64 -441 666 C-440.01 666 -439.02 666 -438 666 C-438 636.3 -438 606.6 -438 576 C-437.01 576 -436.02 576 -435 576 C-435 541.35 -435 506.7 -435 471 C-434.01 471 -433.02 471 -432 471 C-432 400.71 -432 330.42 -432 258 C-432.99 258 -433.98 258 -435 258 C-435 228.3 -435 198.6 -435 168 C-435.99 168 -436.98 168 -438 168 C-438 162.06 -438 156.12 -438 150 C-437.01 150 -436.02 150 -435 150 C-435 148.02 -435 146.04 -435 144 C-434.01 144 -433.02 144 -432 144 C-432 143.01 -432 142.02 -432 141 C-390.42 141 -348.84 141 -306 141 C-306 141.99 -306 142.98 -306 144 C-305.01 144 -304.02 144 -303 144 C-303 145.98 -303 147.96 -303 150 C-302.01 150 -301.02 150 -300 150 C-300 152.97 -300 155.94 -300 159 C-300.99 159 -301.98 159 -303 159 C-303 222.36 -303 285.72 -303 351 C-303.99 351 -304.98 351 -306 351 C-306 357.93 -306 364.86 -306 372 C-305.01 372 -304.02 372 -303 372 C-303 386.85 -303 401.7 -303 417 C-302.01 417 -301.02 417 -300 417 C-300 416.01 -300 415.02 -300 414 C-298.02 414 -296.04 414 -294 414 C-294 413.01 -294 412.02 -294 411 C-293.01 411 -292.02 411 -291 411 C-291 410.01 -291 409.02 -291 408 C-289.02 408 -287.04 408 -285 408 C-285 407.01 -285 406.02 -285 405 C-283.02 405 -281.04 405 -279 405 C-279 404.01 -279 403.02 -279 402 C-277.02 402 -275.04 402 -273 402 C-273 401.01 -273 400.02 -273 399 C-271.02 399 -269.04 399 -267 399 C-267 398.01 -267 397.02 -267 396 C-266.01 396 -265.02 396 -264 396 C-264 395.01 -264 394.02 -264 393 C-262.02 393 -260.04 393 -258 393 C-258 392.01 -258 391.02 -258 390 C-256.02 390 -254.04 390 -252 390 C-252 389.01 -252 388.02 -252 387 C-250.02 387 -248.04 387 -246 387 C-246 386.01 -246 385.02 -246 384 C-245.01 384 -244.02 384 -243 384 C-243 380.04 -243 376.08 -243 372 C-243.99 372 -244.98 372 -246 372 C-246 369.03 -246 366.06 -246 363 C-246.99 363 -247.98 363 -249 363 C-249 360.03 -249 357.06 -249 354 C-249.99 354 -250.98 354 -252 354 C-252 349.05 -252 344.1 -252 339 C-252.99 339 -253.98 339 -255 339 C-255 322.17 -255 305.34 -255 288 C-254.01 288 -253.02 288 -252 288 C-252 283.05 -252 278.1 -252 273 C-251.01 273 -250.02 273 -249 273 C-249 269.04 -249 265.08 -249 261 C-248.01 261 -247.02 261 -246 261 C-246 257.04 -246 253.08 -246 249 C-245.01 249 -244.02 249 -243 249 C-243 246.03 -243 243.06 -243 240 C-242.01 240 -241.02 240 -240 240 C-240 237.03 -240 234.06 -240 231 C-239.01 231 -238.02 231 -237 231 C-237 229.02 -237 227.04 -237 225 C-236.01 225 -235.02 225 -234 225 C-234 223.02 -234 221.04 -234 219 C-233.01 219 -232.02 219 -231 219 C-231 216.03 -231 213.06 -231 210 C-230.01 210 -229.02 210 -228 210 C-228 208.02 -228 206.04 -228 204 C-227.01 204 -226.02 204 -225 204 C-225 203.01 -225 202.02 -225 201 C-224.01 201 -223.02 201 -222 201 C-222 199.02 -222 197.04 -222 195 C-221.01 195 -220.02 195 -219 195 C-219 193.02 -219 191.04 -219 189 C-218.01 189 -217.02 189 -216 189 C-216 187.02 -216 185.04 -216 183 C-215.01 183 -214.02 183 -213 183 C-213 181.02 -213 179.04 -213 177 C-212.01 177 -211.02 177 -210 177 C-210 175.02 -210 173.04 -210 171 C-209.01 171 -208.02 171 -207 171 C-207 170.01 -207 169.02 -207 168 C-206.01 168 -205.02 168 -204 168 C-204 169.98 -204 171.96 -204 174 C-203.01 174 -202.02 174 -201 174 C-201 175.98 -201 177.96 -201 180 C-200.01 180 -199.02 180 -198 180 C-198 181.98 -198 183.96 -198 186 C-197.01 186 -196.02 186 -195 186 C-195 187.98 -195 189.96 -195 192 C-194.01 192 -193.02 192 -192 192 C-192 191.01 -192 190.02 -192 189 C-191.01 189 -190.02 189 -189 189 C-189 188.01 -189 187.02 -189 186 C-188.01 186 -187.02 186 -186 186 C-186 185.01 -186 184.02 -186 183 C-185.01 183 -184.02 183 -183 183 C-183 181.02 -183 179.04 -183 177 C-182.01 177 -181.02 177 -180 177 C-180 176.01 -180 175.02 -180 174 C-179.01 174 -178.02 174 -177 174 C-177 172.02 -177 170.04 -177 168 C-176.01 168 -175.02 168 -174 168 C-174 167.01 -174 166.02 -174 165 C-173.01 165 -172.02 165 -171 165 C-171 163.02 -171 161.04 -171 159 C-170.01 159 -169.02 159 -168 159 C-168 158.01 -168 157.02 -168 156 C-167.01 156 -166.02 156 -165 156 C-165 154.02 -165 152.04 -165 150 C-164.01 150 -163.02 150 -162 150 C-162 149.01 -162 148.02 -162 147 C-161.01 147 -160.02 147 -159 147 C-159 146.01 -159 145.02 -159 144 C-158.01 144 -157.02 144 -156 144 C-156 143.01 -156 142.02 -156 141 C-155.01 141 -154.02 141 -153 141 C-153 140.01 -153 139.02 -153 138 C-152.01 138 -151.02 138 -150 138 C-150 136.02 -150 134.04 -150 132 C-149.01 132 -148.02 132 -147 132 C-147 131.01 -147 130.02 -147 129 C-146.01 129 -145.02 129 -144 129 C-144 128.01 -144 127.02 -144 126 C-142.02 126 -140.04 126 -138 126 C-138 125.01 -138 124.02 -138 123 C-137.01 123 -136.02 123 -135 123 C-135 122.01 -135 121.02 -135 120 C-134.01 120 -133.02 120 -132 120 C-132 119.01 -132 118.02 -132 117 C-131.01 117 -130.02 117 -129 117 C-129 116.01 -129 115.02 -129 114 C-127.02 114 -125.04 114 -123 114 C-123 113.01 -123 112.02 -123 111 C-122.01 111 -121.02 111 -120 111 C-120 110.01 -120 109.02 -120 108 C-118.02 108 -116.04 108 -114 108 C-114 107.01 -114 106.02 -114 105 C-113.01 105 -112.02 105 -111 105 C-111 104.01 -111 103.02 -111 102 C-109.02 102 -107.04 102 -105 102 C-105 101.01 -105 100.02 -105 99 C-100.05 99 -95.1 99 -90 99 C-90 98.01 -90 97.02 -90 96 C-87.03 96 -84.06 96 -81 96 C-81 95.01 -81 94.02 -81 93 C-78.03 93 -75.06 93 -72 93 C-72 92.01 -72 91.02 -72 90 C-70.02 90 -68.04 90 -66 90 C-66 89.01 -66 88.02 -66 87 C-65.01 87 -64.02 87 -63 87 C-63 86.01 -63 85.02 -63 84 C-61.02 84 -59.04 84 -57 84 C-57 83.01 -57 82.02 -57 81 C-56.01 81 -55.02 81 -54 81 C-54 80.01 -54 79.02 -54 78 C-53.01 78 -52.02 78 -51 78 C-51 77.01 -51 76.02 -51 75 C-50.01 75 -49.02 75 -48 75 C-48 74.01 -48 73.02 -48 72 C-47.01 72 -46.02 72 -45 72 C-45 71.01 -45 70.02 -45 69 C-44.01 69 -43.02 69 -42 69 C-42 68.01 -42 67.02 -42 66 C-41.01 66 -40.02 66 -39 66 C-39 65.01 -39 64.02 -39 63 C-38.01 63 -37.02 63 -36 63 C-36 62.01 -36 61.02 -36 60 C-35.01 60 -34.02 60 -33 60 C-33 58.02 -33 56.04 -33 54 C-32.01 54 -31.02 54 -30 54 C-30 53.01 -30 52.02 -30 51 C-29.01 51 -28.02 51 -27 51 C-27 49.02 -27 47.04 -27 45 C-26.01 45 -25.02 45 -24 45 C-24 44.01 -24 43.02 -24 42 C-23.01 42 -22.02 42 -21 42 C-21 40.02 -21 38.04 -21 36 C-20.01 36 -19.02 36 -18 36 C-18 34.02 -18 32.04 -18 30 C-17.01 30 -16.02 30 -15 30 C-15 28.02 -15 26.04 -15 24 C-14.01 24 -13.02 24 -12 24 C-12 22.02 -12 20.04 -12 18 C-11.01 18 -10.02 18 -9 18 C-9 17.01 -9 16.02 -9 15 C-8.01 15 -7.02 15 -6 15 C-6 13.02 -6 11.04 -6 9 C-5.01 9 -4.02 9 -3 9 C-3 7.02 -3 5.04 -3 3 C-2.01 3 -1.02 3 0 3 C0 2.01 0 1.02 0 0 Z M-75 672 C-75 672.99 -75 673.98 -75 675 C-73.02 675 -71.04 675 -69 675 C-69 674.01 -69 673.02 -69 672 C-70.98 672 -72.96 672 -75 672 Z M-66 675 C-66 675.99 -66 676.98 -66 678 C-65.01 678 -64.02 678 -63 678 C-63 677.01 -63 676.02 -63 675 C-63.99 675 -64.98 675 -66 675 Z " fill="#EAEAEA" transform="translate(441,0)"/>
<path d="M0 0 C9.9 0 19.8 0 30 0 C30 0.99 30 1.98 30 3 C39.9 3 49.8 3 60 3 C60 3.99 60 4.98 60 6 C64.95 6 69.9 6 75 6 C75 6.99 75 7.98 75 9 C77.97 9 80.94 9 84 9 C84 9.99 84 10.98 84 12 C86.97 12 89.94 12 93 12 C93 12.99 93 13.98 93 15 C94.98 15 96.96 15 99 15 C99 15.99 99 16.98 99 18 C100.98 18 102.96 18 105 18 C105 18.99 105 19.98 105 21 C106.98 21 108.96 21 111 21 C111 21.99 111 22.98 111 24 C112.98 24 114.96 24 117 24 C117 24.99 117 25.98 117 27 C117.99 27 118.98 27 120 27 C120 27.99 120 28.98 120 30 C121.98 30 123.96 30 126 30 C126 30.99 126 31.98 126 33 C126.99 33 127.98 33 129 33 C129 33.99 129 34.98 129 36 C129.99 36 130.98 36 132 36 C132 36.99 132 37.98 132 39 C132.99 39 133.98 39 135 39 C135 39.99 135 40.98 135 42 C135.99 42 136.98 42 138 42 C138 42.99 138 43.98 138 45 C138.99 45 139.98 45 141 45 C141 45.99 141 46.98 141 48 C141.99 48 142.98 48 144 48 C144 48.99 144 49.98 144 51 C144.99 51 145.98 51 147 51 C147 52.98 147 54.96 147 57 C147.99 57 148.98 57 150 57 C150 57.99 150 58.98 150 60 C150.99 60 151.98 60 153 60 C153 60.99 153 61.98 153 63 C153.99 63 154.98 63 156 63 C156 64.98 156 66.96 156 69 C156.99 69 157.98 69 159 69 C159 70.98 159 72.96 159 75 C159.99 75 160.98 75 162 75 C162 76.98 162 78.96 162 81 C162.99 81 163.98 81 165 81 C165 82.98 165 84.96 165 87 C165.99 87 166.98 87 168 87 C168 89.97 168 92.94 168 96 C168.99 96 169.98 96 171 96 C171 99.96 171 103.92 171 108 C171.99 108 172.98 108 174 108 C174 111.96 174 115.92 174 120 C174.99 120 175.98 120 177 120 C177 127.92 177 135.84 177 144 C177.99 144 178.98 144 180 144 C180 149.94 180 155.88 180 162 C179.01 162 178.02 162 177 162 C177 175.86 177 189.72 177 204 C176.01 204 175.02 204 174 204 C174 204.99 174 205.98 174 207 C173.01 207 172.02 207 171 207 C171 207.99 171 208.98 171 210 C161.1 210 151.2 210 141 210 C141 210.99 141 211.98 141 213 C79.62 213 18.24 213 -45 213 C-45 213.99 -45 214.98 -45 216 C-51.93 216 -58.86 216 -66 216 C-66 216.99 -66 217.98 -66 219 C-65.01 219 -64.02 219 -63 219 C-63 223.95 -63 228.9 -63 234 C-62.01 234 -61.02 234 -60 234 C-60 236.97 -60 239.94 -60 243 C-59.01 243 -58.02 243 -57 243 C-57 244.98 -57 246.96 -57 249 C-56.01 249 -55.02 249 -54 249 C-54 250.98 -54 252.96 -54 255 C-53.01 255 -52.02 255 -51 255 C-51 255.99 -51 256.98 -51 258 C-50.01 258 -49.02 258 -48 258 C-48 259.98 -48 261.96 -48 264 C-47.01 264 -46.02 264 -45 264 C-45 264.99 -45 265.98 -45 267 C-44.01 267 -43.02 267 -42 267 C-42 267.99 -42 268.98 -42 270 C-41.01 270 -40.02 270 -39 270 C-39 271.98 -39 273.96 -39 276 C-38.01 276 -37.02 276 -36 276 C-36 276.99 -36 277.98 -36 279 C-34.02 279 -32.04 279 -30 279 C-30 279.99 -30 280.98 -30 282 C-29.01 282 -28.02 282 -27 282 C-27 282.99 -27 283.98 -27 285 C-26.01 285 -25.02 285 -24 285 C-24 285.99 -24 286.98 -24 288 C-23.01 288 -22.02 288 -21 288 C-21 288.99 -21 289.98 -21 291 C-19.02 291 -17.04 291 -15 291 C-15 291.99 -15 292.98 -15 294 C-14.01 294 -13.02 294 -12 294 C-12 294.99 -12 295.98 -12 297 C-10.02 297 -8.04 297 -6 297 C-6 297.99 -6 298.98 -6 300 C-3.03 300 -0.06 300 3 300 C3 300.99 3 301.98 3 303 C5.97 303 8.94 303 12 303 C12 303.99 12 304.98 12 306 C16.95 306 21.9 306 27 306 C27 306.99 27 307.98 27 309 C46.8 309 66.6 309 87 309 C87 308.01 87 307.02 87 306 C94.92 306 102.84 306 111 306 C111 305.01 111 304.02 111 303 C117.93 303 124.86 303 132 303 C132 302.01 132 301.02 132 300 C136.95 300 141.9 300 147 300 C147 299.01 147 298.02 147 297 C151.95 297 156.9 297 162 297 C162 296.01 162 295.02 162 294 C164.97 294 167.94 294 171 294 C171 305.88 171 317.76 171 330 C170.01 330 169.02 330 168 330 C168 339.9 168 349.8 168 360 C167.01 360 166.02 360 165 360 C165 362.97 165 365.94 165 369 C164.01 369 163.02 369 162 369 C162 369.99 162 370.98 162 372 C159.03 372 156.06 372 153 372 C153 372.99 153 373.98 153 375 C149.04 375 145.08 375 141 375 C141 375.99 141 376.98 141 378 C136.05 378 131.1 378 126 378 C126 378.99 126 379.98 126 381 C121.05 381 116.1 381 111 381 C111 381.99 111 382.98 111 384 C105.06 384 99.12 384 93 384 C93 384.99 93 385.98 93 387 C85.08 387 77.16 387 69 387 C69 387.99 69 388.98 69 390 C48.21 390 27.42 390 6 390 C6 389.01 6 388.02 6 387 C-0.93 387 -7.86 387 -15 387 C-15 386.01 -15 385.02 -15 384 C-18.96 384 -22.92 384 -27 384 C-27 383.01 -27 382.02 -27 381 C-30.96 381 -34.92 381 -39 381 C-39 380.01 -39 379.02 -39 378 C-41.97 378 -44.94 378 -48 378 C-48 377.01 -48 376.02 -48 375 C-49.98 375 -51.96 375 -54 375 C-54 374.01 -54 373.02 -54 372 C-56.97 372 -59.94 372 -63 372 C-63 371.01 -63 370.02 -63 369 C-64.98 369 -66.96 369 -69 369 C-69 368.01 -69 367.02 -69 366 C-70.98 366 -72.96 366 -75 366 C-75 365.01 -75 364.02 -75 363 C-76.98 363 -78.96 363 -81 363 C-81 362.01 -81 361.02 -81 360 C-82.98 360 -84.96 360 -87 360 C-87 359.01 -87 358.02 -87 357 C-87.99 357 -88.98 357 -90 357 C-90 356.01 -90 355.02 -90 354 C-91.98 354 -93.96 354 -96 354 C-96 353.01 -96 352.02 -96 351 C-96.99 351 -97.98 351 -99 351 C-99 350.01 -99 349.02 -99 348 C-100.98 348 -102.96 348 -105 348 C-105 347.01 -105 346.02 -105 345 C-105.99 345 -106.98 345 -108 345 C-108 344.01 -108 343.02 -108 342 C-108.99 342 -109.98 342 -111 342 C-111 341.01 -111 340.02 -111 339 C-111.99 339 -112.98 339 -114 339 C-114 338.01 -114 337.02 -114 336 C-114.99 336 -115.98 336 -117 336 C-117 335.01 -117 334.02 -117 333 C-117.99 333 -118.98 333 -120 333 C-120 332.01 -120 331.02 -120 330 C-120.99 330 -121.98 330 -123 330 C-123 329.01 -123 328.02 -123 327 C-123.99 327 -124.98 327 -126 327 C-126 326.01 -126 325.02 -126 324 C-126.99 324 -127.98 324 -129 324 C-129 323.01 -129 322.02 -129 321 C-129.99 321 -130.98 321 -132 321 C-132 320.01 -132 319.02 -132 318 C-132.99 318 -133.98 318 -135 318 C-135 316.02 -135 314.04 -135 312 C-135.99 312 -136.98 312 -138 312 C-138 311.01 -138 310.02 -138 309 C-138.99 309 -139.98 309 -141 309 C-141 308.01 -141 307.02 -141 306 C-141.99 306 -142.98 306 -144 306 C-144 304.02 -144 302.04 -144 300 C-144.99 300 -145.98 300 -147 300 C-147 298.02 -147 296.04 -147 294 C-147.99 294 -148.98 294 -150 294 C-150 292.02 -150 290.04 -150 288 C-150.99 288 -151.98 288 -153 288 C-153 286.02 -153 284.04 -153 282 C-153.99 282 -154.98 282 -156 282 C-156 279.03 -156 276.06 -156 273 C-156.99 273 -157.98 273 -159 273 C-159 270.03 -159 267.06 -159 264 C-159.99 264 -160.98 264 -162 264 C-162 260.04 -162 256.08 -162 252 C-162.99 252 -163.98 252 -165 252 C-165 247.05 -165 242.1 -165 237 C-165.99 237 -166.98 237 -168 237 C-168 211.26 -168 185.52 -168 159 C-167.01 159 -166.02 159 -165 159 C-165 154.05 -165 149.1 -165 144 C-164.01 144 -163.02 144 -162 144 C-162 140.04 -162 136.08 -162 132 C-161.01 132 -160.02 132 -159 132 C-159 129.03 -159 126.06 -159 123 C-158.01 123 -157.02 123 -156 123 C-156 121.02 -156 119.04 -156 117 C-155.01 117 -154.02 117 -153 117 C-153 114.03 -153 111.06 -153 108 C-152.01 108 -151.02 108 -150 108 C-150 106.02 -150 104.04 -150 102 C-149.01 102 -148.02 102 -147 102 C-147 100.02 -147 98.04 -147 96 C-146.01 96 -145.02 96 -144 96 C-144 95.01 -144 94.02 -144 93 C-143.01 93 -142.02 93 -141 93 C-141 91.02 -141 89.04 -141 87 C-140.01 87 -139.02 87 -138 87 C-138 85.02 -138 83.04 -138 81 C-137.01 81 -136.02 81 -135 81 C-135 80.01 -135 79.02 -135 78 C-134.01 78 -133.02 78 -132 78 C-132 77.01 -132 76.02 -132 75 C-131.01 75 -130.02 75 -129 75 C-129 73.02 -129 71.04 -129 69 C-128.01 69 -127.02 69 -126 69 C-126 68.01 -126 67.02 -126 66 C-125.01 66 -124.02 66 -123 66 C-123 65.01 -123 64.02 -123 63 C-122.01 63 -121.02 63 -120 63 C-120 62.01 -120 61.02 -120 60 C-119.01 60 -118.02 60 -117 60 C-117 59.01 -117 58.02 -117 57 C-116.01 57 -115.02 57 -114 57 C-114 56.01 -114 55.02 -114 54 C-113.01 54 -112.02 54 -111 54 C-111 53.01 -111 52.02 -111 51 C-110.01 51 -109.02 51 -108 51 C-108 50.01 -108 49.02 -108 48 C-107.01 48 -106.02 48 -105 48 C-105 47.01 -105 46.02 -105 45 C-104.01 45 -103.02 45 -102 45 C-102 44.01 -102 43.02 -102 42 C-101.01 42 -100.02 42 -99 42 C-99 41.01 -99 40.02 -99 39 C-98.01 39 -97.02 39 -96 39 C-96 38.01 -96 37.02 -96 36 C-94.02 36 -92.04 36 -90 36 C-90 35.01 -90 34.02 -90 33 C-89.01 33 -88.02 33 -87 33 C-87 32.01 -87 31.02 -87 30 C-86.01 30 -85.02 30 -84 30 C-84 29.01 -84 28.02 -84 27 C-82.02 27 -80.04 27 -78 27 C-78 26.01 -78 25.02 -78 24 C-77.01 24 -76.02 24 -75 24 C-75 23.01 -75 22.02 -75 21 C-73.02 21 -71.04 21 -69 21 C-69 20.01 -69 19.02 -69 18 C-67.02 18 -65.04 18 -63 18 C-63 17.01 -63 16.02 -63 15 C-61.02 15 -59.04 15 -57 15 C-57 14.01 -57 13.02 -57 12 C-54.03 12 -51.06 12 -48 12 C-48 11.01 -48 10.02 -48 9 C-45.03 9 -42.06 9 -39 9 C-39 8.01 -39 7.02 -39 6 C-34.05 6 -29.1 6 -24 6 C-24 5.01 -24 4.02 -24 3 C-16.08 3 -8.16 3 0 3 C0 2.01 0 1.02 0 0 Z M0 69 C0 69.99 0 70.98 0 72 C-3.96 72 -7.92 72 -12 72 C-12 72.99 -12 73.98 -12 75 C-13.98 75 -15.96 75 -18 75 C-18 75.99 -18 76.98 -18 78 C-19.98 78 -21.96 78 -24 78 C-24 78.99 -24 79.98 -24 81 C-25.98 81 -27.96 81 -30 81 C-30 81.99 -30 82.98 -30 84 C-30.99 84 -31.98 84 -33 84 C-33 84.99 -33 85.98 -33 87 C-33.99 87 -34.98 87 -36 87 C-36 87.99 -36 88.98 -36 90 C-36.99 90 -37.98 90 -39 90 C-39 90.99 -39 91.98 -39 93 C-39.99 93 -40.98 93 -42 93 C-42 93.99 -42 94.98 -42 96 C-42.99 96 -43.98 96 -45 96 C-45 96.99 -45 97.98 -45 99 C-45.99 99 -46.98 99 -48 99 C-48 99.99 -48 100.98 -48 102 C-48.99 102 -49.98 102 -51 102 C-51 103.98 -51 105.96 -51 108 C-51.99 108 -52.98 108 -54 108 C-54 109.98 -54 111.96 -54 114 C-54.99 114 -55.98 114 -57 114 C-57 115.98 -57 117.96 -57 120 C-57.99 120 -58.98 120 -60 120 C-60 122.97 -60 125.94 -60 129 C-60.99 129 -61.98 129 -63 129 C-63 132.96 -63 136.92 -63 141 C-63.99 141 -64.98 141 -66 141 C-66 144.96 -66 148.92 -66 153 C-17.49 153 31.02 153 81 153 C81 152.01 81 151.02 81 150 C81.99 150 82.98 150 84 150 C84 149.01 84 148.02 84 147 C84.99 147 85.98 147 87 147 C87 140.07 87 133.14 87 126 C86.01 126 85.02 126 84 126 C84 123.03 84 120.06 84 117 C83.01 117 82.02 117 81 117 C81 114.03 81 111.06 81 108 C80.01 108 79.02 108 78 108 C78 106.02 78 104.04 78 102 C77.01 102 76.02 102 75 102 C75 101.01 75 100.02 75 99 C74.01 99 73.02 99 72 99 C72 97.02 72 95.04 72 93 C71.01 93 70.02 93 69 93 C69 92.01 69 91.02 69 90 C68.01 90 67.02 90 66 90 C66 89.01 66 88.02 66 87 C65.01 87 64.02 87 63 87 C63 86.01 63 85.02 63 84 C62.01 84 61.02 84 60 84 C60 83.01 60 82.02 60 81 C58.02 81 56.04 81 54 81 C54 80.01 54 79.02 54 78 C52.02 78 50.04 78 48 78 C48 77.01 48 76.02 48 75 C46.02 75 44.04 75 42 75 C42 74.01 42 73.02 42 72 C38.04 72 34.08 72 30 72 C30 71.01 30 70.02 30 69 C20.1 69 10.2 69 0 69 Z " fill="#EAEAEA" transform="translate(729,378)"/>
<path d="M0 0 C36.63 0 73.26 0 111 0 C111 0.99 111 1.98 111 3 C111.99 3 112.98 3 114 3 C114 3.99 114 4.98 114 6 C114.99 6 115.98 6 117 6 C117 8.97 117 11.94 117 15 C117.99 15 118.98 15 120 15 C120 18.96 120 22.92 120 27 C120.99 27 121.98 27 123 27 C123 29.97 123 32.94 123 36 C123.99 36 124.98 36 126 36 C126 39.96 126 43.92 126 48 C126.99 48 127.98 48 129 48 C129 50.97 129 53.94 129 57 C129.99 57 130.98 57 132 57 C132 60.96 132 64.92 132 69 C132.99 69 133.98 69 135 69 C135 71.97 135 74.94 135 78 C135.99 78 136.98 78 138 78 C138 81.96 138 85.92 138 90 C138.99 90 139.98 90 141 90 C141 92.97 141 95.94 141 99 C141.99 99 142.98 99 144 99 C144 102.96 144 106.92 144 111 C144.99 111 145.98 111 147 111 C147 113.97 147 116.94 147 120 C147.99 120 148.98 120 150 120 C150 123.96 150 127.92 150 132 C150.99 132 151.98 132 153 132 C153 135.96 153 139.92 153 144 C153.99 144 154.98 144 156 144 C156 146.97 156 149.94 156 153 C156.99 153 157.98 153 159 153 C159 156.96 159 160.92 159 165 C159.99 165 160.98 165 162 165 C162 167.97 162 170.94 162 174 C162.99 174 163.98 174 165 174 C165 177.96 165 181.92 165 186 C165.99 186 166.98 186 168 186 C168 188.97 168 191.94 168 195 C168.99 195 169.98 195 171 195 C171 198.96 171 202.92 171 207 C171.99 207 172.98 207 174 207 C174 209.97 174 212.94 174 216 C174.99 216 175.98 216 177 216 C177 219.96 177 223.92 177 228 C177.99 228 178.98 228 180 228 C180 231.96 180 235.92 180 240 C180.99 240 181.98 240 183 240 C183 244.95 183 249.9 183 255 C184.98 255 186.96 255 189 255 C189 252.03 189 249.06 189 246 C189.99 246 190.98 246 192 246 C192 242.04 192 238.08 192 234 C192.99 234 193.98 234 195 234 C195 230.04 195 226.08 195 222 C195.99 222 196.98 222 198 222 C198 219.03 198 216.06 198 213 C198.99 213 199.98 213 201 213 C201 209.04 201 205.08 201 201 C201.99 201 202.98 201 204 201 C204 197.04 204 193.08 204 189 C204.99 189 205.98 189 207 189 C207 185.04 207 181.08 207 177 C207.99 177 208.98 177 210 177 C210 174.03 210 171.06 210 168 C210.99 168 211.98 168 213 168 C213 164.04 213 160.08 213 156 C213.99 156 214.98 156 216 156 C216 152.04 216 148.08 216 144 C216.99 144 217.98 144 219 144 C219 140.04 219 136.08 219 132 C219.99 132 220.98 132 222 132 C222 129.03 222 126.06 222 123 C222.99 123 223.98 123 225 123 C225 119.04 225 115.08 225 111 C225.99 111 226.98 111 228 111 C228 107.04 228 103.08 228 99 C228.99 99 229.98 99 231 99 C231 95.04 231 91.08 231 87 C231.99 87 232.98 87 234 87 C234 83.04 234 79.08 234 75 C234.99 75 235.98 75 237 75 C237 72.03 237 69.06 237 66 C237.99 66 238.98 66 240 66 C240 62.04 240 58.08 240 54 C240.99 54 241.98 54 243 54 C243 49.05 243 44.1 243 39 C243.99 39 244.98 39 246 39 C246 33.06 246 27.12 246 21 C246.99 21 247.98 21 249 21 C249 17.04 249 13.08 249 9 C249.99 9 250.98 9 252 9 C252 7.02 252 5.04 252 3 C252.99 3 253.98 3 255 3 C255 2.01 255 1.02 255 0 C285.69 0 316.38 0 348 0 C348 0.99 348 1.98 348 3 C348.99 3 349.98 3 351 3 C351 6.96 351 10.92 351 15 C350.01 15 349.02 15 348 15 C348 17.97 348 20.94 348 24 C347.01 24 346.02 24 345 24 C345 26.97 345 29.94 345 33 C344.01 33 343.02 33 342 33 C342 35.97 342 38.94 342 42 C341.01 42 340.02 42 339 42 C339 43.98 339 45.96 339 48 C338.01 48 337.02 48 336 48 C336 50.97 336 53.94 336 57 C335.01 57 334.02 57 333 57 C333 59.97 333 62.94 333 66 C332.01 66 331.02 66 330 66 C330 67.98 330 69.96 330 72 C329.01 72 328.02 72 327 72 C327 74.97 327 77.94 327 81 C326.01 81 325.02 81 324 81 C324 83.97 324 86.94 324 90 C323.01 90 322.02 90 321 90 C321 91.98 321 93.96 321 96 C320.01 96 319.02 96 318 96 C318 98.97 318 101.94 318 105 C317.01 105 316.02 105 315 105 C315 107.97 315 110.94 315 114 C314.01 114 313.02 114 312 114 C312 115.98 312 117.96 312 120 C311.01 120 310.02 120 309 120 C309 122.97 309 125.94 309 129 C308.01 129 307.02 129 306 129 C306 131.97 306 134.94 306 138 C305.01 138 304.02 138 303 138 C303 139.98 303 141.96 303 144 C302.01 144 301.02 144 300 144 C300 146.97 300 149.94 300 153 C299.01 153 298.02 153 297 153 C297 155.97 297 158.94 297 162 C296.01 162 295.02 162 294 162 C294 164.97 294 167.94 294 171 C293.01 171 292.02 171 291 171 C291 172.98 291 174.96 291 177 C290.01 177 289.02 177 288 177 C288 179.97 288 182.94 288 186 C287.01 186 286.02 186 285 186 C285 188.97 285 191.94 285 195 C284.01 195 283.02 195 282 195 C282 197.97 282 200.94 282 204 C281.01 204 280.02 204 279 204 C279 206.97 279 209.94 279 213 C278.01 213 277.02 213 276 213 C276 214.98 276 216.96 276 219 C275.01 219 274.02 219 273 219 C273 221.97 273 224.94 273 228 C272.01 228 271.02 228 270 228 C270 230.97 270 233.94 270 237 C269.01 237 268.02 237 267 237 C267 239.97 267 242.94 267 246 C266.01 246 265.02 246 264 246 C264 247.98 264 249.96 264 252 C263.01 252 262.02 252 261 252 C261 254.97 261 257.94 261 261 C260.01 261 259.02 261 258 261 C258 263.97 258 266.94 258 270 C257.01 270 256.02 270 255 270 C255 272.97 255 275.94 255 279 C254.01 279 253.02 279 252 279 C252 281.97 252 284.94 252 288 C251.01 288 250.02 288 249 288 C249 289.98 249 291.96 249 294 C248.01 294 247.02 294 246 294 C246 296.97 246 299.94 246 303 C245.01 303 244.02 303 243 303 C243 305.97 243 308.94 243 312 C242.01 312 241.02 312 240 312 C240 314.97 240 317.94 240 321 C239.01 321 238.02 321 237 321 C237 323.97 237 326.94 237 330 C236.01 330 235.02 330 234 330 C234 331.98 234 333.96 234 336 C233.01 336 232.02 336 231 336 C231 338.97 231 341.94 231 345 C230.01 345 229.02 345 228 345 C228 347.97 228 350.94 228 354 C227.01 354 226.02 354 225 354 C225 356.97 225 359.94 225 363 C224.01 363 223.02 363 222 363 C222 365.97 222 368.94 222 372 C221.01 372 220.02 372 219 372 C219 373.98 219 375.96 219 378 C218.01 378 217.02 378 216 378 C216 380.97 216 383.94 216 387 C215.01 387 214.02 387 213 387 C213 389.97 213 392.94 213 396 C212.01 396 211.02 396 210 396 C210 398.97 210 401.94 210 405 C209.01 405 208.02 405 207 405 C207 407.97 207 410.94 207 414 C206.01 414 205.02 414 204 414 C204 415.98 204 417.96 204 420 C203.01 420 202.02 420 201 420 C201 421.98 201 423.96 201 426 C200.01 426 199.02 426 198 426 C198 428.97 198 431.94 198 435 C197.01 435 196.02 435 195 435 C195 436.98 195 438.96 195 441 C194.01 441 193.02 441 192 441 C192 442.98 192 444.96 192 447 C191.01 447 190.02 447 189 447 C189 448.98 189 450.96 189 453 C188.01 453 187.02 453 186 453 C186 453.99 186 454.98 186 456 C185.01 456 184.02 456 183 456 C183 457.98 183 459.96 183 462 C182.01 462 181.02 462 180 462 C180 462.99 180 463.98 180 465 C179.01 465 178.02 465 177 465 C177 466.98 177 468.96 177 471 C176.01 471 175.02 471 174 471 C174 471.99 174 472.98 174 474 C173.01 474 172.02 474 171 474 C171 474.99 171 475.98 171 477 C170.01 477 169.02 477 168 477 C168 477.99 168 478.98 168 480 C167.01 480 166.02 480 165 480 C165 480.99 165 481.98 165 483 C164.01 483 163.02 483 162 483 C162 483.99 162 484.98 162 486 C161.01 486 160.02 486 159 486 C159 486.99 159 487.98 159 489 C158.01 489 157.02 489 156 489 C156 489.99 156 490.98 156 492 C155.01 492 154.02 492 153 492 C153 492.99 153 493.98 153 495 C152.01 495 151.02 495 150 495 C150 495.99 150 496.98 150 498 C149.01 498 148.02 498 147 498 C147 498.99 147 499.98 147 501 C145.02 501 143.04 501 141 501 C141 501.99 141 502.98 141 504 C140.01 504 139.02 504 138 504 C138 504.99 138 505.98 138 507 C136.02 507 134.04 507 132 507 C132 507.99 132 508.98 132 510 C130.02 510 128.04 510 126 510 C126 510.99 126 511.98 126 513 C123.03 513 120.06 513 117 513 C117 513.99 117 514.98 117 516 C114.03 516 111.06 516 108 516 C108 516.99 108 517.98 108 519 C104.04 519 100.08 519 96 519 C96 519.99 96 520.98 96 522 C91.05 522 86.1 522 81 522 C81 522.99 81 523.98 81 525 C71.1 525 61.2 525 51 525 C51 525.99 51 526.98 51 528 C47.04 528 43.08 528 39 528 C39 527.01 39 526.02 39 525 C38.01 525 37.02 525 36 525 C36 524.01 36 523.02 36 522 C35.01 522 34.02 522 33 522 C33 521.01 33 520.02 33 519 C32.01 519 31.02 519 30 519 C30 512.07 30 505.14 30 498 C29.01 498 28.02 498 27 498 C27 493.05 27 488.1 27 483 C26.01 483 25.02 483 24 483 C24 476.07 24 469.14 24 462 C24.99 462 25.98 462 27 462 C27 460.02 27 458.04 27 456 C27.99 456 28.98 456 30 456 C30 455.01 30 454.02 30 453 C30.99 453 31.98 453 33 453 C33 452.01 33 451.02 33 450 C36.96 450 40.92 450 45 450 C45 449.01 45 448.02 45 447 C48.96 447 52.92 447 57 447 C57 446.01 57 445.02 57 444 C60.96 444 64.92 444 69 444 C69 443.01 69 442.02 69 441 C70.98 441 72.96 441 75 441 C75 440.01 75 439.02 75 438 C77.97 438 80.94 438 84 438 C84 437.01 84 436.02 84 435 C84.99 435 85.98 435 87 435 C87 434.01 87 433.02 87 432 C88.98 432 90.96 432 93 432 C93 431.01 93 430.02 93 429 C93.99 429 94.98 429 96 429 C96 428.01 96 427.02 96 426 C97.98 426 99.96 426 102 426 C102 425.01 102 424.02 102 423 C102.99 423 103.98 423 105 423 C105 422.01 105 421.02 105 420 C105.99 420 106.98 420 108 420 C108 419.01 108 418.02 108 417 C108.99 417 109.98 417 111 417 C111 416.01 111 415.02 111 414 C111.99 414 112.98 414 114 414 C114 412.02 114 410.04 114 408 C114.99 408 115.98 408 117 408 C117 407.01 117 406.02 117 405 C117.99 405 118.98 405 120 405 C120 403.02 120 401.04 120 399 C120.99 399 121.98 399 123 399 C123 397.02 123 395.04 123 393 C123.99 393 124.98 393 126 393 C126 390.03 126 387.06 126 384 C126.99 384 127.98 384 129 384 C129 380.04 129 376.08 129 372 C129.99 372 130.98 372 132 372 C132 361.11 132 350.22 132 339 C131.01 339 130.02 339 129 339 C129 334.05 129 329.1 129 324 C128.01 324 127.02 324 126 324 C126 321.03 126 318.06 126 315 C125.01 315 124.02 315 123 315 C123 312.03 123 309.06 123 306 C122.01 306 121.02 306 120 306 C120 304.02 120 302.04 120 300 C119.01 300 118.02 300 117 300 C117 297.03 117 294.06 117 291 C116.01 291 115.02 291 114 291 C114 288.03 114 285.06 114 282 C113.01 282 112.02 282 111 282 C111 280.02 111 278.04 111 276 C110.01 276 109.02 276 108 276 C108 273.03 108 270.06 108 267 C107.01 267 106.02 267 105 267 C105 265.02 105 263.04 105 261 C104.01 261 103.02 261 102 261 C102 258.03 102 255.06 102 252 C101.01 252 100.02 252 99 252 C99 250.02 99 248.04 99 246 C98.01 246 97.02 246 96 246 C96 243.03 96 240.06 96 237 C95.01 237 94.02 237 93 237 C93 235.02 93 233.04 93 231 C92.01 231 91.02 231 90 231 C90 228.03 90 225.06 90 222 C89.01 222 88.02 222 87 222 C87 220.02 87 218.04 87 216 C86.01 216 85.02 216 84 216 C84 214.02 84 212.04 84 210 C83.01 210 82.02 210 81 210 C81 207.03 81 204.06 81 201 C80.01 201 79.02 201 78 201 C78 199.02 78 197.04 78 195 C77.01 195 76.02 195 75 195 C75 192.03 75 189.06 75 186 C74.01 186 73.02 186 72 186 C72 184.02 72 182.04 72 180 C71.01 180 70.02 180 69 180 C69 177.03 69 174.06 69 171 C68.01 171 67.02 171 66 171 C66 169.02 66 167.04 66 165 C65.01 165 64.02 165 63 165 C63 163.02 63 161.04 63 159 C62.01 159 61.02 159 60 159 C60 156.03 60 153.06 60 150 C59.01 150 58.02 150 57 150 C57 148.02 57 146.04 57 144 C56.01 144 55.02 144 54 144 C54 141.03 54 138.06 54 135 C53.01 135 52.02 135 51 135 C51 133.02 51 131.04 51 129 C50.01 129 49.02 129 48 129 C48 127.02 48 125.04 48 123 C47.01 123 46.02 123 45 123 C45 120.03 45 117.06 45 114 C44.01 114 43.02 114 42 114 C42 112.02 42 110.04 42 108 C41.01 108 40.02 108 39 108 C39 105.03 39 102.06 39 99 C38.01 99 37.02 99 36 99 C36 97.02 36 95.04 36 93 C35.01 93 34.02 93 33 93 C33 91.02 33 89.04 33 87 C32.01 87 31.02 87 30 87 C30 84.03 30 81.06 30 78 C29.01 78 28.02 78 27 78 C27 76.02 27 74.04 27 72 C26.01 72 25.02 72 24 72 C24 69.03 24 66.06 24 63 C23.01 63 22.02 63 21 63 C21 61.02 21 59.04 21 57 C20.01 57 19.02 57 18 57 C18 55.02 18 53.04 18 51 C17.01 51 16.02 51 15 51 C15 49.02 15 47.04 15 45 C14.01 45 13.02 45 12 45 C12 42.03 12 39.06 12 36 C11.01 36 10.02 36 9 36 C9 34.02 9 32.04 9 30 C8.01 30 7.02 30 6 30 C6 27.03 6 24.06 6 21 C5.01 21 4.02 21 3 21 C3 19.02 3 17.04 3 15 C2.01 15 1.02 15 0 15 C0 10.05 0 5.1 0 0 Z " fill="#EAEAEA" transform="translate(909,396)"/>
<path d="M0 0 C24.75 0 49.5 0 75 0 C75 0.99 75 1.98 75 3 C82.92 3 90.84 3 99 3 C99 3.99 99 4.98 99 6 C105.93 6 112.86 6 120 6 C120 6.99 120 7.98 120 9 C123.96 9 127.92 9 132 9 C132 9.99 132 10.98 132 12 C132.99 12 133.98 12 135 12 C135 12.99 135 13.98 135 15 C135.99 15 136.98 15 138 15 C138 19.95 138 24.9 138 30 C137.01 30 136.02 30 135 30 C135 33.96 135 37.92 135 42 C134.01 42 133.02 42 132 42 C132 46.95 132 51.9 132 57 C131.01 57 130.02 57 129 57 C129 61.95 129 66.9 129 72 C128.01 72 127.02 72 126 72 C126 75.96 126 79.92 126 84 C123.03 84 120.06 84 117 84 C117 83.01 117 82.02 117 81 C108.09 81 99.18 81 90 81 C90 80.01 90 79.02 90 78 C82.08 78 74.16 78 66 78 C66 77.01 66 76.02 66 75 C56.1 75 46.2 75 36 75 C36 74.01 36 73.02 36 72 C29.07 72 22.14 72 15 72 C15 72.99 15 73.98 15 75 C10.05 75 5.1 75 0 75 C0 75.99 0 76.98 0 78 C-3.96 78 -7.92 78 -12 78 C-12 78.99 -12 79.98 -12 81 C-13.98 81 -15.96 81 -18 81 C-18 81.99 -18 82.98 -18 84 C-18.99 84 -19.98 84 -21 84 C-21 84.99 -21 85.98 -21 87 C-21.99 87 -22.98 87 -24 87 C-24 88.98 -24 90.96 -24 93 C-24.99 93 -25.98 93 -27 93 C-27 99.93 -27 106.86 -27 114 C-26.01 114 -25.02 114 -24 114 C-24 115.98 -24 117.96 -24 120 C-23.01 120 -22.02 120 -21 120 C-21 120.99 -21 121.98 -21 123 C-20.01 123 -19.02 123 -18 123 C-18 123.99 -18 124.98 -18 126 C-16.02 126 -14.04 126 -12 126 C-12 126.99 -12 127.98 -12 129 C-11.01 129 -10.02 129 -9 129 C-9 129.99 -9 130.98 -9 132 C-7.02 132 -5.04 132 -3 132 C-3 132.99 -3 133.98 -3 135 C-0.03 135 2.94 135 6 135 C6 135.99 6 136.98 6 138 C7.98 138 9.96 138 12 138 C12 138.99 12 139.98 12 141 C13.98 141 15.96 141 18 141 C18 141.99 18 142.98 18 144 C20.97 144 23.94 144 27 144 C27 144.99 27 145.98 27 147 C28.98 147 30.96 147 33 147 C33 147.99 33 148.98 33 150 C34.98 150 36.96 150 39 150 C39 150.99 39 151.98 39 153 C40.98 153 42.96 153 45 153 C45 153.99 45 154.98 45 156 C46.98 156 48.96 156 51 156 C51 156.99 51 157.98 51 159 C52.98 159 54.96 159 57 159 C57 159.99 57 160.98 57 162 C58.98 162 60.96 162 63 162 C63 162.99 63 163.98 63 165 C64.98 165 66.96 165 69 165 C69 165.99 69 166.98 69 168 C70.98 168 72.96 168 75 168 C75 168.99 75 169.98 75 171 C76.98 171 78.96 171 81 171 C81 171.99 81 172.98 81 174 C82.98 174 84.96 174 87 174 C87 174.99 87 175.98 87 177 C88.98 177 90.96 177 93 177 C93 177.99 93 178.98 93 180 C94.98 180 96.96 180 99 180 C99 180.99 99 181.98 99 183 C100.98 183 102.96 183 105 183 C105 183.99 105 184.98 105 186 C105.99 186 106.98 186 108 186 C108 186.99 108 187.98 108 189 C109.98 189 111.96 189 114 189 C114 189.99 114 190.98 114 192 C115.98 192 117.96 192 120 192 C120 192.99 120 193.98 120 195 C120.99 195 121.98 195 123 195 C123 195.99 123 196.98 123 198 C123.99 198 124.98 198 126 198 C126 198.99 126 199.98 126 201 C126.99 201 127.98 201 129 201 C129 201.99 129 202.98 129 204 C129.99 204 130.98 204 132 204 C132 204.99 132 205.98 132 207 C132.99 207 133.98 207 135 207 C135 207.99 135 208.98 135 210 C135.99 210 136.98 210 138 210 C138 211.98 138 213.96 138 216 C138.99 216 139.98 216 141 216 C141 216.99 141 217.98 141 219 C141.99 219 142.98 219 144 219 C144 221.97 144 224.94 144 228 C144.99 228 145.98 228 147 228 C147 229.98 147 231.96 147 234 C147.99 234 148.98 234 150 234 C150 237.96 150 241.92 150 246 C150.99 246 151.98 246 153 246 C153 262.83 153 279.66 153 297 C152.01 297 151.02 297 150 297 C150 300.96 150 304.92 150 309 C149.01 309 148.02 309 147 309 C147 310.98 147 312.96 147 315 C146.01 315 145.02 315 144 315 C144 316.98 144 318.96 144 321 C143.01 321 142.02 321 141 321 C141 322.98 141 324.96 141 327 C140.01 327 139.02 327 138 327 C138 328.98 138 330.96 138 333 C137.01 333 136.02 333 135 333 C135 333.99 135 334.98 135 336 C134.01 336 133.02 336 132 336 C132 336.99 132 337.98 132 339 C131.01 339 130.02 339 129 339 C129 340.98 129 342.96 129 345 C128.01 345 127.02 345 126 345 C126 345.99 126 346.98 126 348 C125.01 348 124.02 348 123 348 C123 348.99 123 349.98 123 351 C121.02 351 119.04 351 117 351 C117 351.99 117 352.98 117 354 C116.01 354 115.02 354 114 354 C114 354.99 114 355.98 114 357 C113.01 357 112.02 357 111 357 C111 357.99 111 358.98 111 360 C109.02 360 107.04 360 105 360 C105 360.99 105 361.98 105 363 C103.02 363 101.04 363 99 363 C99 363.99 99 364.98 99 366 C96.03 366 93.06 366 90 366 C90 366.99 90 367.98 90 369 C88.02 369 86.04 369 84 369 C84 369.99 84 370.98 84 372 C81.03 372 78.06 372 75 372 C75 372.99 75 373.98 75 375 C71.04 375 67.08 375 63 375 C63 375.99 63 376.98 63 378 C59.04 378 55.08 378 51 378 C51 378.99 51 379.98 51 381 C45.06 381 39.12 381 33 381 C33 381.99 33 382.98 33 384 C6.27 384 -20.46 384 -48 384 C-48 383.01 -48 382.02 -48 381 C-57.9 381 -67.8 381 -78 381 C-78 380.01 -78 379.02 -78 378 C-87.9 378 -97.8 378 -108 378 C-108 377.01 -108 376.02 -108 375 C-110.97 375 -113.94 375 -117 375 C-117 374.01 -117 373.02 -117 372 C-117.99 372 -118.98 372 -120 372 C-120 371.01 -120 370.02 -120 369 C-120.99 369 -121.98 369 -123 369 C-123 362.07 -123 355.14 -123 348 C-122.01 348 -121.02 348 -120 348 C-120 343.05 -120 338.1 -120 333 C-119.01 333 -118.02 333 -117 333 C-117 327.06 -117 321.12 -117 315 C-116.01 315 -115.02 315 -114 315 C-114 309.06 -114 303.12 -114 297 C-113.01 297 -112.02 297 -111 297 C-111 296.01 -111 295.02 -111 294 C-110.01 294 -109.02 294 -108 294 C-108 294.99 -108 295.98 -108 297 C-105.03 297 -102.06 297 -99 297 C-99 297.99 -99 298.98 -99 300 C-95.04 300 -91.08 300 -87 300 C-87 300.99 -87 301.98 -87 303 C-82.05 303 -77.1 303 -72 303 C-72 303.99 -72 304.98 -72 306 C-38.34 306 -4.68 306 30 306 C30 305.01 30 304.02 30 303 C34.95 303 39.9 303 45 303 C45 302.01 45 301.02 45 300 C47.97 300 50.94 300 54 300 C54 299.01 54 298.02 54 297 C54.99 297 55.98 297 57 297 C57 296.01 57 295.02 57 294 C57.99 294 58.98 294 60 294 C60 292.02 60 290.04 60 288 C60.99 288 61.98 288 63 288 C63 283.05 63 278.1 63 273 C62.01 273 61.02 273 60 273 C60 271.02 60 269.04 60 267 C59.01 267 58.02 267 57 267 C57 266.01 57 265.02 57 264 C56.01 264 55.02 264 54 264 C54 263.01 54 262.02 54 261 C53.01 261 52.02 261 51 261 C51 260.01 51 259.02 51 258 C50.01 258 49.02 258 48 258 C48 257.01 48 256.02 48 255 C46.02 255 44.04 255 42 255 C42 254.01 42 253.02 42 252 C40.02 252 38.04 252 36 252 C36 251.01 36 250.02 36 249 C35.01 249 34.02 249 33 249 C33 248.01 33 247.02 33 246 C31.02 246 29.04 246 27 246 C27 245.01 27 244.02 27 243 C25.02 243 23.04 243 21 243 C21 242.01 21 241.02 21 240 C19.02 240 17.04 240 15 240 C15 239.01 15 238.02 15 237 C13.02 237 11.04 237 9 237 C9 236.01 9 235.02 9 234 C7.02 234 5.04 234 3 234 C3 233.01 3 232.02 3 231 C1.02 231 -0.96 231 -3 231 C-3 230.01 -3 229.02 -3 228 C-4.98 228 -6.96 228 -9 228 C-9 227.01 -9 226.02 -9 225 C-10.98 225 -12.96 225 -15 225 C-15 224.01 -15 223.02 -15 222 C-16.98 222 -18.96 222 -21 222 C-21 221.01 -21 220.02 -21 219 C-22.98 219 -24.96 219 -27 219 C-27 218.01 -27 217.02 -27 216 C-28.98 216 -30.96 216 -33 216 C-33 215.01 -33 214.02 -33 213 C-34.98 213 -36.96 213 -39 213 C-39 212.01 -39 211.02 -39 210 C-40.98 210 -42.96 210 -45 210 C-45 209.01 -45 208.02 -45 207 C-46.98 207 -48.96 207 -51 207 C-51 206.01 -51 205.02 -51 204 C-52.98 204 -54.96 204 -57 204 C-57 203.01 -57 202.02 -57 201 C-57.99 201 -58.98 201 -60 201 C-60 200.01 -60 199.02 -60 198 C-61.98 198 -63.96 198 -66 198 C-66 197.01 -66 196.02 -66 195 C-67.98 195 -69.96 195 -72 195 C-72 194.01 -72 193.02 -72 192 C-72.99 192 -73.98 192 -75 192 C-75 191.01 -75 190.02 -75 189 C-75.99 189 -76.98 189 -78 189 C-78 188.01 -78 187.02 -78 186 C-78.99 186 -79.98 186 -81 186 C-81 185.01 -81 184.02 -81 183 C-82.98 183 -84.96 183 -87 183 C-87 182.01 -87 181.02 -87 180 C-87.99 180 -88.98 180 -90 180 C-90 179.01 -90 178.02 -90 177 C-90.99 177 -91.98 177 -93 177 C-93 175.02 -93 173.04 -93 171 C-93.99 171 -94.98 171 -96 171 C-96 170.01 -96 169.02 -96 168 C-96.99 168 -97.98 168 -99 168 C-99 167.01 -99 166.02 -99 165 C-99.99 165 -100.98 165 -102 165 C-102 163.02 -102 161.04 -102 159 C-102.99 159 -103.98 159 -105 159 C-105 157.02 -105 155.04 -105 153 C-105.99 153 -106.98 153 -108 153 C-108 151.02 -108 149.04 -108 147 C-108.99 147 -109.98 147 -111 147 C-111 144.03 -111 141.06 -111 138 C-111.99 138 -112.98 138 -114 138 C-114 132.06 -114 126.12 -114 120 C-114.99 120 -115.98 120 -117 120 C-117 113.07 -117 106.14 -117 99 C-116.01 99 -115.02 99 -114 99 C-114 94.05 -114 89.1 -114 84 C-113.01 84 -112.02 84 -111 84 C-111 81.03 -111 78.06 -111 75 C-110.01 75 -109.02 75 -108 75 C-108 72.03 -108 69.06 -108 66 C-107.01 66 -106.02 66 -105 66 C-105 64.02 -105 62.04 -105 60 C-104.01 60 -103.02 60 -102 60 C-102 58.02 -102 56.04 -102 54 C-101.01 54 -100.02 54 -99 54 C-99 53.01 -99 52.02 -99 51 C-98.01 51 -97.02 51 -96 51 C-96 50.01 -96 49.02 -96 48 C-95.01 48 -94.02 48 -93 48 C-93 46.02 -93 44.04 -93 42 C-92.01 42 -91.02 42 -90 42 C-90 41.01 -90 40.02 -90 39 C-89.01 39 -88.02 39 -87 39 C-87 38.01 -87 37.02 -87 36 C-86.01 36 -85.02 36 -84 36 C-84 35.01 -84 34.02 -84 33 C-83.01 33 -82.02 33 -81 33 C-81 32.01 -81 31.02 -81 30 C-79.02 30 -77.04 30 -75 30 C-75 29.01 -75 28.02 -75 27 C-74.01 27 -73.02 27 -72 27 C-72 26.01 -72 25.02 -72 24 C-70.02 24 -68.04 24 -66 24 C-66 23.01 -66 22.02 -66 21 C-65.01 21 -64.02 21 -63 21 C-63 20.01 -63 19.02 -63 18 C-61.02 18 -59.04 18 -57 18 C-57 17.01 -57 16.02 -57 15 C-54.03 15 -51.06 15 -48 15 C-48 14.01 -48 13.02 -48 12 C-45.03 12 -42.06 12 -39 12 C-39 11.01 -39 10.02 -39 9 C-36.03 9 -33.06 9 -30 9 C-30 8.01 -30 7.02 -30 6 C-26.04 6 -22.08 6 -18 6 C-18 5.01 -18 4.02 -18 3 C-12.06 3 -6.12 3 0 3 C0 2.01 0 1.02 0 0 Z " fill="#EAEAEA" transform="translate(1383,381)"/>
<path d="M0 0 C4.95 0 9.9 0 15 0 C15 0.99 15 1.98 15 3 C16.98 3 18.96 3 21 3 C21 3.99 21 4.98 21 6 C21.99 6 22.98 6 24 6 C24 7.98 24 9.96 24 12 C24.99 12 25.98 12 27 12 C27 12.99 27 13.98 27 15 C27.99 15 28.98 15 30 15 C30 16.98 30 18.96 30 21 C30.99 21 31.98 21 33 21 C33 21.99 33 22.98 33 24 C33.99 24 34.98 24 36 24 C36 25.98 36 27.96 36 30 C36.99 30 37.98 30 39 30 C39 30.99 39 31.98 39 33 C39.99 33 40.98 33 42 33 C42 34.98 42 36.96 42 39 C42.99 39 43.98 39 45 39 C45 39.99 45 40.98 45 42 C45.99 42 46.98 42 48 42 C48 43.98 48 45.96 48 48 C48.99 48 49.98 48 51 48 C51 48.99 51 49.98 51 51 C51.99 51 52.98 51 54 51 C54 52.98 54 54.96 54 57 C54.99 57 55.98 57 57 57 C57 57.99 57 58.98 57 60 C57.99 60 58.98 60 60 60 C60 44.16 60 28.32 60 12 C60.99 12 61.98 12 63 12 C63 9.03 63 6.06 63 3 C63.99 3 64.98 3 66 3 C66 2.01 66 1.02 66 0 C67.98 0 69.96 0 72 0 C72 0.99 72 1.98 72 3 C72.99 3 73.98 3 75 3 C75 3.99 75 4.98 75 6 C75.99 6 76.98 6 78 6 C78 6.99 78 7.98 78 9 C78.99 9 79.98 9 81 9 C81 35.73 81 62.46 81 90 C80.01 90 79.02 90 78 90 C78 91.98 78 93.96 78 96 C77.01 96 76.02 96 75 96 C75 96.99 75 97.98 75 99 C71.04 99 67.08 99 63 99 C63 98.01 63 97.02 63 96 C61.02 96 59.04 96 57 96 C57 95.01 57 94.02 57 93 C56.01 93 55.02 93 54 93 C54 91.02 54 89.04 54 87 C53.01 87 52.02 87 51 87 C51 86.01 51 85.02 51 84 C50.01 84 49.02 84 48 84 C48 82.02 48 80.04 48 78 C47.01 78 46.02 78 45 78 C45 77.01 45 76.02 45 75 C44.01 75 43.02 75 42 75 C42 74.01 42 73.02 42 72 C41.01 72 40.02 72 39 72 C39 70.02 39 68.04 39 66 C38.01 66 37.02 66 36 66 C36 65.01 36 64.02 36 63 C35.01 63 34.02 63 33 63 C33 61.02 33 59.04 33 57 C32.01 57 31.02 57 30 57 C30 56.01 30 55.02 30 54 C29.01 54 28.02 54 27 54 C27 52.02 27 50.04 27 48 C26.01 48 25.02 48 24 48 C24 47.01 24 46.02 24 45 C23.01 45 22.02 45 21 45 C21 43.02 21 41.04 21 39 C20.01 39 19.02 39 18 39 C18 38.01 18 37.02 18 36 C17.01 36 16.02 36 15 36 C15 53.82 15 71.64 15 90 C14.01 90 13.02 90 12 90 C12 91.98 12 93.96 12 96 C11.01 96 10.02 96 9 96 C9 96.99 9 97.98 9 99 C6.03 99 3.06 99 0 99 C0 98.01 0 97.02 0 96 C-0.99 96 -1.98 96 -3 96 C-3 95.01 -3 94.02 -3 93 C-3.99 93 -4.98 93 -6 93 C-6 65.28 -6 37.56 -6 9 C-5.01 9 -4.02 9 -3 9 C-3 7.02 -3 5.04 -3 3 C-2.01 3 -1.02 3 0 3 C0 2.01 0 1.02 0 0 Z " fill="#EAEAEA" transform="translate(792,858)"/>
<path d="M0 0 C11.88 0 23.76 0 36 0 C36 0.99 36 1.98 36 3 C37.98 3 39.96 3 42 3 C42 3.99 42 4.98 42 6 C43.98 6 45.96 6 48 6 C48 6.99 48 7.98 48 9 C48.99 9 49.98 9 51 9 C51 9.99 51 10.98 51 12 C51.99 12 52.98 12 54 12 C54 12.99 54 13.98 54 15 C54.99 15 55.98 15 57 15 C57 16.98 57 18.96 57 21 C57.99 21 58.98 21 60 21 C60 21.99 60 22.98 60 24 C60.99 24 61.98 24 63 24 C63 26.97 63 29.94 63 33 C63.99 33 64.98 33 66 33 C66 45.87 66 58.74 66 72 C65.01 72 64.02 72 63 72 C63 73.98 63 75.96 63 78 C62.01 78 61.02 78 60 78 C60 79.98 60 81.96 60 84 C59.01 84 58.02 84 57 84 C57 84.99 57 85.98 57 87 C56.01 87 55.02 87 54 87 C54 87.99 54 88.98 54 90 C53.01 90 52.02 90 51 90 C51 90.99 51 91.98 51 93 C50.01 93 49.02 93 48 93 C48 93.99 48 94.98 48 96 C47.01 96 46.02 96 45 96 C45 96.99 45 97.98 45 99 C44.01 99 43.02 99 42 99 C42 99.99 42 100.98 42 102 C39.03 102 36.06 102 33 102 C33 102.99 33 103.98 33 105 C21.12 105 9.24 105 -3 105 C-3 104.01 -3 103.02 -3 102 C-5.97 102 -8.94 102 -12 102 C-12 101.01 -12 100.02 -12 99 C-12.99 99 -13.98 99 -15 99 C-15 98.01 -15 97.02 -15 96 C-15.99 96 -16.98 96 -18 96 C-18 95.01 -18 94.02 -18 93 C-18.99 93 -19.98 93 -21 93 C-21 92.01 -21 91.02 -21 90 C-21.99 90 -22.98 90 -24 90 C-24 89.01 -24 88.02 -24 87 C-24.99 87 -25.98 87 -27 87 C-27 86.01 -27 85.02 -27 84 C-27.99 84 -28.98 84 -30 84 C-30 81.03 -30 78.06 -30 75 C-30.99 75 -31.98 75 -33 75 C-33 70.05 -33 65.1 -33 60 C-33.99 60 -34.98 60 -36 60 C-36 57.03 -36 54.06 -36 51 C-35.01 51 -34.02 51 -33 51 C-33 45.06 -33 39.12 -33 33 C-32.01 33 -31.02 33 -30 33 C-30 31.02 -30 29.04 -30 27 C-29.01 27 -28.02 27 -27 27 C-27 25.02 -27 23.04 -27 21 C-26.01 21 -25.02 21 -24 21 C-24 20.01 -24 19.02 -24 18 C-23.01 18 -22.02 18 -21 18 C-21 17.01 -21 16.02 -21 15 C-20.01 15 -19.02 15 -18 15 C-18 14.01 -18 13.02 -18 12 C-17.01 12 -16.02 12 -15 12 C-15 11.01 -15 10.02 -15 9 C-14.01 9 -13.02 9 -12 9 C-12 8.01 -12 7.02 -12 6 C-10.02 6 -8.04 6 -6 6 C-6 5.01 -6 4.02 -6 3 C-4.02 3 -2.04 3 0 3 C0 2.01 0 1.02 0 0 Z M9 15 C9 15.99 9 16.98 9 18 C7.02 18 5.04 18 3 18 C3 18.99 3 19.98 3 21 C2.01 21 1.02 21 0 21 C0 21.99 0 22.98 0 24 C-0.99 24 -1.98 24 -3 24 C-3 24.99 -3 25.98 -3 27 C-3.99 27 -4.98 27 -6 27 C-6 28.98 -6 30.96 -6 33 C-6.99 33 -7.98 33 -9 33 C-9 35.97 -9 38.94 -9 42 C-9.99 42 -10.98 42 -12 42 C-12 48.93 -12 55.86 -12 63 C-11.01 63 -10.02 63 -9 63 C-9 65.97 -9 68.94 -9 72 C-8.01 72 -7.02 72 -6 72 C-6 73.98 -6 75.96 -6 78 C-5.01 78 -4.02 78 -3 78 C-3 78.99 -3 79.98 -3 81 C-2.01 81 -1.02 81 0 81 C0 81.99 0 82.98 0 84 C0.99 84 1.98 84 3 84 C3 84.99 3 85.98 3 87 C3.99 87 4.98 87 6 87 C6 87.99 6 88.98 6 90 C10.95 90 15.9 90 21 90 C21 89.01 21 88.02 21 87 C21.99 87 22.98 87 24 87 C24 86.01 24 85.02 24 84 C25.98 84 27.96 84 30 84 C30 83.01 30 82.02 30 81 C30.99 81 31.98 81 33 81 C33 79.02 33 77.04 33 75 C33.99 75 34.98 75 36 75 C36 74.01 36 73.02 36 72 C36.99 72 37.98 72 39 72 C39 71.01 39 70.02 39 69 C39.99 69 40.98 69 42 69 C42 67.02 42 65.04 42 63 C42.99 63 43.98 63 45 63 C45 57.06 45 51.12 45 45 C44.01 45 43.02 45 42 45 C42 42.03 42 39.06 42 36 C41.01 36 40.02 36 39 36 C39 34.02 39 32.04 39 30 C38.01 30 37.02 30 36 30 C36 28.02 36 26.04 36 24 C35.01 24 34.02 24 33 24 C33 23.01 33 22.02 33 21 C31.02 21 29.04 21 27 21 C27 20.01 27 19.02 27 18 C25.02 18 23.04 18 21 18 C21 17.01 21 16.02 21 15 C17.04 15 13.08 15 9 15 Z " fill="#E9E9E9" transform="translate(690,855)"/>
<path d="M0 0 C3.96 0 7.92 0 12 0 C12 0.99 12 1.98 12 3 C14.97 3 17.94 3 21 3 C21 3.99 21 4.98 21 6 C21.99 6 22.98 6 24 6 C24 6.99 24 7.98 24 9 C24.99 9 25.98 9 27 9 C27 9.99 27 10.98 27 12 C27.99 12 28.98 12 30 12 C30 13.98 30 15.96 30 18 C30.99 18 31.98 18 33 18 C33 18.99 33 19.98 33 21 C33.99 21 34.98 21 36 21 C36 22.98 36 24.96 36 27 C36.99 27 37.98 27 39 27 C39 27.99 39 28.98 39 30 C39.99 30 40.98 30 42 30 C42 31.98 42 33.96 42 36 C42.99 36 43.98 36 45 36 C45 37.98 45 39.96 45 42 C45.99 42 46.98 42 48 42 C48 42.99 48 43.98 48 45 C48.99 45 49.98 45 51 45 C51 46.98 51 48.96 51 51 C51.99 51 52.98 51 54 51 C54 51.99 54 52.98 54 54 C54.99 54 55.98 54 57 54 C57 55.98 57 57.96 57 60 C57.99 60 58.98 60 60 60 C60 45.15 60 30.3 60 15 C60.99 15 61.98 15 63 15 C63 12.03 63 9.06 63 6 C63.99 6 64.98 6 66 6 C66 5.01 66 4.02 66 3 C66.99 3 67.98 3 69 3 C69 2.01 69 1.02 69 0 C70.98 0 72.96 0 75 0 C75 0.99 75 1.98 75 3 C75.99 3 76.98 3 78 3 C78 3.99 78 4.98 78 6 C78.99 6 79.98 6 81 6 C81 38.67 81 71.34 81 105 C80.01 105 79.02 105 78 105 C78 104.01 78 103.02 78 102 C76.02 102 74.04 102 72 102 C72 101.01 72 100.02 72 99 C70.02 99 68.04 99 66 99 C66 98.01 66 97.02 66 96 C64.02 96 62.04 96 60 96 C60 95.01 60 94.02 60 93 C59.01 93 58.02 93 57 93 C57 92.01 57 91.02 57 90 C56.01 90 55.02 90 54 90 C54 89.01 54 88.02 54 87 C53.01 87 52.02 87 51 87 C51 85.02 51 83.04 51 81 C50.01 81 49.02 81 48 81 C48 80.01 48 79.02 48 78 C47.01 78 46.02 78 45 78 C45 77.01 45 76.02 45 75 C44.01 75 43.02 75 42 75 C42 73.02 42 71.04 42 69 C41.01 69 40.02 69 39 69 C39 68.01 39 67.02 39 66 C38.01 66 37.02 66 36 66 C36 65.01 36 64.02 36 63 C35.01 63 34.02 63 33 63 C33 61.02 33 59.04 33 57 C32.01 57 31.02 57 30 57 C30 56.01 30 55.02 30 54 C29.01 54 28.02 54 27 54 C27 53.01 27 52.02 27 51 C26.01 51 25.02 51 24 51 C24 50.01 24 49.02 24 48 C23.01 48 22.02 48 21 48 C21 46.02 21 44.04 21 42 C20.01 42 19.02 42 18 42 C18 41.01 18 40.02 18 39 C17.01 39 16.02 39 15 39 C15 55.83 15 72.66 15 90 C14.01 90 13.02 90 12 90 C12 91.98 12 93.96 12 96 C11.01 96 10.02 96 9 96 C9 96.99 9 97.98 9 99 C7.02 99 5.04 99 3 99 C3 98.01 3 97.02 3 96 C2.01 96 1.02 96 0 96 C0 94.02 0 92.04 0 90 C-0.99 90 -1.98 90 -3 90 C-3 62.28 -3 34.56 -3 6 C-2.01 6 -1.02 6 0 6 C0 4.02 0 2.04 0 0 Z " fill="#EAEAEA" transform="translate(12,858)"/>
<path d="M0 0 C4.95 0 9.9 0 15 0 C15 0.99 15 1.98 15 3 C22.92 3 30.84 3 39 3 C39 3.99 39 4.98 39 6 C40.98 6 42.96 6 45 6 C45 6.99 45 7.98 45 9 C45.99 9 46.98 9 48 9 C48 9.99 48 10.98 48 12 C48.99 12 49.98 12 51 12 C51 12.99 51 13.98 51 15 C51.99 15 52.98 15 54 15 C54 16.98 54 18.96 54 21 C54.99 21 55.98 21 57 21 C57 24.96 57 28.92 57 33 C56.01 33 55.02 33 54 33 C54 34.98 54 36.96 54 39 C53.01 39 52.02 39 51 39 C51 40.98 51 42.96 51 45 C50.01 45 49.02 45 48 45 C48 45.99 48 46.98 48 48 C47.01 48 46.02 48 45 48 C45 48.99 45 49.98 45 51 C44.01 51 43.02 51 42 51 C42 53.97 42 56.94 42 60 C42.99 60 43.98 60 45 60 C45 61.98 45 63.96 45 66 C45.99 66 46.98 66 48 66 C48 66.99 48 67.98 48 69 C48.99 69 49.98 69 51 69 C51 70.98 51 72.96 51 75 C51.99 75 52.98 75 54 75 C54 76.98 54 78.96 54 81 C54.99 81 55.98 81 57 81 C57 82.98 57 84.96 57 87 C57.99 87 58.98 87 60 87 C60 88.98 60 90.96 60 93 C60.99 93 61.98 93 63 93 C63 95.97 63 98.94 63 102 C60.03 102 57.06 102 54 102 C54 102.99 54 103.98 54 105 C52.02 105 50.04 105 48 105 C48 104.01 48 103.02 48 102 C46.02 102 44.04 102 42 102 C42 101.01 42 100.02 42 99 C41.01 99 40.02 99 39 99 C39 98.01 39 97.02 39 96 C38.01 96 37.02 96 36 96 C36 94.02 36 92.04 36 90 C35.01 90 34.02 90 33 90 C33 88.02 33 86.04 33 84 C32.01 84 31.02 84 30 84 C30 82.02 30 80.04 30 78 C29.01 78 28.02 78 27 78 C27 77.01 27 76.02 27 75 C26.01 75 25.02 75 24 75 C24 73.02 24 71.04 24 69 C23.01 69 22.02 69 21 69 C21 68.01 21 67.02 21 66 C19.02 66 17.04 66 15 66 C15 65.01 15 64.02 15 63 C13.02 63 11.04 63 9 63 C9 63.99 9 64.98 9 66 C8.01 66 7.02 66 6 66 C6 66.99 6 67.98 6 69 C5.01 69 4.02 69 3 69 C3 78.9 3 88.8 3 99 C2.01 99 1.02 99 0 99 C0 99.99 0 100.98 0 102 C-1.98 102 -3.96 102 -6 102 C-6 102.99 -6 103.98 -6 105 C-7.98 105 -9.96 105 -12 105 C-12 104.01 -12 103.02 -12 102 C-13.98 102 -15.96 102 -18 102 C-18 99.03 -18 96.06 -18 93 C-18.99 93 -19.98 93 -21 93 C-21 67.26 -21 41.52 -21 15 C-20.01 15 -19.02 15 -18 15 C-18 13.02 -18 11.04 -18 9 C-17.01 9 -16.02 9 -15 9 C-15 8.01 -15 7.02 -15 6 C-14.01 6 -13.02 6 -12 6 C-12 5.01 -12 4.02 -12 3 C-8.04 3 -4.08 3 0 3 C0 2.01 0 1.02 0 0 Z M6 18 C6 18.99 6 19.98 6 21 C5.01 21 4.02 21 3 21 C3 21.99 3 22.98 3 24 C2.01 24 1.02 24 0 24 C0 27.96 0 31.92 0 36 C-0.99 36 -1.98 36 -3 36 C-3 36.99 -3 37.98 -3 39 C-1.02 39 0.96 39 3 39 C3 39.99 3 40.98 3 42 C3.99 42 4.98 42 6 42 C6 42.99 6 43.98 6 45 C6.99 45 7.98 45 9 45 C9 45.99 9 46.98 9 48 C14.94 48 20.88 48 27 48 C27 47.01 27 46.02 27 45 C27.99 45 28.98 45 30 45 C30 44.01 30 43.02 30 42 C30.99 42 31.98 42 33 42 C33 36.06 33 30.12 33 24 C32.01 24 31.02 24 30 24 C30 23.01 30 22.02 30 21 C28.02 21 26.04 21 24 21 C24 20.01 24 19.02 24 18 C18.06 18 12.12 18 6 18 Z " fill="#EAEAEA" transform="translate(363,855)"/>
<path d="M0 0 C2.97 0 5.94 0 9 0 C9 0.99 9 1.98 9 3 C9.99 3 10.98 3 12 3 C12 3.99 12 4.98 12 6 C12.99 6 13.98 6 15 6 C15 24.81 15 43.62 15 63 C15.99 63 16.98 63 18 63 C18 66.96 18 70.92 18 75 C18.99 75 19.98 75 21 75 C21 76.98 21 78.96 21 81 C21.99 81 22.98 81 24 81 C24 81.99 24 82.98 24 84 C24.99 84 25.98 84 27 84 C27 84.99 27 85.98 27 87 C31.95 87 36.9 87 42 87 C42 86.01 42 85.02 42 84 C43.98 84 45.96 84 48 84 C48 83.01 48 82.02 48 81 C48.99 81 49.98 81 51 81 C51 80.01 51 79.02 51 78 C51.99 78 52.98 78 54 78 C54 77.01 54 76.02 54 75 C54.99 75 55.98 75 57 75 C57 71.04 57 67.08 57 63 C57.99 63 58.98 63 60 63 C60 42.21 60 21.42 60 0 C64.95 0 69.9 0 75 0 C75 0.99 75 1.98 75 3 C75.99 3 76.98 3 78 3 C78 3.99 78 4.98 78 6 C78.99 6 79.98 6 81 6 C81 28.77 81 51.54 81 75 C80.01 75 79.02 75 78 75 C78 76.98 78 78.96 78 81 C77.01 81 76.02 81 75 81 C75 82.98 75 84.96 75 87 C74.01 87 73.02 87 72 87 C72 87.99 72 88.98 72 90 C71.01 90 70.02 90 69 90 C69 90.99 69 91.98 69 93 C68.01 93 67.02 93 66 93 C66 93.99 66 94.98 66 96 C65.01 96 64.02 96 63 96 C63 96.99 63 97.98 63 99 C61.02 99 59.04 99 57 99 C57 99.99 57 100.98 57 102 C53.04 102 49.08 102 45 102 C45 102.99 45 103.98 45 105 C42.03 105 39.06 105 36 105 C36 104.01 36 103.02 36 102 C31.05 102 26.1 102 21 102 C21 101.01 21 100.02 21 99 C19.02 99 17.04 99 15 99 C15 98.01 15 97.02 15 96 C13.02 96 11.04 96 9 96 C9 95.01 9 94.02 9 93 C8.01 93 7.02 93 6 93 C6 92.01 6 91.02 6 90 C5.01 90 4.02 90 3 90 C3 88.02 3 86.04 3 84 C2.01 84 1.02 84 0 84 C0 82.02 0 80.04 0 78 C-0.99 78 -1.98 78 -3 78 C-3 74.04 -3 70.08 -3 66 C-3.99 66 -4.98 66 -6 66 C-6 46.2 -6 26.4 -6 6 C-5.01 6 -4.02 6 -3 6 C-3 5.01 -3 4.02 -3 3 C-2.01 3 -1.02 3 0 3 C0 2.01 0 1.02 0 0 Z " fill="#EAEAEA" transform="translate(132,858)"/>
<path d="M0 0 C13.86 0 27.72 0 42 0 C42 0.99 42 1.98 42 3 C45.96 3 49.92 3 54 3 C54 3.99 54 4.98 54 6 C55.98 6 57.96 6 60 6 C60 6.99 60 7.98 60 9 C60.99 9 61.98 9 63 9 C63 9.99 63 10.98 63 12 C62.01 12 61.02 12 60 12 C60 12.99 60 13.98 60 15 C58.02 15 56.04 15 54 15 C54 15.99 54 16.98 54 18 C48.06 18 42.12 18 36 18 C36 18.99 36 19.98 36 21 C35.01 21 34.02 21 33 21 C33 22.98 33 24.96 33 27 C32.01 27 31.02 27 30 27 C30 51.75 30 76.5 30 102 C27.03 102 24.06 102 21 102 C21 102.99 21 103.98 21 105 C20.01 105 19.02 105 18 105 C18 104.01 18 103.02 18 102 C16.02 102 14.04 102 12 102 C12 101.01 12 100.02 12 99 C11.01 99 10.02 99 9 99 C9 73.26 9 47.52 9 21 C8.01 21 7.02 21 6 21 C6 20.01 6 19.02 6 18 C0.06 18 -5.88 18 -12 18 C-12 17.01 -12 16.02 -12 15 C-13.98 15 -15.96 15 -18 15 C-18 14.01 -18 13.02 -18 12 C-18.99 12 -19.98 12 -21 12 C-21 11.01 -21 10.02 -21 9 C-20.01 9 -19.02 9 -18 9 C-18 8.01 -18 7.02 -18 6 C-17.01 6 -16.02 6 -15 6 C-15 5.01 -15 4.02 -15 3 C-10.05 3 -5.1 3 0 3 C0 2.01 0 1.02 0 0 Z " fill="#EAEAEA" transform="translate(258,855)"/>
<path d="M0 0 C8.91 0 17.82 0 27 0 C27 0.99 27 1.98 27 3 C34.92 3 42.84 3 51 3 C51 3.99 51 4.98 51 6 C51.99 6 52.98 6 54 6 C54 7.98 54 9.96 54 12 C53.01 12 52.02 12 51 12 C51 12.99 51 13.98 51 15 C50.01 15 49.02 15 48 15 C48 15.99 48 16.98 48 18 C42.06 18 36.12 18 30 18 C30 18.99 30 19.98 30 21 C29.01 21 28.02 21 27 21 C27 21.99 27 22.98 27 24 C26.01 24 25.02 24 24 24 C24 49.74 24 75.48 24 102 C21.03 102 18.06 102 15 102 C15 102.99 15 103.98 15 105 C14.01 105 13.02 105 12 105 C12 104.01 12 103.02 12 102 C10.02 102 8.04 102 6 102 C6 101.01 6 100.02 6 99 C5.01 99 4.02 99 3 99 C3 73.26 3 47.52 3 21 C2.01 21 1.02 21 0 21 C0 20.01 0 19.02 0 18 C-5.94 18 -11.88 18 -18 18 C-18 17.01 -18 16.02 -18 15 C-19.98 15 -21.96 15 -24 15 C-24 14.01 -24 13.02 -24 12 C-24.99 12 -25.98 12 -27 12 C-27 11.01 -27 10.02 -27 9 C-26.01 9 -25.02 9 -24 9 C-24 8.01 -24 7.02 -24 6 C-23.01 6 -22.02 6 -21 6 C-21 5.01 -21 4.02 -21 3 C-14.07 3 -7.14 3 0 3 C0 2.01 0 1.02 0 0 Z " fill="#EAEAEA" transform="translate(525,855)"/>
<path d="M0 0 C4.95 0 9.9 0 15 0 C15 0.99 15 1.98 15 3 C15.99 3 16.98 3 18 3 C18 34.68 18 66.36 18 99 C11.07 99 4.14 99 -3 99 C-3 96.03 -3 93.06 -3 90 C-3.99 90 -4.98 90 -6 90 C-6 71.19 -6 52.38 -6 33 C-5.01 33 -4.02 33 -3 33 C-3 24.09 -3 15.18 -3 6 C-2.01 6 -1.02 6 0 6 C0 4.02 0 2.04 0 0 Z " fill="#EAEAEA" transform="translate(456,858)"/>
<path d="M0 0 C3.96 0 7.92 0 12 0 C12 0.99 12 1.98 12 3 C12.99 3 13.98 3 15 3 C15 3.99 15 4.98 15 6 C15.99 6 16.98 6 18 6 C18 36.69 18 67.38 18 99 C11.07 99 4.14 99 -3 99 C-3 67.32 -3 35.64 -3 3 C-2.01 3 -1.02 3 0 3 C0 2.01 0 1.02 0 0 Z " fill="#E9E9E9" transform="translate(609,858)"/>
</svg>
