<?xml version="1.0" standalone="no"?>
<!DOCTYPE svg PUBLIC "-//W3C//DTD SVG 20010904//EN"
 "http://www.w3.org/TR/2001/REC-SVG-20010904/DTD/svg10.dtd">
<svg version="1.0" xmlns="http://www.w3.org/2000/svg"
 width="470.000000pt" height="470.000000pt" viewBox="0 0 470.000000 470.000000"
 preserveAspectRatio="xMidYMid meet">

<g transform="translate(0.000000,470.000000) scale(0.100000,-0.100000)"
fill="#000000" stroke="none">
<path d="M2171 4490 c-882 -86 -1609 -712 -1820 -1570 -75 -306 -82 -626 -20
-938 89 -446 342 -874 687 -1162 295 -247 631 -401 1012 -465 106 -18 441 -32
513 -21 99 15 38 24 -195 29 -191 3 -267 9 -355 26 -881 167 -1532 848 -1658
1733 -17 121 -20 416 -5 538 86 690 504 1288 1115 1593 273 136 534 202 845
214 577 22 1118 -188 1524 -592 397 -395 606 -900 606 -1463 0 -87 -5 -196
-10 -242 -56 -453 -254 -865 -574 -1199 -57 -59 -202 -186 -256 -224 -17 -12
-21 -20 -13 -28 21 -21 251 181 386 341 313 372 479 804 494 1285 11 355 -56
671 -212 990 -293 603 -863 1026 -1530 1135 -140 23 -398 33 -534 20z"/>
<path d="M2190 4254 c-14 -2 -59 -9 -100 -15 -99 -14 -282 -62 -375 -99 -595
-237 -1029 -757 -1155 -1386 -28 -137 -38 -414 -20 -565 52 -454 287 -886 645
-1187 334 -281 746 -432 1181 -432 152 0 234 9 234 27 0 11 -26 12 -142 8
l-143 -5 45 21 c48 23 159 31 213 16 24 -7 28 -5 25 10 -9 46 -175 41 -271 -8
-71 -36 -115 -39 -256 -14 -94 16 -303 74 -366 101 l-40 17 35 13 c19 7 66 13
104 13 60 1 79 -4 160 -41 85 -39 97 -42 181 -42 85 0 95 2 170 39 74 37 86
40 165 40 47 0 95 -4 108 -8 17 -6 22 -5 22 8 0 25 -49 37 -140 33 -74 -4 -95
-9 -165 -43 -73 -35 -87 -39 -160 -39 -73 0 -88 4 -171 42 -82 38 -100 42
-167 42 -52 0 -94 -6 -131 -20 l-55 -21 -48 25 c-41 21 -45 25 -28 31 11 4 56
23 100 43 72 33 88 37 160 36 72 0 88 -4 160 -40 77 -38 84 -39 180 -39 96 0
103 1 178 39 67 33 89 39 145 40 37 1 84 -3 105 -7 30 -6 37 -5 37 7 0 22 -42
31 -135 30 -72 0 -88 -4 -160 -40 -75 -37 -86 -39 -170 -39 -84 0 -96 3 -175
40 -79 37 -91 40 -170 40 -79 -1 -92 -4 -176 -43 -123 -57 -140 -56 -250 18
-135 90 -151 106 -69 68 61 -29 80 -33 155 -33 79 0 91 3 170 40 79 37 91 40
175 40 85 0 95 -2 170 -40 76 -37 85 -39 170 -39 85 0 95 2 170 39 74 37 86
40 165 40 47 0 97 -4 113 -9 21 -6 27 -5 27 8 0 24 -67 39 -156 34 -66 -4 -92
-10 -159 -43 -73 -35 -87 -39 -160 -39 -73 0 -88 4 -173 43 -91 42 -96 43
-180 39 -77 -3 -97 -8 -171 -43 -76 -36 -93 -40 -160 -40 -66 1 -87 6 -156 37
-44 20 -91 40 -105 44 -27 7 -120 83 -120 98 0 21 121 -3 201 -40 79 -37 90
-39 180 -39 90 0 99 2 180 40 77 37 91 40 164 39 72 0 88 -4 160 -40 71 -35
90 -39 167 -42 83 -4 90 -2 178 37 107 48 179 59 258 38 42 -11 52 -12 52 -1
0 26 -44 39 -135 38 -84 0 -95 -2 -170 -39 -75 -38 -85 -40 -170 -40 -84 0
-96 3 -175 40 -79 37 -91 40 -170 40 -79 -1 -92 -4 -178 -44 -89 -41 -97 -43
-170 -39 -64 3 -92 11 -162 43 -73 34 -96 40 -164 42 -71 2 -82 5 -107 29 -16
15 -29 31 -29 35 0 14 73 29 139 29 54 0 78 -6 155 -42 84 -39 97 -42 176 -43
79 0 91 3 170 40 79 37 91 40 175 40 85 0 95 -2 170 -40 74 -36 86 -39 165
-40 80 0 92 3 170 40 101 47 197 58 275 32 40 -14 45 -14 45 -1 0 28 -67 46
-159 42 -76 -3 -95 -8 -166 -43 -73 -36 -87 -39 -160 -39 -73 0 -88 4 -173 43
-91 42 -96 43 -180 39 -76 -3 -98 -8 -172 -43 -76 -35 -93 -40 -160 -39 -67 0
-85 4 -166 42 -83 38 -98 42 -170 42 -43 -1 -97 -7 -119 -15 -39 -15 -40 -14
-62 13 -13 15 -23 30 -23 33 0 4 28 19 63 35 51 23 76 29 138 29 67 0 84 -4
160 -40 80 -38 89 -40 180 -40 90 0 100 2 180 40 74 35 93 39 160 40 67 0 84
-4 160 -40 81 -38 88 -40 184 -40 95 0 104 2 176 37 107 52 197 59 292 23 11
-5 17 -2 17 8 0 25 -60 42 -150 42 -78 -1 -91 -4 -165 -40 -75 -38 -85 -40
-170 -40 -84 0 -95 3 -175 40 -78 37 -90 40 -170 40 -79 -1 -92 -4 -179 -44
-91 -42 -95 -43 -175 -39 -68 4 -94 11 -161 44 -74 36 -87 39 -165 39 -75 0
-93 -4 -154 -33 -37 -17 -70 -32 -71 -32 -5 0 -45 66 -45 74 0 3 6 6 13 6 6 0
50 18 97 40 75 35 94 40 159 40 66 0 84 -5 165 -42 84 -39 97 -42 176 -43 79
0 91 3 178 43 81 37 101 42 163 42 63 0 83 -5 163 -42 85 -39 97 -42 181 -42
85 0 95 2 170 39 96 47 191 58 271 31 50 -17 60 -16 51 7 -9 23 -90 39 -174
35 -66 -3 -90 -9 -158 -43 -73 -35 -87 -39 -160 -39 -74 0 -87 3 -173 43 -91
42 -95 43 -180 39 -77 -3 -97 -8 -171 -43 -76 -36 -93 -40 -160 -40 -67 1 -86
5 -161 40 -81 38 -88 40 -185 40 -95 -1 -104 -3 -175 -38 -93 -46 -112 -47
-139 -3 -12 18 -21 38 -21 43 0 6 21 13 48 15 26 3 85 22 132 44 75 34 94 39
160 39 66 0 85 -5 160 -40 74 -35 96 -40 172 -43 85 -4 89 -3 180 40 86 40 99
43 173 42 72 0 88 -4 160 -40 71 -35 90 -39 167 -42 83 -4 89 -2 178 38 116
52 190 61 273 33 52 -18 57 -19 57 -3 0 25 -73 45 -165 44 -72 0 -88 -4 -160
-40 -75 -37 -85 -39 -170 -39 -84 0 -95 3 -175 40 -78 37 -90 40 -170 40 -79
-1 -92 -4 -179 -44 -91 -42 -95 -43 -175 -39 -68 4 -94 11 -161 44 -74 36 -87
39 -165 39 -78 0 -91 -3 -165 -39 -55 -26 -99 -40 -140 -43 l-60 -5 -22 46
c-13 26 -23 48 -23 49 0 1 35 2 78 2 69 1 86 5 168 43 81 37 99 42 164 42 65
0 83 -5 164 -42 84 -39 97 -42 176 -43 79 0 91 3 169 40 80 38 91 40 175 40
86 0 96 -2 171 -40 76 -37 85 -39 170 -39 85 0 95 2 170 39 75 38 85 40 170
40 84 0 96 -3 175 -40 79 -37 91 -40 170 -39 78 0 93 4 176 42 81 37 100 42
164 42 65 0 83 -5 164 -42 84 -39 97 -43 176 -43 79 0 91 3 165 39 67 33 93
40 161 44 73 4 88 2 143 -23 33 -15 61 -29 61 -30 0 -1 -7 -18 -15 -37 l-14
-35 -58 19 c-86 30 -170 21 -270 -27 -65 -31 -92 -39 -159 -43 -80 -4 -84 -3
-175 39 -88 41 -100 44 -179 44 -78 0 -92 -3 -170 -40 -78 -37 -92 -40 -170
-40 -47 0 -96 4 -110 9 l-25 8 25 -27 c24 -26 28 -27 115 -23 81 3 99 7 174
43 76 36 93 40 160 40 68 0 85 -4 160 -40 81 -38 90 -40 180 -40 91 0 100 2
181 40 75 35 94 40 160 40 76 0 140 -18 140 -39 -1 -6 -7 -22 -14 -35 -13 -23
-18 -24 -122 -25 -106 -2 -112 -3 -189 -41 -72 -36 -87 -40 -155 -39 -66 0
-86 5 -160 39 -74 34 -96 40 -172 43 -84 4 -90 2 -175 -36 -48 -22 -103 -43
-121 -47 -26 -5 -31 -10 -22 -20 14 -17 56 -7 159 40 80 36 88 37 165 33 68
-4 94 -11 161 -44 74 -36 87 -39 165 -39 78 0 91 3 165 39 68 33 93 39 163 44
46 2 88 0 93 -5 5 -5 -1 -23 -16 -44 -22 -34 -28 -36 -89 -41 -47 -4 -88 -16
-147 -44 -76 -36 -90 -39 -169 -39 -80 0 -92 3 -171 40 -77 36 -91 40 -169 40
-77 0 -92 -3 -160 -36 -59 -29 -71 -38 -57 -44 13 -5 39 2 79 21 51 24 74 29
137 29 68 0 85 -4 160 -40 81 -38 90 -40 180 -40 90 0 101 2 178 38 45 21 106
41 135 44 l52 6 -34 -48 c-21 -29 -47 -52 -65 -58 -17 -5 -66 -26 -110 -45
-69 -32 -90 -37 -155 -37 -66 0 -85 5 -160 40 -71 33 -98 40 -164 43 -84 5
-160 -11 -153 -31 2 -7 13 -10 23 -8 10 2 60 4 110 5 85 1 94 -1 175 -39 77
-37 91 -40 169 -40 78 0 92 3 164 38 43 20 81 35 84 32 3 -2 -29 -40 -71 -82
l-76 -78 -94 0 c-87 0 -98 2 -176 39 -64 30 -99 40 -154 44 -63 4 -70 3 -59
-10 7 -9 37 -18 68 -21 34 -4 86 -20 133 -43 62 -30 92 -38 160 -43 l84 -6
-55 -42 c-30 -24 -63 -43 -74 -43 -10 0 -46 13 -80 29 -33 16 -72 32 -85 36
l-24 7 23 -25 c13 -14 51 -37 84 -52 57 -26 59 -27 39 -42 -20 -13 -20 -33 -1
-33 19 0 175 126 262 213 274 270 447 598 523 987 10 50 19 160 22 265 6 206
-8 336 -58 523 -183 694 -762 1229 -1469 1357 -90 16 -429 30 -490 19z m401
-39 c406 -54 766 -233 1051 -522 117 -119 169 -182 248 -304 184 -285 289
-630 290 -953 l0 -99 -39 6 c-21 2 -76 22 -122 43 -77 35 -92 39 -169 39 -78
0 -91 -3 -165 -39 -67 -33 -93 -40 -161 -44 -80 -4 -84 -3 -175 39 -88 41 -99
44 -180 44 -78 0 -92 -3 -170 -40 -70 -33 -97 -40 -160 -43 -73 -4 -82 -2
-170 39 -88 40 -100 43 -184 43 -82 1 -96 -2 -154 -32 -35 -17 -65 -32 -66
-32 -1 0 -16 20 -34 45 l-32 45 34 41 c32 37 57 101 57 147 0 44 -33 126 -66
162 -65 72 -164 98 -265 70 -49 -14 -113 -71 -140 -127 -40 -82 -21 -243 28
-243 10 0 56 -18 103 -40 47 -22 100 -40 118 -40 26 0 36 -7 52 -32 11 -18 20
-37 20 -42 0 -18 -92 3 -171 40 -76 36 -90 39 -169 39 -79 -1 -92 -4 -179 -44
-91 -42 -95 -43 -175 -39 -68 4 -94 11 -161 44 -74 36 -87 39 -165 39 -78 0
-91 -3 -165 -39 -68 -33 -93 -40 -162 -44 -79 -4 -86 -3 -159 32 l-77 36 6
114 c25 469 266 953 628 1262 233 199 517 342 799 404 188 41 414 50 601 25z
m-486 -1451 c91 -43 106 -166 30 -233 -62 -54 -143 -51 -200 9 -39 41 -47 123
-16 173 38 62 118 84 186 51z m-820 -411 c75 -36 85 -38 176 -38 90 0 99 2
180 40 77 37 91 40 164 39 72 0 88 -4 160 -40 77 -38 83 -39 180 -38 96 0 104
2 180 39 73 36 87 40 160 40 73 0 88 -4 164 -40 81 -38 90 -40 180 -40 91 0
100 2 180 40 76 36 93 40 160 40 68 0 85 -4 160 -40 81 -38 90 -40 180 -40 91
0 100 2 181 40 75 35 94 40 161 40 67 0 84 -4 158 -39 45 -21 102 -41 127 -44
47 -5 50 -10 38 -70 -6 -28 -9 -31 -38 -25 -17 3 -71 23 -119 45 -87 40 -91
40 -180 36 -81 -4 -101 -10 -172 -44 -71 -35 -88 -39 -155 -39 -66 0 -85 5
-160 40 -74 35 -96 40 -172 43 -85 4 -89 3 -180 -39 -83 -39 -101 -43 -169
-44 -67 0 -84 4 -160 40 -81 38 -88 40 -184 40 -96 0 -103 -1 -180 -40 -73
-36 -87 -39 -160 -39 -73 0 -88 4 -173 43 -91 42 -96 43 -180 39 -77 -3 -97
-8 -171 -43 -76 -36 -93 -40 -161 -40 -67 0 -84 5 -155 39 -71 34 -91 40 -172
44 -91 4 -92 4 -185 -39 -84 -39 -101 -43 -168 -43 -64 0 -85 5 -148 33 l-72
34 0 43 c0 24 2 44 5 44 3 0 29 -12 58 -27 41 -21 70 -27 138 -31 76 -4 92 -1
150 23 144 61 161 66 229 61 48 -3 86 -14 145 -43z m-1 -125 c84 -39 97 -42
176 -43 80 0 91 3 178 44 90 42 96 43 175 39 70 -4 94 -10 162 -43 73 -36 87
-39 165 -39 79 -1 91 2 170 39 79 37 91 40 175 40 84 0 96 -3 175 -40 79 -37
91 -40 170 -39 78 0 92 4 179 43 91 42 96 43 175 39 68 -4 94 -11 161 -44 74
-36 86 -39 165 -39 79 0 92 4 176 43 81 37 99 42 164 42 62 0 84 -5 159 -39
47 -21 103 -41 123 -45 36 -6 37 -8 32 -39 -10 -57 -12 -59 -45 -52 -17 4 -66
24 -108 44 -69 33 -84 36 -161 36 -78 0 -91 -3 -165 -39 -67 -33 -93 -40 -161
-44 -80 -4 -84 -3 -175 39 -88 41 -100 44 -179 44 -78 0 -92 -3 -170 -40 -70
-32 -98 -40 -161 -43 -73 -4 -81 -2 -170 39 -88 40 -99 43 -184 43 -85 0 -94
-2 -170 -39 -75 -38 -85 -40 -170 -40 -85 0 -95 2 -170 39 -75 37 -86 40 -170
40 -86 1 -94 -1 -183 -43 -89 -41 -97 -43 -170 -39 -64 3 -92 10 -162 43 -78
37 -92 40 -170 40 -78 0 -91 -3 -165 -39 -69 -34 -92 -39 -165 -43 -81 -4 -88
-3 -150 29 -63 32 -65 34 -68 76 -2 23 -1 42 1 42 3 0 31 -12 63 -27 50 -23
72 -28 144 -28 79 0 91 3 175 43 80 37 98 42 164 42 66 0 84 -4 165 -42z m-3
-124 c79 -37 90 -39 180 -39 90 0 99 2 180 40 77 37 91 40 164 39 72 0 88 -4
160 -40 71 -35 90 -39 167 -42 85 -4 89 -3 180 39 85 40 100 43 173 44 73 0
88 -4 164 -40 81 -38 90 -40 180 -40 91 0 100 2 180 40 76 36 93 40 160 40 68
0 85 -4 160 -40 81 -38 90 -40 180 -40 91 0 100 2 181 40 78 36 92 40 165 39
68 0 88 -4 135 -29 30 -15 78 -35 105 -44 l51 -16 -9 -42 c-4 -24 -13 -43 -19
-43 -6 0 -51 18 -100 41 -86 40 -92 41 -176 37 -76 -3 -98 -8 -172 -43 -75
-35 -94 -40 -160 -40 -66 0 -85 5 -160 40 -74 35 -96 40 -172 43 -85 4 -89 3
-180 -39 -86 -40 -99 -43 -173 -43 -73 0 -87 4 -160 40 -77 38 -84 39 -180 39
-96 0 -103 -1 -180 -40 -73 -36 -87 -39 -160 -39 -73 0 -88 3 -173 43 -91 42
-95 43 -180 39 -77 -3 -97 -8 -171 -43 -76 -36 -93 -40 -160 -40 -67 1 -86 5
-160 40 -81 38 -90 40 -181 40 -91 0 -100 -2 -181 -40 -75 -35 -92 -39 -159
-39 -56 0 -88 6 -127 23 -29 13 -53 26 -53 30 -1 3 -5 25 -9 49 -5 23 -6 42
-4 42 2 0 23 -10 46 -22 30 -16 66 -23 128 -26 76 -4 92 -1 150 23 189 80 232
82 370 19z m3 -126 c84 -39 97 -42 176 -43 79 0 91 3 170 40 79 37 91 40 175
40 84 0 96 -3 168 -38 130 -63 218 -61 356 6 59 29 75 32 156 32 84 0 96 -3
175 -40 79 -37 91 -40 170 -39 78 0 93 4 176 42 81 37 100 42 164 42 65 0 83
-5 164 -42 84 -39 97 -43 176 -43 79 0 91 3 165 39 67 33 93 40 161 44 79 4
85 3 171 -37 50 -22 96 -41 102 -41 8 0 11 -7 7 -16 -3 -9 -9 -27 -12 -40 -8
-31 -18 -30 -100 9 -61 28 -79 32 -154 32 -78 0 -92 -3 -169 -40 -79 -37 -91
-40 -171 -40 -80 0 -92 3 -171 40 -77 36 -91 40 -169 40 -80 0 -92 -3 -170
-40 -71 -33 -98 -40 -161 -43 -73 -4 -82 -2 -170 39 -88 40 -99 43 -184 43
-85 0 -94 -2 -170 -39 -75 -38 -85 -40 -170 -40 -84 0 -95 3 -175 40 -78 37
-90 40 -170 40 -79 -1 -92 -4 -179 -44 -91 -42 -95 -43 -175 -39 -68 4 -94 11
-161 44 -74 36 -87 39 -165 39 -78 0 -91 -3 -165 -39 -67 -32 -93 -40 -160
-43 -111 -7 -147 8 -169 73 -9 26 -15 49 -13 50 1 1 29 -7 62 -18 88 -30 171
-21 283 31 77 36 96 41 161 41 66 0 84 -4 165 -42z m-3 -124 c79 -37 90 -39
180 -39 90 0 99 2 180 40 77 37 91 40 164 39 72 0 88 -4 160 -40 77 -38 84
-39 180 -39 96 0 103 2 180 40 73 36 87 40 160 40 74 0 87 -3 173 -43 91 -43
95 -44 180 -40 77 3 97 8 171 43 76 36 93 40 160 40 68 0 85 -4 160 -40 81
-38 90 -40 180 -40 91 0 100 2 181 40 76 35 93 40 161 40 67 0 86 -4 150 -35
41 -19 76 -35 77 -37 7 -3 -20 -73 -28 -73 -4 0 -33 12 -64 26 -51 23 -67 26
-144 22 -76 -3 -98 -8 -172 -43 -75 -35 -94 -40 -160 -40 -66 0 -85 5 -160 40
-74 35 -96 40 -172 43 -85 4 -89 3 -180 -39 -83 -39 -101 -43 -169 -44 -67 0
-84 4 -160 40 -81 38 -88 40 -184 40 -96 0 -103 -1 -180 -40 -73 -36 -87 -39
-160 -39 -73 0 -88 3 -173 43 -91 42 -95 43 -180 39 -77 -3 -97 -8 -171 -43
-76 -36 -93 -40 -160 -40 -67 1 -86 5 -160 40 -80 38 -90 40 -180 40 -89 0
-102 -3 -176 -37 -92 -41 -144 -52 -208 -43 -41 6 -46 10 -61 49 -9 23 -16 44
-16 47 0 4 42 4 93 1 85 -4 98 -2 157 23 190 80 233 82 371 19z"/>
<path d="M1287 2874 c-4 -4 -7 -96 -7 -204 0 -146 3 -200 13 -207 51 -40 187
-58 250 -34 25 10 28 15 25 48 l-3 38 -92 3 -93 3 -2 177 -3 177 -40 3 c-23 2
-44 0 -48 -4z"/>
<path d="M1632 2868 c-8 -8 -12 -68 -12 -204 l0 -191 55 16 55 16 0 176 c0
191 -2 199 -55 199 -17 0 -36 -5 -43 -12z"/>
<path d="M2354 2866 c-8 -20 0 -353 8 -361 4 -4 32 -4 62 -1 l54 7 -14 27
c-10 20 -14 69 -14 185 l0 157 -45 0 c-30 0 -47 -5 -51 -14z"/>
<path d="M2647 2873 c-4 -3 -7 -78 -7 -165 l0 -160 -30 -30 c-17 -17 -30 -31
-28 -32 79 -39 101 -46 116 -34 35 29 42 74 42 253 l0 175 -43 0 c-24 0 -47
-3 -50 -7z"/>
<path d="M2850 2651 c0 -257 -4 -245 69 -220 l31 11 -2 217 -3 216 -47 3 -48
3 0 -230z"/>
<path d="M3063 2869 c-10 -9 -13 -62 -13 -191 l0 -178 24 0 c13 0 38 3 55 6
l31 7 0 138 0 139 53 0 c64 0 107 -24 130 -73 37 -77 13 -161 -58 -198 l-43
-23 57 -23 c31 -13 61 -23 68 -23 21 0 81 81 92 125 16 63 13 104 -10 155 -25
56 -62 95 -114 123 -32 17 -62 22 -150 25 -81 3 -113 0 -122 -9z"/>
<path d="M2671 1483 c0 -54 -3 -152 -6 -218 -3 -66 -7 -174 -10 -240 -2 -66
-7 -169 -10 -230 -8 -165 -17 -434 -20 -578 -3 -150 -17 -142 130 -76 28 12
52 23 55 24 3 0 20 5 38 9 17 4 32 12 32 17 0 6 5 7 10 4 6 -3 10 -1 10 4 0 6
10 11 23 11 13 0 27 3 31 7 4 5 11 8 14 8 25 2 62 17 62 26 0 6 4 8 9 5 5 -3
33 5 62 18 30 12 67 26 82 30 17 4 25 11 21 18 -4 6 -3 8 3 5 12 -7 75 14 99
33 10 9 15 10 10 3 -5 -9 -2 -11 8 -7 9 3 16 10 16 16 0 5 4 7 9 4 11 -7 91
24 91 36 0 5 4 7 9 4 5 -3 31 3 57 13 27 11 82 32 122 47 40 15 75 31 78 35 6
10 -336 355 -348 351 -5 -1 -7 2 -3 7 6 11 -58 81 -75 81 -6 0 -8 5 -5 11 4 6
-2 13 -14 16 -12 3 -21 12 -21 20 0 8 -4 11 -10 8 -5 -3 -10 -2 -10 2 0 18
-81 93 -93 87 -7 -4 -9 -3 -4 1 10 11 -23 46 -36 38 -6 -4 -7 -1 -2 7 5 8 -5
24 -29 46 -21 19 -40 34 -44 34 -4 0 -12 10 -17 22 -6 13 -24 32 -42 43 -18
11 -32 26 -33 34 0 8 -56 70 -124 138 l-124 123 -1 -97z"/>
</g>
</svg>
