                            <svg  fill="#B99041" viewBox="0 0 24 24" id="down-trend-round" data-name="Flat Color" xmlns="http://www.w3.org/2000/svg" class="icon flat-color" stroke="#B99041">
                              <g id="SVGRepo_bgCarrier" stroke-width="0"></g>
                              <g id="SVGRepo_tracerCarrier" stroke-linecap="round" stroke-linejoin="round"></g>
                              <g id="SVGRepo_iconCarrier"><path id="primary" d="M21,12a1,1,0,0,0-1,1v1.59L14.91,9.5a2,2,0,0,0-2.82,0L9.5,12.09,3.71,6.29A1,1,0,0,0,2.29,7.71l5.8,5.79a2,2,0,0,0,2.82,0l2.59-2.59L18.59,16H17a1,1,0,0,0,0,2h4a1,1,0,0,0,1-1V13A1,1,0,0,0,21,12Z" style="fill: #000"></path></g>
                            </svg>