<svg width="313" height="62" viewBox="0 0 313 62" fill="none" xmlns="http://www.w3.org/2000/svg">
<g clip-path="url(#clip0_1036_5599)">
<path d="M105.643 51.0082C105.643 47.9581 104.419 46.6479 101.581 46.6479C99.1468 46.6479 97.4908 48.0215 97.3705 50.184H98.9557C99.0406 48.6907 100.017 47.8666 101.602 47.8666C103.4 47.8666 104.164 48.733 104.164 50.9025V51.0716L101.815 51.3463C100.138 51.5576 99.1043 51.8535 98.34 52.2902C97.4908 52.8185 97.0449 53.6427 97.0449 54.657C97.0449 56.4673 98.4462 57.6859 100.562 57.6859C102.381 57.6859 103.733 56.8054 104.242 55.3262C104.263 56.1081 104.327 56.8688 104.433 57.4324H105.983C105.75 56.5659 105.643 55.3896 105.643 53.7413V51.0012V51.0082ZM104.178 52.8396C104.178 54.9881 102.862 56.4673 100.895 56.4673C99.4794 56.4673 98.5877 55.7488 98.5877 54.6147C98.5877 53.4807 99.3732 52.8467 101.171 52.5931L104.178 52.1705V52.8467V52.8396Z" fill="#ffffff"/>
<path d="M114.972 47.106C114.398 46.8101 113.698 46.6411 112.898 46.6411C110.527 46.6411 109.041 48.1344 109.041 50.1772C109.041 51.2338 109.444 52.1354 110.145 52.7905C109.232 53.1286 108.638 53.826 108.638 54.8122C108.638 55.594 109.02 56.2632 109.912 56.6295C108.765 56.9888 108.149 57.8481 108.149 58.8625C108.149 60.4685 109.331 61.7928 112.87 61.7928C116.408 61.7928 117.972 60.4826 117.972 58.5032C117.972 56.6718 116.812 55.6363 114.526 55.6363H111.752C110.478 55.6363 109.947 55.115 109.947 54.4318C109.947 53.8894 110.329 53.4879 110.86 53.2766C111.433 53.5724 112.105 53.7415 112.898 53.7415C115.29 53.7415 116.748 52.227 116.748 50.1772C116.748 49.1488 116.366 48.2612 115.686 47.6272C115.962 46.8876 116.557 46.4861 117.427 46.4861C117.682 46.4861 117.894 46.5284 118.085 46.5706V45.2605C117.873 45.2182 117.682 45.2041 117.47 45.2041C116.097 45.2041 115.29 46.0001 114.972 47.0989V47.106ZM110.881 56.8901C111.136 56.9113 111.412 56.9324 111.709 56.9324H114.207C115.729 56.9324 116.493 57.5241 116.493 58.6018C116.493 59.7571 115.672 60.5812 113.047 60.5812C110.973 60.5812 109.6 60.0318 109.6 58.6159C109.6 57.8974 110.025 57.2283 110.888 56.8901H110.881ZM112.898 52.6074C111.412 52.6074 110.442 51.6001 110.442 50.1842C110.442 48.7684 111.419 47.7822 112.898 47.7822C114.377 47.7822 115.354 48.7895 115.354 50.2054C115.354 51.6212 114.377 52.6074 112.898 52.6074Z" fill="#ffffff"/>
<path d="M124.114 46.6479C121.192 46.6479 119.408 48.7752 119.408 52.2268C119.408 55.6784 121.17 57.6859 124.171 57.6859C126.308 57.6859 127.851 56.5941 128.509 54.6359L127.264 54.1287C126.825 55.5657 125.763 56.3828 124.277 56.3828C122.225 56.3828 120.916 54.9247 120.894 52.5508H128.58V51.5365C128.58 48.3385 126.952 46.6479 124.114 46.6479ZM127.073 51.3463H120.887C120.93 49.1768 122.112 47.8243 124.086 47.8243C126.061 47.8243 127.073 48.9866 127.073 51.1561V51.3463Z" fill="#ffffff"/>
<path d="M136.925 46.6055C135.169 46.6055 133.938 47.486 133.308 49.2188V46.9013H131.914V57.4392H133.372V51.9026C133.372 49.4301 134.582 47.9227 136.486 47.9227C138.156 47.9227 139.048 48.9723 139.048 51.015V57.4392H140.534V50.9305C140.534 48.0847 139.309 46.6125 136.932 46.6125L136.925 46.6055Z" fill="#ffffff"/>
<path d="M148.168 47.93C149.775 47.93 150.794 48.8809 150.999 50.6278L152.506 50.4588C152.245 48.0568 150.638 46.6479 148.232 46.6479C145.267 46.6479 143.427 48.733 143.427 52.1705C143.427 55.6079 145.288 57.6859 148.232 57.6859C150.56 57.6859 152.124 56.2983 152.506 53.9174L151.084 53.7061C150.808 55.46 149.81 56.4039 148.225 56.4039C146.194 56.4039 144.984 54.8472 144.984 52.1493C144.984 49.4515 146.194 47.937 148.161 47.937L148.168 47.93Z" fill="#ffffff"/>
<path d="M159.456 46.6479C156.533 46.6479 154.75 48.7752 154.75 52.2268C154.75 55.6784 156.512 57.6859 159.513 57.6859C161.65 57.6859 163.193 56.5941 163.851 54.6359L162.605 54.1287C162.167 55.5657 161.105 56.3828 159.619 56.3828C157.567 56.3828 156.257 54.9247 156.236 52.5508H163.922V51.5365C163.922 48.3385 162.294 46.6479 159.456 46.6479ZM162.421 51.3463H156.243C156.286 49.1768 157.468 47.8243 159.442 47.8243C161.416 47.8243 162.429 48.9866 162.429 51.1561V51.3463H162.421Z" fill="#ffffff"/>
<path d="M179.937 48.8175C179.3 47.3382 178.14 46.6479 176.618 46.6479C173.929 46.6479 172.089 48.9231 172.089 52.1704C172.089 55.4177 173.823 57.6859 176.448 57.6859C178.147 57.6859 179.414 56.7631 180.029 55.1993V57.4323H181.423V42.1538H179.937V48.8175ZM179.966 52.3958C179.966 54.7344 178.755 56.3827 176.809 56.3827C174.863 56.3827 173.653 54.7767 173.653 52.1704C173.653 49.5641 174.835 47.9581 176.83 47.9581C178.826 47.9581 179.966 49.5571 179.966 51.9661V52.4029V52.3958Z" fill="#ffffff"/>
<path d="M185.267 44.8378H186.328V44.9012C186.328 45.8662 186.158 46.3804 185.21 46.8594L185.613 47.6202C186.887 47.0285 187.284 46.2748 187.284 44.711V42.478H185.274V44.8378H185.267Z" fill="#ffffff"/>
<path d="M198.393 51.0082C198.393 47.9581 197.169 46.6479 194.331 46.6479C191.897 46.6479 190.241 48.0215 190.12 50.184H191.706C191.791 48.6907 192.767 47.8666 194.352 47.8666C196.15 47.8666 196.914 48.733 196.914 50.9025V51.0716L194.565 51.3463C192.888 51.5576 191.854 51.8535 191.09 52.2902C190.241 52.8185 189.795 53.6427 189.795 54.657C189.795 56.4673 191.196 57.6859 193.312 57.6859C195.131 57.6859 196.49 56.8054 196.999 55.3262C197.02 56.1081 197.084 56.8688 197.19 57.4324H198.74C198.507 56.5659 198.401 55.3896 198.401 53.7413V51.0012L198.393 51.0082ZM196.928 52.8396C196.928 54.9881 195.612 56.4673 193.645 56.4673C192.229 56.4673 191.338 55.7488 191.338 54.6147C191.338 53.4807 192.116 52.8467 193.921 52.5931L196.928 52.1705V52.8467V52.8396Z" fill="#ffffff"/>
<path d="M203.716 49.4724V46.9013H202.343V57.4392H203.801V52.614C203.801 51.2898 203.992 49.8739 204.961 48.9089C205.492 48.4088 206.207 48.1059 207.233 48.1059H207.403V46.6759C207.254 46.6548 207.148 46.6548 206.999 46.6548C205.372 46.6548 204.211 47.8593 203.716 49.4794V49.4724Z" fill="#ffffff"/>
<path d="M212.562 43.4854L211.076 44.1193V46.9017H209.13V48.1274H211.076V54.5092C211.076 56.383 211.777 57.6298 213.829 57.6298C214.423 57.6298 214.848 57.5734 215.287 57.4396V56.0942C214.926 56.1787 214.629 56.2421 214.204 56.2421C213.1 56.2421 212.555 55.6926 212.555 54.4529V48.1344H215.287V46.9087H212.555V43.4994L212.562 43.4854Z" fill="#ffffff"/>
<path d="M13.3249 10.1177H22.6736V19.9723C20.4302 22.7124 16.828 24.572 12.4403 24.572C5.40582 24.572 -0.000976562 19.289 -0.000976562 12.4211C-0.000976562 5.55317 5.47659 0.199707 12.5111 0.199707C16.3893 0.199707 19.7579 1.82688 22.0013 4.39795L19.0785 7.34235C17.5782 5.44751 15.2994 4.26411 12.5111 4.26411C7.74829 4.26411 4.14612 7.7509 4.14612 12.4211C4.14612 17.0913 7.6846 20.5147 12.4828 20.5147C15.0659 20.5147 17.2031 19.5285 18.7034 18.0774V14.0483H13.332V10.1247L13.3249 10.1177Z" fill="#ffffff"/>
<path d="M45.0004 24.2344L42.382 17.7046H31.8444L29.2259 24.2344H24.9443L34.9299 0.333984H39.2823L49.3103 24.2344H44.9934H45.0004ZM33.373 13.8796H40.8533L37.1167 4.57449L33.3801 13.8796H33.373Z" fill="#ffffff"/>
<path d="M57.456 0.544922V20.3386H68.4748V24.234H53.4434V0.544922H57.456Z" fill="#ffffff"/>
<path d="M72.7568 24.234V0.544922H86.5286V4.43322H76.7695V9.8853H86.2597V13.8088H76.7695V20.3386H86.5286V24.234H72.7568Z" fill="#ffffff"/>
<path d="M110.003 24.234H105.24L99.7626 15.8727H96.2949V24.234H92.2822V0.544922H101.022C106.125 0.544922 109.423 3.58794 109.423 8.19473C109.423 11.7449 107.448 14.4217 104.186 15.436L110.003 24.241V24.234ZM96.3019 4.46844V12.1183H100.959C103.641 12.1183 105.346 10.6954 105.346 8.29335C105.346 5.89134 103.648 4.47549 100.959 4.47549H96.3019V4.46844Z" fill="#ffffff"/>
<path d="M118.75 0.544922V24.234H114.737V0.544922H118.75Z" fill="#ffffff"/>
<path d="M125.212 24.234V0.544922H138.984V4.43322H129.225V9.8853H138.715V13.8088H129.225V20.3386H138.984V24.234H125.212Z" fill="#ffffff"/>
<path d="M156.201 24.234V0.544922H164.835C169.938 0.544922 173.235 3.62316 173.235 8.32857C173.235 13.034 169.945 16.1474 164.835 16.1474H160.214V24.241H156.201V24.234ZM160.214 12.1887H164.708C167.425 12.1887 169.095 10.7306 169.095 8.32857C169.095 5.92656 167.425 4.53184 164.708 4.53184H160.214V12.1817V12.1887Z" fill="#ffffff"/>
<path d="M193.893 24.2344L191.275 17.7046H180.737L178.118 24.2344H173.837L183.823 0.333984H188.175L198.203 24.2344H193.886H193.893ZM182.259 13.8796H189.739L186.002 4.57449L182.266 13.8796H182.259Z" fill="#ffffff"/>
<path d="M220.05 24.234H215.287L209.809 15.8727H206.342V24.234H202.329V0.544922H211.069C216.172 0.544922 219.469 3.58794 219.469 8.19473C219.469 11.7449 217.495 14.4217 214.233 15.436L220.05 24.241V24.234ZM206.349 4.46844V12.1183H211.005C213.688 12.1183 215.393 10.6954 215.393 8.29335C215.393 5.89134 213.695 4.47549 211.005 4.47549H206.349V4.46844Z" fill="#ffffff"/>
<path d="M242.534 24.2344L239.915 17.7046H229.378L226.759 24.2344H222.478L232.47 0.333984H236.823L246.851 24.2344H242.534ZM230.906 13.8796H238.387L234.65 4.57449L230.913 13.8796H230.906Z" fill="#ffffff"/>
<path d="M248.557 20.5783L251.451 17.8029C253.256 19.733 255.018 20.6839 256.929 20.6839C259.144 20.6839 260.708 19.4301 260.708 17.6691C260.708 16.38 259.859 15.4995 258.125 14.6895L254.247 12.858C251.147 11.4704 249.618 9.40646 249.618 6.69451C249.618 2.87665 252.675 0.192871 256.999 0.192871C259.823 0.192871 262.435 1.31287 264.48 3.41199L261.861 6.25073C260.297 4.72922 258.528 4.01778 256.999 4.01778C255.131 4.01778 253.772 5.06734 253.772 6.56067C253.772 7.68067 254.523 8.51891 256.285 9.37124L260.227 11.1604C263.496 12.6538 264.848 14.8867 264.848 17.5564C264.848 21.6842 261.585 24.5582 256.929 24.5582C253.871 24.5582 250.977 23.3114 248.564 20.5642L248.557 20.5783Z" fill="#ffffff"/>
<path d="M267.473 12.3859C267.473 5.48273 272.95 0.199707 280.02 0.199707C287.09 0.199707 292.362 5.48273 292.362 12.3859C292.362 19.289 286.991 24.572 279.914 24.572C272.837 24.572 267.473 19.289 267.473 12.3859ZM288.215 12.3859C288.215 7.7509 284.712 4.26411 280.02 4.26411C275.328 4.26411 271.655 7.7509 271.655 12.3859C271.655 17.0208 275.194 20.5147 279.914 20.5147C284.634 20.5147 288.215 17.0279 288.215 12.3859Z" fill="#ffffff"/>
<path d="M301.181 0.544922V20.3386H312.199V24.234H297.168V0.544922H301.181Z" fill="#ffffff"/>
</g>
<defs>
<clipPath id="clip0_1036_5599">
<rect width="312.2" height="61.6" fill="white" transform="translate(0 0.200195)"/>
</clipPath>
</defs>
</svg>
