<?xml version="1.0" encoding="UTF-8"?>
<svg version="1.1" xmlns="http://www.w3.org/2000/svg" width="650" height="300">
<path d="M0 0 C4.62 0 9.24 0 14 0 C14 3.3 14 6.6 14 10 C13.34 10 12.68 10 12 10 C12 11.32 12 12.64 12 14 C11.34 14 10.68 14 10 14 C10 15.32 10 16.64 10 18 C9.34 18 8.68 18 8 18 C8 18.66 8 19.32 8 20 C7.34 20 6.68 20 6 20 C6 20.66 6 21.32 6 22 C5.34 22 4.68 22 4 22 C4 23.32 4 24.64 4 26 C5.32 26 6.64 26 8 26 C8 24.68 8 23.36 8 22 C8.66 22 9.32 22 10 22 C10 21.34 10 20.68 10 20 C11.98 20 13.96 20 16 20 C16 21.98 16 23.96 16 26 C15.34 26 14.68 26 14 26 C14 26.66 14 27.32 14 28 C17.96 28 21.92 28 26 28 C26 29.98 26 31.96 26 34 C25.34 34 24.68 34 24 34 C24 34.66 24 35.32 24 36 C23.34 36 22.68 36 22 36 C22 37.32 22 38.64 22 40 C21.34 40 20.68 40 20 40 C20 40.66 20 41.32 20 42 C19.34 42 18.68 42 18 42 C18 43.32 18 44.64 18 46 C17.34 46 16.68 46 16 46 C16 47.32 16 48.64 16 50 C15.34 50 14.68 50 14 50 C14 51.32 14 52.64 14 54 C15.32 54 16.64 54 18 54 C18 53.34 18 52.68 18 52 C18.66 52 19.32 52 20 52 C20 51.34 20 50.68 20 50 C20.66 50 21.32 50 22 50 C22 49.34 22 48.68 22 48 C22.66 48 23.32 48 24 48 C24 47.34 24 46.68 24 46 C24.66 46 25.32 46 26 46 C26 45.34 26 44.68 26 44 C26.66 44 27.32 44 28 44 C28 42.68 28 41.36 28 40 C28.66 40 29.32 40 30 40 C30 39.34 30 38.68 30 38 C31.32 38 32.64 38 34 38 C34 37.34 34 36.68 34 36 C34.66 36 35.32 36 36 36 C36 35.34 36 34.68 36 34 C36.66 34 37.32 34 38 34 C38 33.34 38 32.68 38 32 C39.32 32 40.64 32 42 32 C42 31.34 42 30.68 42 30 C43.32 30 44.64 30 46 30 C46 29.34 46 28.68 46 28 C50.62 28 55.24 28 60 28 C60 28.66 60 29.32 60 30 C60.66 30 61.32 30 62 30 C62 33.3 62 36.6 62 40 C61.34 40 60.68 40 60 40 C60 41.32 60 42.64 60 44 C59.34 44 58.68 44 58 44 C58 45.98 58 47.96 58 50 C57.34 50 56.68 50 56 50 C56 51.32 56 52.64 56 54 C57.98 54 59.96 54 62 54 C62 53.34 62 52.68 62 52 C62.66 52 63.32 52 64 52 C64 51.34 64 50.68 64 50 C64.66 50 65.32 50 66 50 C66 49.34 66 48.68 66 48 C66.66 48 67.32 48 68 48 C68 47.34 68 46.68 68 46 C68.66 46 69.32 46 70 46 C70 44.68 70 43.36 70 42 C70.66 42 71.32 42 72 42 C72 41.34 72 40.68 72 40 C72.66 40 73.32 40 74 40 C74 39.34 74 38.68 74 38 C74.66 38 75.32 38 76 38 C76 37.34 76 36.68 76 36 C76.66 36 77.32 36 78 36 C78 34.02 78 32.04 78 30 C79.32 30 80.64 30 82 30 C82 28.68 82 27.36 82 26 C82.66 26 83.32 26 84 26 C84 24.68 84 23.36 84 22 C84.66 22 85.32 22 86 22 C86 20.68 86 19.36 86 18 C86.66 18 87.32 18 88 18 C88 16.68 88 15.36 88 14 C88.66 14 89.32 14 90 14 C90 13.34 90 12.68 90 12 C90.66 12 91.32 12 92 12 C92 10.68 92 9.36 92 8 C92.66 8 93.32 8 94 8 C94 7.34 94 6.68 94 6 C94.66 6 95.32 6 96 6 C96 5.34 96 4.68 96 4 C96.66 4 97.32 4 98 4 C98 3.34 98 2.68 98 2 C98.66 2 99.32 2 100 2 C100 1.34 100 0.68 100 0 C104.62 0 109.24 0 114 0 C114 0.66 114 1.32 114 2 C114.66 2 115.32 2 116 2 C116 3.98 116 5.96 116 8 C115.34 8 114.68 8 114 8 C114 9.32 114 10.64 114 12 C113.34 12 112.68 12 112 12 C112 12.66 112 13.32 112 14 C111.34 14 110.68 14 110 14 C110 15.32 110 16.64 110 18 C109.34 18 108.68 18 108 18 C108 18.66 108 19.32 108 20 C107.34 20 106.68 20 106 20 C106 20.66 106 21.32 106 22 C104.68 22 103.36 22 102 22 C102 22.66 102 23.32 102 24 C101.34 24 100.68 24 100 24 C100 24.66 100 25.32 100 26 C99.34 26 98.68 26 98 26 C98 26.66 98 27.32 98 28 C97.34 28 96.68 28 96 28 C96 28.66 96 29.32 96 30 C97.32 30 98.64 30 100 30 C100 29.34 100 28.68 100 28 C101.98 28 103.96 28 106 28 C106 28.66 106 29.32 106 30 C106.66 30 107.32 30 108 30 C108 31.32 108 32.64 108 34 C107.34 34 106.68 34 106 34 C106 35.32 106 36.64 106 38 C105.34 38 104.68 38 104 38 C104 39.32 104 40.64 104 42 C103.34 42 102.68 42 102 42 C102 43.32 102 44.64 102 46 C101.34 46 100.68 46 100 46 C100 49.3 100 52.6 100 56 C100.66 56 101.32 56 102 56 C102 55.34 102 54.68 102 54 C102.66 54 103.32 54 104 54 C104 53.34 104 52.68 104 52 C104.66 52 105.32 52 106 52 C106 51.34 106 50.68 106 50 C106.66 50 107.32 50 108 50 C108 49.34 108 48.68 108 48 C108.66 48 109.32 48 110 48 C110 47.34 110 46.68 110 46 C110.66 46 111.32 46 112 46 C112 45.34 112 44.68 112 44 C112.66 44 113.32 44 114 44 C114 43.34 114 42.68 114 42 C114.66 42 115.32 42 116 42 C116 41.34 116 40.68 116 40 C116.66 40 117.32 40 118 40 C118 38.68 118 37.36 118 36 C118.66 36 119.32 36 120 36 C120 34.68 120 33.36 120 32 C120.66 32 121.32 32 122 32 C122 31.34 122 30.68 122 30 C124.64 30 127.28 30 130 30 C130 31.98 130 33.96 130 36 C129.34 36 128.68 36 128 36 C128 37.32 128 38.64 128 40 C128.66 40 129.32 40 130 40 C130 39.34 130 38.68 130 38 C130.66 38 131.32 38 132 38 C132 37.34 132 36.68 132 36 C132.66 36 133.32 36 134 36 C134 35.34 134 34.68 134 34 C134.66 34 135.32 34 136 34 C136 33.34 136 32.68 136 32 C136.66 32 137.32 32 138 32 C138 31.34 138 30.68 138 30 C139.32 30 140.64 30 142 30 C142 29.34 142 28.68 142 28 C143.98 28 145.96 28 148 28 C148 30.64 148 33.28 148 36 C149.32 36 150.64 36 152 36 C152 35.34 152 34.68 152 34 C155.3 34 158.6 34 162 34 C162 35.32 162 36.64 162 38 C161.34 38 160.68 38 160 38 C160 39.32 160 40.64 160 42 C159.34 42 158.68 42 158 42 C158 43.98 158 45.96 158 48 C157.34 48 156.68 48 156 48 C156 50.64 156 53.28 156 56 C156.66 56 157.32 56 158 56 C158 55.34 158 54.68 158 54 C158.66 54 159.32 54 160 54 C160 53.34 160 52.68 160 52 C160.66 52 161.32 52 162 52 C162 51.34 162 50.68 162 50 C163.32 50 164.64 50 166 50 C166 48.68 166 47.36 166 46 C166.66 46 167.32 46 168 46 C168 45.34 168 44.68 168 44 C168.66 44 169.32 44 170 44 C170 43.34 170 42.68 170 42 C170.66 42 171.32 42 172 42 C172 41.34 172 40.68 172 40 C172.66 40 173.32 40 174 40 C174 39.34 174 38.68 174 38 C174.66 38 175.32 38 176 38 C176 37.34 176 36.68 176 36 C176.66 36 177.32 36 178 36 C178 35.34 178 34.68 178 34 C179.32 34 180.64 34 182 34 C182 33.34 182 32.68 182 32 C183.32 32 184.64 32 186 32 C186 31.34 186 30.68 186 30 C187.32 30 188.64 30 190 30 C190 29.34 190 28.68 190 28 C193.96 28 197.92 28 202 28 C202 28.66 202 29.32 202 30 C202.66 30 203.32 30 204 30 C204 31.98 204 33.96 204 36 C204.66 36 205.32 36 206 36 C206 36.66 206 37.32 206 38 C205.34 38 204.68 38 204 38 C204 39.32 204 40.64 204 42 C203.34 42 202.68 42 202 42 C202 43.32 202 44.64 202 46 C201.34 46 200.68 46 200 46 C200 49.3 200 52.6 200 56 C200.66 56 201.32 56 202 56 C202 55.34 202 54.68 202 54 C202.66 54 203.32 54 204 54 C204 53.34 204 52.68 204 52 C204.66 52 205.32 52 206 52 C206 51.34 206 50.68 206 50 C206.66 50 207.32 50 208 50 C208 49.34 208 48.68 208 48 C208.66 48 209.32 48 210 48 C210 47.34 210 46.68 210 46 C210.66 46 211.32 46 212 46 C212 45.34 212 44.68 212 44 C212.66 44 213.32 44 214 44 C214 42.68 214 41.36 214 40 C214.66 40 215.32 40 216 40 C216 38.68 216 37.36 216 36 C216.66 36 217.32 36 218 36 C218 34.02 218 32.04 218 30 C220.64 30 223.28 30 226 30 C226 31.98 226 33.96 226 36 C225.34 36 224.68 36 224 36 C224 37.32 224 38.64 224 40 C224.66 40 225.32 40 226 40 C226 39.34 226 38.68 226 38 C226.66 38 227.32 38 228 38 C228 37.34 228 36.68 228 36 C228.66 36 229.32 36 230 36 C230 35.34 230 34.68 230 34 C230.66 34 231.32 34 232 34 C232 33.34 232 32.68 232 32 C232.66 32 233.32 32 234 32 C234 31.34 234 30.68 234 30 C235.32 30 236.64 30 238 30 C238 29.34 238 28.68 238 28 C239.98 28 241.96 28 244 28 C244 28.66 244 29.32 244 30 C244.66 30 245.32 30 246 30 C246 31.32 246 32.64 246 34 C245.34 34 244.68 34 244 34 C244 35.98 244 37.96 244 40 C243.34 40 242.68 40 242 40 C242 40.66 242 41.32 242 42 C241.34 42 240.68 42 240 42 C240 43.98 240 45.96 240 48 C239.34 48 238.68 48 238 48 C238 50.64 238 53.28 238 56 C238.66 56 239.32 56 240 56 C240 55.34 240 54.68 240 54 C240.66 54 241.32 54 242 54 C242 53.34 242 52.68 242 52 C243.32 52 244.64 52 246 52 C246 51.34 246 50.68 246 50 C246.66 50 247.32 50 248 50 C248 49.34 248 48.68 248 48 C248.66 48 249.32 48 250 48 C250 47.34 250 46.68 250 46 C250.66 46 251.32 46 252 46 C252 44.68 252 43.36 252 42 C253.98 42 255.96 42 258 42 C258 43.32 258 44.64 258 46 C257.34 46 256.68 46 256 46 C256 46.66 256 47.32 256 48 C255.34 48 254.68 48 254 48 C254 48.66 254 49.32 254 50 C253.34 50 252.68 50 252 50 C252 50.66 252 51.32 252 52 C251.34 52 250.68 52 250 52 C250 52.66 250 53.32 250 54 C249.34 54 248.68 54 248 54 C248 54.66 248 55.32 248 56 C247.34 56 246.68 56 246 56 C246 56.66 246 57.32 246 58 C244.68 58 243.36 58 242 58 C242 58.66 242 59.32 242 60 C238.7 60 235.4 60 232 60 C232 59.34 232 58.68 232 58 C231.34 58 230.68 58 230 58 C230 54.04 230 50.08 230 46 C230.66 46 231.32 46 232 46 C232 44.68 232 43.36 232 42 C231.34 42 230.68 42 230 42 C230 42.66 230 43.32 230 44 C229.34 44 228.68 44 228 44 C228 44.66 228 45.32 228 46 C227.34 46 226.68 46 226 46 C226 46.66 226 47.32 226 48 C225.34 48 224.68 48 224 48 C224 48.66 224 49.32 224 50 C223.34 50 222.68 50 222 50 C222 51.32 222 52.64 222 54 C221.34 54 220.68 54 220 54 C220 54.66 220 55.32 220 56 C219.34 56 218.68 56 218 56 C218 56.66 218 57.32 218 58 C217.34 58 216.68 58 216 58 C216 58.66 216 59.32 216 60 C213.36 60 210.72 60 208 60 C208 59.34 208 58.68 208 58 C206.68 58 205.36 58 204 58 C204 58.66 204 59.32 204 60 C200.7 60 197.4 60 194 60 C194 59.34 194 58.68 194 58 C193.34 58 192.68 58 192 58 C192 55.36 192 52.72 192 50 C191.34 50 190.68 50 190 50 C190 50.66 190 51.32 190 52 C189.34 52 188.68 52 188 52 C188 52.66 188 53.32 188 54 C187.34 54 186.68 54 186 54 C186 54.66 186 55.32 186 56 C185.34 56 184.68 56 184 56 C184 56.66 184 57.32 184 58 C179.38 58 174.76 58 170 58 C170 57.34 170 56.68 170 56 C169.34 56 168.68 56 168 56 C168 55.34 168 54.68 168 54 C167.34 54 166.68 54 166 54 C166 54.66 166 55.32 166 56 C165.34 56 164.68 56 164 56 C164 56.66 164 57.32 164 58 C162.68 58 161.36 58 160 58 C160 58.66 160 59.32 160 60 C156.7 60 153.4 60 150 60 C150 59.34 150 58.68 150 58 C149.34 58 148.68 58 148 58 C148 54.04 148 50.08 148 46 C148.66 46 149.32 46 150 46 C150 44.68 150 43.36 150 42 C149.34 42 148.68 42 148 42 C148 42.66 148 43.32 148 44 C147.34 44 146.68 44 146 44 C146 44.66 146 45.32 146 46 C145.34 46 144.68 46 144 46 C144 46.66 144 47.32 144 48 C143.34 48 142.68 48 142 48 C142 48.66 142 49.32 142 50 C141.34 50 140.68 50 140 50 C140 50.66 140 51.32 140 52 C139.34 52 138.68 52 138 52 C138 52.66 138 53.32 138 54 C136.68 54 135.36 54 134 54 C134 53.34 134 52.68 134 52 C133.34 52 132.68 52 132 52 C132 51.34 132 50.68 132 50 C132.66 50 133.32 50 134 50 C134 48.68 134 47.36 134 46 C134.66 46 135.32 46 136 46 C136 44.68 136 43.36 136 42 C136.66 42 137.32 42 138 42 C138 40.68 138 39.36 138 38 C137.34 38 136.68 38 136 38 C136 38.66 136 39.32 136 40 C135.34 40 134.68 40 134 40 C134 40.66 134 41.32 134 42 C133.34 42 132.68 42 132 42 C132 42.66 132 43.32 132 44 C131.34 44 130.68 44 130 44 C130 45.32 130 46.64 130 48 C129.34 48 128.68 48 128 48 C128 48.66 128 49.32 128 50 C127.34 50 126.68 50 126 50 C126 50.66 126 51.32 126 52 C125.34 52 124.68 52 124 52 C124 53.32 124 54.64 124 56 C123.34 56 122.68 56 122 56 C122 56.66 122 57.32 122 58 C121.34 58 120.68 58 120 58 C120 58.66 120 59.32 120 60 C117.36 60 114.72 60 112 60 C112 58.68 112 57.36 112 56 C112.66 56 113.32 56 114 56 C114 54.68 114 53.36 114 52 C113.34 52 112.68 52 112 52 C112 52.66 112 53.32 112 54 C111.34 54 110.68 54 110 54 C110 54.66 110 55.32 110 56 C109.34 56 108.68 56 108 56 C108 56.66 108 57.32 108 58 C106.68 58 105.36 58 104 58 C104 58.66 104 59.32 104 60 C100.7 60 97.4 60 94 60 C94 59.34 94 58.68 94 58 C93.34 58 92.68 58 92 58 C92 54.04 92 50.08 92 46 C92.66 46 93.32 46 94 46 C94 44.68 94 43.36 94 42 C94.66 42 95.32 42 96 42 C96 41.34 96 40.68 96 40 C94.68 40 93.36 40 92 40 C92 41.32 92 42.64 92 44 C91.34 44 90.68 44 90 44 C90 44.66 90 45.32 90 46 C89.34 46 88.68 46 88 46 C88 46.66 88 47.32 88 48 C87.34 48 86.68 48 86 48 C86 48.66 86 49.32 86 50 C85.34 50 84.68 50 84 50 C84 51.32 84 52.64 84 54 C83.34 54 82.68 54 82 54 C82 54.66 82 55.32 82 56 C81.34 56 80.68 56 80 56 C80 56.66 80 57.32 80 58 C79.34 58 78.68 58 78 58 C78 58.66 78 59.32 78 60 C75.36 60 72.72 60 70 60 C70 58.68 70 57.36 70 56 C70.66 56 71.32 56 72 56 C72 54.68 72 53.36 72 52 C72.66 52 73.32 52 74 52 C74 50.68 74 49.36 74 48 C73.34 48 72.68 48 72 48 C72 48.66 72 49.32 72 50 C71.34 50 70.68 50 70 50 C70 50.66 70 51.32 70 52 C69.34 52 68.68 52 68 52 C68 52.66 68 53.32 68 54 C67.34 54 66.68 54 66 54 C66 54.66 66 55.32 66 56 C65.34 56 64.68 56 64 56 C64 56.66 64 57.32 64 58 C62.68 58 61.36 58 60 58 C60 58.66 60 59.32 60 60 C56.7 60 53.4 60 50 60 C50 58.68 50 57.36 50 56 C49.34 56 48.68 56 48 56 C48 54.68 48 53.36 48 52 C47.34 52 46.68 52 46 52 C46 52.66 46 53.32 46 54 C44.68 54 43.36 54 42 54 C42 54.66 42 55.32 42 56 C41.34 56 40.68 56 40 56 C40 56.66 40 57.32 40 58 C36.04 58 32.08 58 28 58 C28 57.34 28 56.68 28 56 C27.34 56 26.68 56 26 56 C26 55.34 26 54.68 26 54 C25.34 54 24.68 54 24 54 C24 54.66 24 55.32 24 56 C22.68 56 21.36 56 20 56 C20 56.66 20 57.32 20 58 C19.34 58 18.68 58 18 58 C18 58.66 18 59.32 18 60 C14.04 60 10.08 60 6 60 C6 58.68 6 57.36 6 56 C5.34 56 4.68 56 4 56 C4 54.02 4 52.04 4 50 C4.66 50 5.32 50 6 50 C6 48.68 6 47.36 6 46 C6.66 46 7.32 46 8 46 C8 45.34 8 44.68 8 44 C8.66 44 9.32 44 10 44 C10 42.68 10 41.36 10 40 C10.66 40 11.32 40 12 40 C12 39.34 12 38.68 12 38 C12.66 38 13.32 38 14 38 C14 37.34 14 36.68 14 36 C14.66 36 15.32 36 16 36 C16 35.34 16 34.68 16 34 C15.34 34 14.68 34 14 34 C14 33.34 14 32.68 14 32 C12.68 32 11.36 32 10 32 C10 33.32 10 34.64 10 36 C9.34 36 8.68 36 8 36 C8 36.66 8 37.32 8 38 C7.34 38 6.68 38 6 38 C6 38.66 6 39.32 6 40 C5.34 40 4.68 40 4 40 C4 41.32 4 42.64 4 44 C3.34 44 2.68 44 2 44 C2 44.66 2 45.32 2 46 C1.34 46 0.68 46 0 46 C0 46.66 0 47.32 0 48 C-0.66 48 -1.32 48 -2 48 C-2 48.66 -2 49.32 -2 50 C-2.66 50 -3.32 50 -4 50 C-4 50.66 -4 51.32 -4 52 C-4.66 52 -5.32 52 -6 52 C-6 52.66 -6 53.32 -6 54 C-6.66 54 -7.32 54 -8 54 C-8 54.66 -8 55.32 -8 56 C-8.66 56 -9.32 56 -10 56 C-10 56.66 -10 57.32 -10 58 C-10.66 58 -11.32 58 -12 58 C-12 58.66 -12 59.32 -12 60 C-15.96 60 -19.92 60 -24 60 C-24 59.34 -24 58.68 -24 58 C-24.66 58 -25.32 58 -26 58 C-26 56.02 -26 54.04 -26 52 C-26.66 52 -27.32 52 -28 52 C-28 52.66 -28 53.32 -28 54 C-28.66 54 -29.32 54 -30 54 C-30 54.66 -30 55.32 -30 56 C-30.66 56 -31.32 56 -32 56 C-32 56.66 -32 57.32 -32 58 C-33.32 58 -34.64 58 -36 58 C-36 58.66 -36 59.32 -36 60 C-39.3 60 -42.6 60 -46 60 C-46 59.34 -46 58.68 -46 58 C-46.66 58 -47.32 58 -48 58 C-48 56.02 -48 54.04 -48 52 C-48.66 52 -49.32 52 -50 52 C-50 53.32 -50 54.64 -50 56 C-51.32 56 -52.64 56 -54 56 C-54 56.66 -54 57.32 -54 58 C-57.96 58 -61.92 58 -66 58 C-66 57.34 -66 56.68 -66 56 C-66.66 56 -67.32 56 -68 56 C-68 51.38 -68 46.76 -68 42 C-67.34 42 -66.68 42 -66 42 C-66 40.68 -66 39.36 -66 38 C-65.34 38 -64.68 38 -64 38 C-64 37.34 -64 36.68 -64 36 C-63.34 36 -62.68 36 -62 36 C-62 34.68 -62 33.36 -62 32 C-58.7 32 -55.4 32 -52 32 C-52 33.32 -52 34.64 -52 36 C-52.66 36 -53.32 36 -54 36 C-54 36.66 -54 37.32 -54 38 C-54.66 38 -55.32 38 -56 38 C-56 39.32 -56 40.64 -56 42 C-56.66 42 -57.32 42 -58 42 C-58 42.66 -58 43.32 -58 44 C-58.66 44 -59.32 44 -60 44 C-60 45.32 -60 46.64 -60 48 C-60.66 48 -61.32 48 -62 48 C-62 49.98 -62 51.96 -62 54 C-60.68 54 -59.36 54 -58 54 C-58 53.34 -58 52.68 -58 52 C-56.68 52 -55.36 52 -54 52 C-54 51.34 -54 50.68 -54 50 C-53.34 50 -52.68 50 -52 50 C-52 48.68 -52 47.36 -52 46 C-51.34 46 -50.68 46 -50 46 C-50 45.34 -50 44.68 -50 44 C-49.34 44 -48.68 44 -48 44 C-48 43.34 -48 42.68 -48 42 C-47.34 42 -46.68 42 -46 42 C-46 40.68 -46 39.36 -46 38 C-45.34 38 -44.68 38 -44 38 C-44 37.34 -44 36.68 -44 36 C-43.34 36 -42.68 36 -42 36 C-42 34.68 -42 33.36 -42 32 C-41.34 32 -40.68 32 -40 32 C-40 30.68 -40 29.36 -40 28 C-37.36 28 -34.72 28 -32 28 C-32 28.66 -32 29.32 -32 30 C-31.34 30 -30.68 30 -30 30 C-30 30.66 -30 31.32 -30 32 C-30.66 32 -31.32 32 -32 32 C-32 33.32 -32 34.64 -32 36 C-32.66 36 -33.32 36 -34 36 C-34 37.32 -34 38.64 -34 40 C-34.66 40 -35.32 40 -36 40 C-36 40.66 -36 41.32 -36 42 C-36.66 42 -37.32 42 -38 42 C-38 43.98 -38 45.96 -38 48 C-38.66 48 -39.32 48 -40 48 C-40 50.64 -40 53.28 -40 56 C-39.34 56 -38.68 56 -38 56 C-38 55.34 -38 54.68 -38 54 C-37.34 54 -36.68 54 -36 54 C-36 53.34 -36 52.68 -36 52 C-34.68 52 -33.36 52 -32 52 C-32 51.34 -32 50.68 -32 50 C-31.34 50 -30.68 50 -30 50 C-30 49.34 -30 48.68 -30 48 C-29.34 48 -28.68 48 -28 48 C-28 47.34 -28 46.68 -28 46 C-27.34 46 -26.68 46 -26 46 C-26 44.68 -26 43.36 -26 42 C-25.34 42 -24.68 42 -24 42 C-24 40.68 -24 39.36 -24 38 C-23.34 38 -22.68 38 -22 38 C-22 36.02 -22 34.04 -22 32 C-21.34 32 -20.68 32 -20 32 C-20 30.68 -20 29.36 -20 28 C-19.34 28 -18.68 28 -18 28 C-18 26.68 -18 25.36 -18 24 C-17.34 24 -16.68 24 -16 24 C-16 22.68 -16 21.36 -16 20 C-15.34 20 -14.68 20 -14 20 C-14 19.34 -14 18.68 -14 18 C-13.34 18 -12.68 18 -12 18 C-12 16.68 -12 15.36 -12 14 C-11.34 14 -10.68 14 -10 14 C-10 12.68 -10 11.36 -10 10 C-9.34 10 -8.68 10 -8 10 C-8 9.34 -8 8.68 -8 8 C-7.34 8 -6.68 8 -6 8 C-6 7.34 -6 6.68 -6 6 C-5.34 6 -4.68 6 -4 6 C-4 5.34 -4 4.68 -4 4 C-3.34 4 -2.68 4 -2 4 C-2 3.34 -2 2.68 -2 2 C-1.34 2 -0.68 2 0 2 C0 1.34 0 0.68 0 0 Z M6 4 C6 4.66 6 5.32 6 6 C5.34 6 4.68 6 4 6 C4 6.66 4 7.32 4 8 C3.34 8 2.68 8 2 8 C2 8.66 2 9.32 2 10 C1.34 10 0.68 10 0 10 C0 10.66 0 11.32 0 12 C-0.66 12 -1.32 12 -2 12 C-2 13.32 -2 14.64 -2 16 C-2.66 16 -3.32 16 -4 16 C-4 16.66 -4 17.32 -4 18 C-4.66 18 -5.32 18 -6 18 C-6 19.32 -6 20.64 -6 22 C-6.66 22 -7.32 22 -8 22 C-8 23.32 -8 24.64 -8 26 C-8.66 26 -9.32 26 -10 26 C-10 27.32 -10 28.64 -10 30 C-9.34 30 -8.68 30 -8 30 C-8 29.34 -8 28.68 -8 28 C-7.34 28 -6.68 28 -6 28 C-6 27.34 -6 26.68 -6 26 C-5.34 26 -4.68 26 -4 26 C-4 25.34 -4 24.68 -4 24 C-3.34 24 -2.68 24 -2 24 C-2 22.68 -2 21.36 -2 20 C-1.34 20 -0.68 20 0 20 C0 19.34 0 18.68 0 18 C0.66 18 1.32 18 2 18 C2 16.68 2 15.36 2 14 C2.66 14 3.32 14 4 14 C4 13.34 4 12.68 4 12 C4.66 12 5.32 12 6 12 C6 10.68 6 9.36 6 8 C6.66 8 7.32 8 8 8 C8 6.68 8 5.36 8 4 C7.34 4 6.68 4 6 4 Z M108 4 C108 4.66 108 5.32 108 6 C108.66 6 109.32 6 110 6 C110 5.34 110 4.68 110 4 C109.34 4 108.68 4 108 4 Z M106 6 C106 6.66 106 7.32 106 8 C105.34 8 104.68 8 104 8 C104 8.66 104 9.32 104 10 C103.34 10 102.68 10 102 10 C102 10.66 102 11.32 102 12 C101.34 12 100.68 12 100 12 C100 12.66 100 13.32 100 14 C99.34 14 98.68 14 98 14 C98 14.66 98 15.32 98 16 C97.34 16 96.68 16 96 16 C96 17.32 96 18.64 96 20 C95.34 20 94.68 20 94 20 C94 21.32 94 22.64 94 24 C94.66 24 95.32 24 96 24 C96 23.34 96 22.68 96 22 C96.66 22 97.32 22 98 22 C98 21.34 98 20.68 98 20 C98.66 20 99.32 20 100 20 C100 19.34 100 18.68 100 18 C100.66 18 101.32 18 102 18 C102 16.68 102 15.36 102 14 C102.66 14 103.32 14 104 14 C104 13.34 104 12.68 104 12 C104.66 12 105.32 12 106 12 C106 11.34 106 10.68 106 10 C106.66 10 107.32 10 108 10 C108 8.68 108 7.36 108 6 C107.34 6 106.68 6 106 6 Z M2 26 C2 26.66 2 27.32 2 28 C2.66 28 3.32 28 4 28 C4 27.34 4 26.68 4 26 C3.34 26 2.68 26 2 26 Z M-12 30 C-12 30.66 -12 31.32 -12 32 C-11.34 32 -10.68 32 -10 32 C-10 31.34 -10 30.68 -10 30 C-10.66 30 -11.32 30 -12 30 Z M-2 30 C-2 30.66 -2 31.32 -2 32 C-2.66 32 -3.32 32 -4 32 C-4 32.66 -4 33.32 -4 34 C-4.66 34 -5.32 34 -6 34 C-6 34.66 -6 35.32 -6 36 C-6.66 36 -7.32 36 -8 36 C-8 36.66 -8 37.32 -8 38 C-8.66 38 -9.32 38 -10 38 C-10 38.66 -10 39.32 -10 40 C-10.66 40 -11.32 40 -12 40 C-12 40.66 -12 41.32 -12 42 C-13.32 42 -14.64 42 -16 42 C-16 42.66 -16 43.32 -16 44 C-16.66 44 -17.32 44 -18 44 C-18 45.98 -18 47.96 -18 50 C-18.66 50 -19.32 50 -20 50 C-20 50.66 -20 51.32 -20 52 C-19.34 52 -18.68 52 -18 52 C-18 53.32 -18 54.64 -18 56 C-17.34 56 -16.68 56 -16 56 C-16 55.34 -16 54.68 -16 54 C-14.68 54 -13.36 54 -12 54 C-12 53.34 -12 52.68 -12 52 C-11.34 52 -10.68 52 -10 52 C-10 51.34 -10 50.68 -10 50 C-9.34 50 -8.68 50 -8 50 C-8 49.34 -8 48.68 -8 48 C-7.34 48 -6.68 48 -6 48 C-6 47.34 -6 46.68 -6 46 C-5.34 46 -4.68 46 -4 46 C-4 45.34 -4 44.68 -4 44 C-3.34 44 -2.68 44 -2 44 C-2 42.68 -2 41.36 -2 40 C-1.34 40 -0.68 40 0 40 C0 39.34 0 38.68 0 38 C0.66 38 1.32 38 2 38 C2 36.68 2 35.36 2 34 C2.66 34 3.32 34 4 34 C4 33.34 4 32.68 4 32 C3.34 32 2.68 32 2 32 C2 31.34 2 30.68 2 30 C0.68 30 -0.64 30 -2 30 Z M94 30 C94 30.66 94 31.32 94 32 C94.66 32 95.32 32 96 32 C96 31.34 96 30.68 96 30 C95.34 30 94.68 30 94 30 Z M52 32 C52 32.66 52 33.32 52 34 C50.68 34 49.36 34 48 34 C48 34.66 48 35.32 48 36 C46.68 36 45.36 36 44 36 C44 36.66 44 37.32 44 38 C43.34 38 42.68 38 42 38 C42 38.66 42 39.32 42 40 C41.34 40 40.68 40 40 40 C40 40.66 40 41.32 40 42 C39.34 42 38.68 42 38 42 C38 42.66 38 43.32 38 44 C37.34 44 36.68 44 36 44 C36 44.66 36 45.32 36 46 C35.34 46 34.68 46 34 46 C34 47.32 34 48.64 34 50 C33.34 50 32.68 50 32 50 C32 51.32 32 52.64 32 54 C33.32 54 34.64 54 36 54 C36 53.34 36 52.68 36 52 C36.66 52 37.32 52 38 52 C38 51.34 38 50.68 38 50 C38.66 50 39.32 50 40 50 C40 49.34 40 48.68 40 48 C40.66 48 41.32 48 42 48 C42 47.34 42 46.68 42 46 C42.66 46 43.32 46 44 46 C44 45.34 44 44.68 44 44 C44.66 44 45.32 44 46 44 C46 43.34 46 42.68 46 42 C46.66 42 47.32 42 48 42 C48 41.34 48 40.68 48 40 C48.66 40 49.32 40 50 40 C50 39.34 50 38.68 50 38 C50.66 38 51.32 38 52 38 C52 37.34 52 36.68 52 36 C52.66 36 53.32 36 54 36 C54 35.34 54 34.68 54 34 C55.32 34 56.64 34 58 34 C58 33.34 58 32.68 58 32 C56.02 32 54.04 32 52 32 Z M90 32 C90 32.66 90 33.32 90 34 C89.34 34 88.68 34 88 34 C88 34.66 88 35.32 88 36 C87.34 36 86.68 36 86 36 C86 37.32 86 38.64 86 40 C86.66 40 87.32 40 88 40 C88 39.34 88 38.68 88 38 C88.66 38 89.32 38 90 38 C90 37.34 90 36.68 90 36 C90.66 36 91.32 36 92 36 C92 35.34 92 34.68 92 34 C92.66 34 93.32 34 94 34 C94 33.34 94 32.68 94 32 C92.68 32 91.36 32 90 32 Z M196 32 C196 32.66 196 33.32 196 34 C194.02 34 192.04 34 190 34 C190 34.66 190 35.32 190 36 C189.34 36 188.68 36 188 36 C188 36.66 188 37.32 188 38 C186.68 38 185.36 38 184 38 C184 38.66 184 39.32 184 40 C183.34 40 182.68 40 182 40 C182 40.66 182 41.32 182 42 C181.34 42 180.68 42 180 42 C180 42.66 180 43.32 180 44 C179.34 44 178.68 44 178 44 C178 45.32 178 46.64 178 48 C177.34 48 176.68 48 176 48 C176 49.32 176 50.64 176 52 C175.34 52 174.68 52 174 52 C174 52.66 174 53.32 174 54 C175.32 54 176.64 54 178 54 C178 53.34 178 52.68 178 52 C179.32 52 180.64 52 182 52 C182 51.34 182 50.68 182 50 C182.66 50 183.32 50 184 50 C184 49.34 184 48.68 184 48 C184.66 48 185.32 48 186 48 C186 47.34 186 46.68 186 46 C186.66 46 187.32 46 188 46 C188 45.34 188 44.68 188 44 C188.66 44 189.32 44 190 44 C190 43.34 190 42.68 190 42 C190.66 42 191.32 42 192 42 C192 41.34 192 40.68 192 40 C192.66 40 193.32 40 194 40 C194 39.34 194 38.68 194 38 C194.66 38 195.32 38 196 38 C196 37.34 196 36.68 196 36 C196.66 36 197.32 36 198 36 C198 35.34 198 34.68 198 34 C198.66 34 199.32 34 200 34 C200 33.34 200 32.68 200 32 C198.68 32 197.36 32 196 32 Z M84 40 C84 40.66 84 41.32 84 42 C84.66 42 85.32 42 86 42 C86 41.34 86 40.68 86 40 C85.34 40 84.68 40 84 40 Z M126 40 C126 40.66 126 41.32 126 42 C126.66 42 127.32 42 128 42 C128 41.34 128 40.68 128 40 C127.34 40 126.68 40 126 40 Z M232 40 C232 40.66 232 41.32 232 42 C232.66 42 233.32 42 234 42 C234 41.34 234 40.68 234 40 C233.34 40 232.68 40 232 40 Z M208 56 C208 56.66 208 57.32 208 58 C208.66 58 209.32 58 210 58 C210 57.34 210 56.68 210 56 C209.34 56 208.68 56 208 56 Z " fill="#FEFEFE" transform="translate(236,106)"/>
<path d="M0 0 C3.3 0 6.6 0 10 0 C10 1.32 10 2.64 10 4 C9.34 4 8.68 4 8 4 C8 5.32 8 6.64 8 8 C7.34 8 6.68 8 6 8 C6 9.32 6 10.64 6 12 C5.34 12 4.68 12 4 12 C4 13.32 4 14.64 4 16 C3.34 16 2.68 16 2 16 C2 17.32 2 18.64 2 20 C1.34 20 0.68 20 0 20 C0 21.98 0 23.96 0 26 C-0.66 26 -1.32 26 -2 26 C-2 27.98 -2 29.96 -2 32 C-2.66 32 -3.32 32 -4 32 C-4 33.32 -4 34.64 -4 36 C-2.02 36 -0.04 36 2 36 C2 35.34 2 34.68 2 34 C3.98 34 5.96 34 8 34 C8 35.32 8 36.64 8 38 C6.68 38 5.36 38 4 38 C4 38.66 4 39.32 4 40 C0.7 40 -2.6 40 -6 40 C-6 42.64 -6 45.28 -6 48 C-6.66 48 -7.32 48 -8 48 C-8 49.98 -8 51.96 -8 54 C-7.34 54 -6.68 54 -6 54 C-6 54.66 -6 55.32 -6 56 C-5.34 56 -4.68 56 -4 56 C-4 55.34 -4 54.68 -4 54 C-2.68 54 -1.36 54 0 54 C0 53.34 0 52.68 0 52 C0.66 52 1.32 52 2 52 C2 51.34 2 50.68 2 50 C2.66 50 3.32 50 4 50 C4 49.34 4 48.68 4 48 C4.66 48 5.32 48 6 48 C6 47.34 6 46.68 6 46 C6.66 46 7.32 46 8 46 C8 45.34 8 44.68 8 44 C8.66 44 9.32 44 10 44 C10 43.34 10 42.68 10 42 C10.66 42 11.32 42 12 42 C12 40.68 12 39.36 12 38 C12.66 38 13.32 38 14 38 C14 37.34 14 36.68 14 36 C14.66 36 15.32 36 16 36 C16 34.02 16 32.04 16 30 C16.66 30 17.32 30 18 30 C18 28.68 18 27.36 18 26 C18.66 26 19.32 26 20 26 C20 24.68 20 23.36 20 22 C20.66 22 21.32 22 22 22 C22 20.68 22 19.36 22 18 C22.66 18 23.32 18 24 18 C24 16.68 24 15.36 24 14 C24.66 14 25.32 14 26 14 C26 12.68 26 11.36 26 10 C26.66 10 27.32 10 28 10 C28 9.34 28 8.68 28 8 C28.66 8 29.32 8 30 8 C30 6.68 30 5.36 30 4 C30.66 4 31.32 4 32 4 C32 3.34 32 2.68 32 2 C33.32 2 34.64 2 36 2 C36 1.34 36 0.68 36 0 C39.96 0 43.92 0 48 0 C48 0.66 48 1.32 48 2 C48.66 2 49.32 2 50 2 C50 5.3 50 8.6 50 12 C49.34 12 48.68 12 48 12 C48 12.66 48 13.32 48 14 C47.34 14 46.68 14 46 14 C46 15.32 46 16.64 46 18 C45.34 18 44.68 18 44 18 C44 18.66 44 19.32 44 20 C43.34 20 42.68 20 42 20 C42 20.66 42 21.32 42 22 C41.34 22 40.68 22 40 22 C40 22.66 40 23.32 40 24 C39.34 24 38.68 24 38 24 C38 24.66 38 25.32 38 26 C37.34 26 36.68 26 36 26 C36 26.66 36 27.32 36 28 C35.34 28 34.68 28 34 28 C34 28.66 34 29.32 34 30 C36.64 30 39.28 30 42 30 C42 30.66 42 31.32 42 32 C42.66 32 43.32 32 44 32 C44 32.66 44 33.32 44 34 C44.66 34 45.32 34 46 34 C46 36.64 46 39.28 46 42 C46.66 42 47.32 42 48 42 C48 41.34 48 40.68 48 40 C48.66 40 49.32 40 50 40 C50 39.34 50 38.68 50 38 C50.66 38 51.32 38 52 38 C52 37.34 52 36.68 52 36 C52.66 36 53.32 36 54 36 C54 35.34 54 34.68 54 34 C55.32 34 56.64 34 58 34 C58 33.34 58 32.68 58 32 C59.32 32 60.64 32 62 32 C62 31.34 62 30.68 62 30 C63.32 30 64.64 30 66 30 C66 29.34 66 28.68 66 28 C69.96 28 73.92 28 78 28 C78 26.68 78 25.36 78 24 C78.66 24 79.32 24 80 24 C80 22.68 80 21.36 80 20 C80.66 20 81.32 20 82 20 C82 18.68 82 17.36 82 16 C82.66 16 83.32 16 84 16 C84 15.34 84 14.68 84 14 C84.66 14 85.32 14 86 14 C86 12.68 86 11.36 86 10 C86.66 10 87.32 10 88 10 C88 9.34 88 8.68 88 8 C88.66 8 89.32 8 90 8 C90 6.68 90 5.36 90 4 C91.32 4 92.64 4 94 4 C94 3.34 94 2.68 94 2 C94.66 2 95.32 2 96 2 C96 1.34 96 0.68 96 0 C100.62 0 105.24 0 110 0 C110 3.96 110 7.92 110 12 C109.34 12 108.68 12 108 12 C108 12.66 108 13.32 108 14 C107.34 14 106.68 14 106 14 C106 14.66 106 15.32 106 16 C105.34 16 104.68 16 104 16 C104 16.66 104 17.32 104 18 C103.34 18 102.68 18 102 18 C102 18.66 102 19.32 102 20 C101.34 20 100.68 20 100 20 C100 20.66 100 21.32 100 22 C99.34 22 98.68 22 98 22 C98 22.66 98 23.32 98 24 C97.34 24 96.68 24 96 24 C96 24.66 96 25.32 96 26 C95.34 26 94.68 26 94 26 C94 26.66 94 27.32 94 28 C93.34 28 92.68 28 92 28 C92 28.66 92 29.32 92 30 C90.68 30 89.36 30 88 30 C88 30.66 88 31.32 88 32 C87.34 32 86.68 32 86 32 C86 32.66 86 33.32 86 34 C85.34 34 84.68 34 84 34 C84 34.66 84 35.32 84 36 C83.34 36 82.68 36 82 36 C82 36.66 82 37.32 82 38 C81.34 38 80.68 38 80 38 C80 39.32 80 40.64 80 42 C79.34 42 78.68 42 78 42 C78 44.64 78 47.28 78 50 C77.34 50 76.68 50 76 50 C76 51.98 76 53.96 76 56 C75.34 56 74.68 56 74 56 C74 58.64 74 61.28 74 64 C74.66 64 75.32 64 76 64 C76 64.66 76 65.32 76 66 C76.66 66 77.32 66 78 66 C78 65.34 78 64.68 78 64 C79.32 64 80.64 64 82 64 C82 65.32 82 66.64 82 68 C81.34 68 80.68 68 80 68 C80 68.66 80 69.32 80 70 C76.7 70 73.4 70 70 70 C70 69.34 70 68.68 70 68 C69.34 68 68.68 68 68 68 C68 62.06 68 56.12 68 50 C67.34 50 66.68 50 66 50 C66 50.66 66 51.32 66 52 C65.34 52 64.68 52 64 52 C64 52.66 64 53.32 64 54 C63.34 54 62.68 54 62 54 C62 54.66 62 55.32 62 56 C60.68 56 59.36 56 58 56 C58 56.66 58 57.32 58 58 C54.04 58 50.08 58 46 58 C46 57.34 46 56.68 46 56 C45.34 56 44.68 56 44 56 C44 52.7 44 49.4 44 46 C43.34 46 42.68 46 42 46 C42 46.66 42 47.32 42 48 C41.34 48 40.68 48 40 48 C40 48.66 40 49.32 40 50 C39.34 50 38.68 50 38 50 C38 50.66 38 51.32 38 52 C37.34 52 36.68 52 36 52 C36 52.66 36 53.32 36 54 C35.34 54 34.68 54 34 54 C34 54.66 34 55.32 34 56 C32.68 56 31.36 56 30 56 C30 56.66 30 57.32 30 58 C28.68 58 27.36 58 26 58 C26 58.66 26 59.32 26 60 C24.02 60 22.04 60 20 60 C20 60.66 20 61.32 20 62 C16.7 62 13.4 62 10 62 C10 61.34 10 60.68 10 60 C9.34 60 8.68 60 8 60 C8 59.34 8 58.68 8 58 C11.3 58 14.6 58 18 58 C18 57.34 18 56.68 18 56 C16.02 56 14.04 56 12 56 C12 54.02 12 52.04 12 50 C11.34 50 10.68 50 10 50 C10 50.66 10 51.32 10 52 C9.34 52 8.68 52 8 52 C8 52.66 8 53.32 8 54 C7.34 54 6.68 54 6 54 C6 54.66 6 55.32 6 56 C4.68 56 3.36 56 2 56 C2 56.66 2 57.32 2 58 C1.34 58 0.68 58 0 58 C0 58.66 0 59.32 0 60 C-3.96 60 -7.92 60 -12 60 C-12 59.34 -12 58.68 -12 58 C-12.66 58 -13.32 58 -14 58 C-14 52.06 -14 46.12 -14 40 C-15.32 40 -16.64 40 -18 40 C-18 39.34 -18 38.68 -18 38 C-19.32 38 -20.64 38 -22 38 C-22 38.66 -22 39.32 -22 40 C-22.66 40 -23.32 40 -24 40 C-24 40.66 -24 41.32 -24 42 C-24.66 42 -25.32 42 -26 42 C-26 42.66 -26 43.32 -26 44 C-26.66 44 -27.32 44 -28 44 C-28 45.32 -28 46.64 -28 48 C-28.66 48 -29.32 48 -30 48 C-30 48.66 -30 49.32 -30 50 C-30.66 50 -31.32 50 -32 50 C-32 50.66 -32 51.32 -32 52 C-32.66 52 -33.32 52 -34 52 C-34 52.66 -34 53.32 -34 54 C-34.66 54 -35.32 54 -36 54 C-36 54.66 -36 55.32 -36 56 C-36.66 56 -37.32 56 -38 56 C-38 56.66 -38 57.32 -38 58 C-38.66 58 -39.32 58 -40 58 C-40 58.66 -40 59.32 -40 60 C-41.32 60 -42.64 60 -44 60 C-44 60.66 -44 61.32 -44 62 C-44.66 62 -45.32 62 -46 62 C-46 62.66 -46 63.32 -46 64 C-47.32 64 -48.64 64 -50 64 C-50 64.66 -50 65.32 -50 66 C-56.6 66 -63.2 66 -70 66 C-70 65.34 -70 64.68 -70 64 C-70.66 64 -71.32 64 -72 64 C-72 63.34 -72 62.68 -72 62 C-72.66 62 -73.32 62 -74 62 C-74 58.7 -74 55.4 -74 52 C-72.68 52 -71.36 52 -70 52 C-70 53.98 -70 55.96 -70 58 C-69.34 58 -68.68 58 -68 58 C-68 58.66 -68 59.32 -68 60 C-66.68 60 -65.36 60 -64 60 C-64 60.66 -64 61.32 -64 62 C-62.68 62 -61.36 62 -60 62 C-60 61.34 -60 60.68 -60 60 C-58.02 60 -56.04 60 -54 60 C-54 59.34 -54 58.68 -54 58 C-52.68 58 -51.36 58 -50 58 C-50 57.34 -50 56.68 -50 56 C-48.68 56 -47.36 56 -46 56 C-46 55.34 -46 54.68 -46 54 C-45.34 54 -44.68 54 -44 54 C-44 53.34 -44 52.68 -44 52 C-43.34 52 -42.68 52 -42 52 C-42 51.34 -42 50.68 -42 50 C-41.34 50 -40.68 50 -40 50 C-40 49.34 -40 48.68 -40 48 C-39.34 48 -38.68 48 -38 48 C-38 47.34 -38 46.68 -38 46 C-37.34 46 -36.68 46 -36 46 C-36 45.34 -36 44.68 -36 44 C-35.34 44 -34.68 44 -34 44 C-34 43.34 -34 42.68 -34 42 C-33.34 42 -32.68 42 -32 42 C-32 41.34 -32 40.68 -32 40 C-31.34 40 -30.68 40 -30 40 C-30 39.34 -30 38.68 -30 38 C-31.32 38 -32.64 38 -34 38 C-34 37.34 -34 36.68 -34 36 C-39.28 36 -44.56 36 -50 36 C-50 36.66 -50 37.32 -50 38 C-51.32 38 -52.64 38 -54 38 C-54 38.66 -54 39.32 -54 40 C-54.66 40 -55.32 40 -56 40 C-56 40.66 -56 41.32 -56 42 C-56.66 42 -57.32 42 -58 42 C-58 44.64 -58 47.28 -58 50 C-59.32 50 -60.64 50 -62 50 C-62 49.34 -62 48.68 -62 48 C-62.66 48 -63.32 48 -64 48 C-64 44.04 -64 40.08 -64 36 C-63.34 36 -62.68 36 -62 36 C-62 35.34 -62 34.68 -62 34 C-61.34 34 -60.68 34 -60 34 C-60 33.34 -60 32.68 -60 32 C-58.68 32 -57.36 32 -56 32 C-56 31.34 -56 30.68 -56 30 C-50.06 30 -44.12 30 -38 30 C-38 30.66 -38 31.32 -38 32 C-33.38 32 -28.76 32 -24 32 C-24 31.34 -24 30.68 -24 30 C-23.34 30 -22.68 30 -22 30 C-22 29.34 -22 28.68 -22 28 C-21.34 28 -20.68 28 -20 28 C-20 27.34 -20 26.68 -20 26 C-19.34 26 -18.68 26 -18 26 C-18 25.34 -18 24.68 -18 24 C-17.34 24 -16.68 24 -16 24 C-16 22.68 -16 21.36 -16 20 C-15.34 20 -14.68 20 -14 20 C-14 19.34 -14 18.68 -14 18 C-13.34 18 -12.68 18 -12 18 C-12 17.34 -12 16.68 -12 16 C-11.34 16 -10.68 16 -10 16 C-10 15.34 -10 14.68 -10 14 C-9.34 14 -8.68 14 -8 14 C-8 12.68 -8 11.36 -8 10 C-7.34 10 -6.68 10 -6 10 C-6 9.34 -6 8.68 -6 8 C-5.34 8 -4.68 8 -4 8 C-4 7.34 -4 6.68 -4 6 C-3.34 6 -2.68 6 -2 6 C-2 5.34 -2 4.68 -2 4 C-1.34 4 -0.68 4 0 4 C0 2.68 0 1.36 0 0 Z M42 4 C42 4.66 42 5.32 42 6 C41.34 6 40.68 6 40 6 C40 6.66 40 7.32 40 8 C39.34 8 38.68 8 38 8 C38 8.66 38 9.32 38 10 C37.34 10 36.68 10 36 10 C36 10.66 36 11.32 36 12 C35.34 12 34.68 12 34 12 C34 13.32 34 14.64 34 16 C33.34 16 32.68 16 32 16 C32 16.66 32 17.32 32 18 C31.34 18 30.68 18 30 18 C30 19.32 30 20.64 30 22 C29.34 22 28.68 22 28 22 C28 23.32 28 24.64 28 26 C28.66 26 29.32 26 30 26 C30 25.34 30 24.68 30 24 C30.66 24 31.32 24 32 24 C32 23.34 32 22.68 32 22 C32.66 22 33.32 22 34 22 C34 21.34 34 20.68 34 20 C34.66 20 35.32 20 36 20 C36 19.34 36 18.68 36 18 C36.66 18 37.32 18 38 18 C38 16.68 38 15.36 38 14 C38.66 14 39.32 14 40 14 C40 13.34 40 12.68 40 12 C40.66 12 41.32 12 42 12 C42 11.34 42 10.68 42 10 C42.66 10 43.32 10 44 10 C44 8.02 44 6.04 44 4 C43.34 4 42.68 4 42 4 Z M102 4 C102 4.66 102 5.32 102 6 C101.34 6 100.68 6 100 6 C100 6.66 100 7.32 100 8 C99.34 8 98.68 8 98 8 C98 8.66 98 9.32 98 10 C97.34 10 96.68 10 96 10 C96 10.66 96 11.32 96 12 C95.34 12 94.68 12 94 12 C94 13.32 94 14.64 94 16 C93.34 16 92.68 16 92 16 C92 16.66 92 17.32 92 18 C91.34 18 90.68 18 90 18 C90 19.32 90 20.64 90 22 C90.66 22 91.32 22 92 22 C92 21.34 92 20.68 92 20 C92.66 20 93.32 20 94 20 C94 19.34 94 18.68 94 18 C94.66 18 95.32 18 96 18 C96 17.34 96 16.68 96 16 C96.66 16 97.32 16 98 16 C98 15.34 98 14.68 98 14 C98.66 14 99.32 14 100 14 C100 13.34 100 12.68 100 12 C100.66 12 101.32 12 102 12 C102 10.68 102 9.36 102 8 C102.66 8 103.32 8 104 8 C104 6.68 104 5.36 104 4 C103.34 4 102.68 4 102 4 Z M-10 22 C-10 22.66 -10 23.32 -10 24 C-9.34 24 -8.68 24 -8 24 C-8 23.34 -8 22.68 -8 22 C-8.66 22 -9.32 22 -10 22 Z M88 22 C88 22.66 88 23.32 88 24 C88.66 24 89.32 24 90 24 C90 23.34 90 22.68 90 22 C89.34 22 88.68 22 88 22 Z M-12 26 C-12 26.66 -12 27.32 -12 28 C-12.66 28 -13.32 28 -14 28 C-14 28.66 -14 29.32 -14 30 C-14.66 30 -15.32 30 -16 30 C-16 30.66 -16 31.32 -16 32 C-16.66 32 -17.32 32 -18 32 C-18 32.66 -18 33.32 -18 34 C-17.34 34 -16.68 34 -16 34 C-16 34.66 -16 35.32 -16 36 C-14.68 36 -13.36 36 -12 36 C-12 34.02 -12 32.04 -12 30 C-11.34 30 -10.68 30 -10 30 C-10 28.68 -10 27.36 -10 26 C-10.66 26 -11.32 26 -12 26 Z M26 26 C26 26.66 26 27.32 26 28 C26.66 28 27.32 28 28 28 C28 27.34 28 26.68 28 26 C27.34 26 26.68 26 26 26 Z M30 30 C30 30.66 30 31.32 30 32 C30.66 32 31.32 32 32 32 C32 31.34 32 30.68 32 30 C31.34 30 30.68 30 30 30 Z M72 32 C72 32.66 72 33.32 72 34 C70.02 34 68.04 34 66 34 C66 34.66 66 35.32 66 36 C65.34 36 64.68 36 64 36 C64 36.66 64 37.32 64 38 C62.68 38 61.36 38 60 38 C60 38.66 60 39.32 60 40 C59.34 40 58.68 40 58 40 C58 40.66 58 41.32 58 42 C57.34 42 56.68 42 56 42 C56 42.66 56 43.32 56 44 C55.34 44 54.68 44 54 44 C54 45.32 54 46.64 54 48 C53.34 48 52.68 48 52 48 C52 49.32 52 50.64 52 52 C51.34 52 50.68 52 50 52 C50 52.66 50 53.32 50 54 C51.32 54 52.64 54 54 54 C54 53.34 54 52.68 54 52 C54.66 52 55.32 52 56 52 C56 51.34 56 50.68 56 50 C57.32 50 58.64 50 60 50 C60 49.34 60 48.68 60 48 C60.66 48 61.32 48 62 48 C62 47.34 62 46.68 62 46 C62.66 46 63.32 46 64 46 C64 45.34 64 44.68 64 44 C64.66 44 65.32 44 66 44 C66 43.34 66 42.68 66 42 C66.66 42 67.32 42 68 42 C68 41.34 68 40.68 68 40 C68.66 40 69.32 40 70 40 C70 39.34 70 38.68 70 38 C70.66 38 71.32 38 72 38 C72 37.34 72 36.68 72 36 C72.66 36 73.32 36 74 36 C74 35.34 74 34.68 74 34 C74.66 34 75.32 34 76 34 C76 33.34 76 32.68 76 32 C74.68 32 73.36 32 72 32 Z M34 34 C34 34.66 34 35.32 34 36 C33.34 36 32.68 36 32 36 C32 36.66 32 37.32 32 38 C30.68 38 29.36 38 28 38 C28 38.66 28 39.32 28 40 C27.34 40 26.68 40 26 40 C26 40.66 26 41.32 26 42 C25.34 42 24.68 42 24 42 C24 42.66 24 43.32 24 44 C23.34 44 22.68 44 22 44 C22 45.32 22 46.64 22 48 C21.34 48 20.68 48 20 48 C20 49.32 20 50.64 20 52 C19.34 52 18.68 52 18 52 C18 53.32 18 54.64 18 56 C19.32 56 20.64 56 22 56 C22 55.34 22 54.68 22 54 C22.66 54 23.32 54 24 54 C24 53.34 24 52.68 24 52 C25.32 52 26.64 52 28 52 C28 51.34 28 50.68 28 50 C28.66 50 29.32 50 30 50 C30 49.34 30 48.68 30 48 C30.66 48 31.32 48 32 48 C32 47.34 32 46.68 32 46 C32.66 46 33.32 46 34 46 C34 45.34 34 44.68 34 44 C34.66 44 35.32 44 36 44 C36 42.68 36 41.36 36 40 C36.66 40 37.32 40 38 40 C38 38.02 38 36.04 38 34 C36.68 34 35.36 34 34 34 Z M44 42 C44 42.66 44 43.32 44 44 C44.66 44 45.32 44 46 44 C46 43.34 46 42.68 46 42 C45.34 42 44.68 42 44 42 Z M68 48 C68 48.66 68 49.32 68 50 C68.66 50 69.32 50 70 50 C70 49.34 70 48.68 70 48 C69.34 48 68.68 48 68 48 Z " fill="#FEFEFE" transform="translate(86,106)"/>
<path d="M0 0 C3.3 0 6.6 0 10 0 C10 0.66 10 1.32 10 2 C9.34 2 8.68 2 8 2 C8 3.32 8 4.64 8 6 C7.34 6 6.68 6 6 6 C6 7.32 6 8.64 6 10 C5.34 10 4.68 10 4 10 C4 11.32 4 12.64 4 14 C3.34 14 2.68 14 2 14 C2 15.32 2 16.64 2 18 C1.34 18 0.68 18 0 18 C0 19.98 0 21.96 0 24 C-0.66 24 -1.32 24 -2 24 C-2 25.98 -2 27.96 -2 30 C-2.66 30 -3.32 30 -4 30 C-4 31.98 -4 33.96 -4 36 C-2.02 36 -0.04 36 2 36 C2 35.34 2 34.68 2 34 C3.98 34 5.96 34 8 34 C8 35.32 8 36.64 8 38 C6.68 38 5.36 38 4 38 C4 38.66 4 39.32 4 40 C0.7 40 -2.6 40 -6 40 C-6 41.32 -6 42.64 -6 44 C-6.66 44 -7.32 44 -8 44 C-8 47.96 -8 51.92 -8 56 C-6.68 56 -5.36 56 -4 56 C-4 55.34 -4 54.68 -4 54 C-3.34 54 -2.68 54 -2 54 C-2 53.34 -2 52.68 -2 52 C-0.68 52 0.64 52 2 52 C2 51.34 2 50.68 2 50 C2.66 50 3.32 50 4 50 C4 49.34 4 48.68 4 48 C4.66 48 5.32 48 6 48 C6 47.34 6 46.68 6 46 C6.66 46 7.32 46 8 46 C8 45.34 8 44.68 8 44 C8.66 44 9.32 44 10 44 C10 42.68 10 41.36 10 40 C10.66 40 11.32 40 12 40 C12 38.02 12 36.04 12 34 C12.66 34 13.32 34 14 34 C14 32.68 14 31.36 14 30 C14.66 30 15.32 30 16 30 C16 28.68 16 27.36 16 26 C16.66 26 17.32 26 18 26 C18 24.68 18 23.36 18 22 C18.66 22 19.32 22 20 22 C20 20.68 20 19.36 20 18 C20.66 18 21.32 18 22 18 C22 16.68 22 15.36 22 14 C22.66 14 23.32 14 24 14 C24 13.34 24 12.68 24 12 C24.66 12 25.32 12 26 12 C26 10.68 26 9.36 26 8 C26.66 8 27.32 8 28 8 C28 7.34 28 6.68 28 6 C28.66 6 29.32 6 30 6 C30 5.34 30 4.68 30 4 C30.66 4 31.32 4 32 4 C32 3.34 32 2.68 32 2 C32.66 2 33.32 2 34 2 C34 1.34 34 0.68 34 0 C38.62 0 43.24 0 48 0 C48 0.66 48 1.32 48 2 C48.66 2 49.32 2 50 2 C50 3.98 50 5.96 50 8 C49.34 8 48.68 8 48 8 C48 9.32 48 10.64 48 12 C47.34 12 46.68 12 46 12 C46 13.32 46 14.64 46 16 C45.34 16 44.68 16 44 16 C44 16.66 44 17.32 44 18 C43.34 18 42.68 18 42 18 C42 18.66 42 19.32 42 20 C41.34 20 40.68 20 40 20 C40 21.32 40 22.64 40 24 C39.34 24 38.68 24 38 24 C38 24.66 38 25.32 38 26 C37.34 26 36.68 26 36 26 C36 26.66 36 27.32 36 28 C35.34 28 34.68 28 34 28 C34 28.66 34 29.32 34 30 C33.34 30 32.68 30 32 30 C32 30.66 32 31.32 32 32 C31.34 32 30.68 32 30 32 C30 32.66 30 33.32 30 34 C29.34 34 28.68 34 28 34 C28 34.66 28 35.32 28 36 C27.34 36 26.68 36 26 36 C26 36.66 26 37.32 26 38 C25.34 38 24.68 38 24 38 C24 38.66 24 39.32 24 40 C23.34 40 22.68 40 22 40 C22 40.66 22 41.32 22 42 C21.34 42 20.68 42 20 42 C20 42.66 20 43.32 20 44 C19.34 44 18.68 44 18 44 C18 44.66 18 45.32 18 46 C17.34 46 16.68 46 16 46 C16 49.3 16 52.6 16 56 C16.66 56 17.32 56 18 56 C18 55.34 18 54.68 18 54 C19.32 54 20.64 54 22 54 C22 53.34 22 52.68 22 52 C22.66 52 23.32 52 24 52 C24 51.34 24 50.68 24 50 C24.66 50 25.32 50 26 50 C26 49.34 26 48.68 26 48 C26.66 48 27.32 48 28 48 C28 47.34 28 46.68 28 46 C28.66 46 29.32 46 30 46 C30 45.34 30 44.68 30 44 C30.66 44 31.32 44 32 44 C32 43.34 32 42.68 32 42 C32.66 42 33.32 42 34 42 C34 40.68 34 39.36 34 38 C34.66 38 35.32 38 36 38 C36 36.68 36 35.36 36 34 C36.66 34 37.32 34 38 34 C38 32.68 38 31.36 38 30 C40.64 30 43.28 30 46 30 C46 31.98 46 33.96 46 36 C45.34 36 44.68 36 44 36 C44 37.32 44 38.64 44 40 C43.34 40 42.68 40 42 40 C42 41.32 42 42.64 42 44 C41.34 44 40.68 44 40 44 C40 45.98 40 47.96 40 50 C39.34 50 38.68 50 38 50 C38 51.32 38 52.64 38 54 C39.98 54 41.96 54 44 54 C44 53.34 44 52.68 44 52 C44.66 52 45.32 52 46 52 C46 51.34 46 50.68 46 50 C46.66 50 47.32 50 48 50 C48 49.34 48 48.68 48 48 C48.66 48 49.32 48 50 48 C50 47.34 50 46.68 50 46 C50.66 46 51.32 46 52 46 C52 45.34 52 44.68 52 44 C52.66 44 53.32 44 54 44 C54 43.34 54 42.68 54 42 C55.32 42 56.64 42 58 42 C58 43.32 58 44.64 58 46 C57.34 46 56.68 46 56 46 C56 46.66 56 47.32 56 48 C55.34 48 54.68 48 54 48 C54 49.32 54 50.64 54 52 C53.34 52 52.68 52 52 52 C52 52.66 52 53.32 52 54 C50.68 54 49.36 54 48 54 C48 54.66 48 55.32 48 56 C47.34 56 46.68 56 46 56 C46 56.66 46 57.32 46 58 C44.68 58 43.36 58 42 58 C42 58.66 42 59.32 42 60 C38.7 60 35.4 60 32 60 C32 58.68 32 57.36 32 56 C31.34 56 30.68 56 30 56 C30 55.34 30 54.68 30 54 C29.34 54 28.68 54 28 54 C28 54.66 28 55.32 28 56 C27.34 56 26.68 56 26 56 C26 56.66 26 57.32 26 58 C24.68 58 23.36 58 22 58 C22 58.66 22 59.32 22 60 C18.7 60 15.4 60 12 60 C12 59.34 12 58.68 12 58 C11.34 58 10.68 58 10 58 C10 57.34 10 56.68 10 56 C9.34 56 8.68 56 8 56 C8 54.68 8 53.36 8 52 C7.34 52 6.68 52 6 52 C6 52.66 6 53.32 6 54 C5.34 54 4.68 54 4 54 C4 54.66 4 55.32 4 56 C3.34 56 2.68 56 2 56 C2 56.66 2 57.32 2 58 C0.68 58 -0.64 58 -2 58 C-2 58.66 -2 59.32 -2 60 C-5.3 60 -8.6 60 -12 60 C-12 59.34 -12 58.68 -12 58 C-12.66 58 -13.32 58 -14 58 C-14 56.68 -14 55.36 -14 54 C-14.66 54 -15.32 54 -16 54 C-16 50.7 -16 47.4 -16 44 C-15.34 44 -14.68 44 -14 44 C-14 42.68 -14 41.36 -14 40 C-15.32 40 -16.64 40 -18 40 C-18 39.34 -18 38.68 -18 38 C-19.32 38 -20.64 38 -22 38 C-22 38.66 -22 39.32 -22 40 C-22.66 40 -23.32 40 -24 40 C-24 40.66 -24 41.32 -24 42 C-24.66 42 -25.32 42 -26 42 C-26 42.66 -26 43.32 -26 44 C-26.66 44 -27.32 44 -28 44 C-28 44.66 -28 45.32 -28 46 C-28.66 46 -29.32 46 -30 46 C-30 46.66 -30 47.32 -30 48 C-30.66 48 -31.32 48 -32 48 C-32 48.66 -32 49.32 -32 50 C-32.66 50 -33.32 50 -34 50 C-34 50.66 -34 51.32 -34 52 C-34.66 52 -35.32 52 -36 52 C-36 52.66 -36 53.32 -36 54 C-36.66 54 -37.32 54 -38 54 C-38 54.66 -38 55.32 -38 56 C-38.66 56 -39.32 56 -40 56 C-40 56.66 -40 57.32 -40 58 C-40.66 58 -41.32 58 -42 58 C-42 58.66 -42 59.32 -42 60 C-42.66 60 -43.32 60 -44 60 C-44 60.66 -44 61.32 -44 62 C-45.32 62 -46.64 62 -48 62 C-48 62.66 -48 63.32 -48 64 C-49.32 64 -50.64 64 -52 64 C-52 64.66 -52 65.32 -52 66 C-57.94 66 -63.88 66 -70 66 C-70 65.34 -70 64.68 -70 64 C-71.32 64 -72.64 64 -74 64 C-74 62.68 -74 61.36 -74 60 C-74.66 60 -75.32 60 -76 60 C-76 58.02 -76 56.04 -76 54 C-75.34 54 -74.68 54 -74 54 C-74 53.34 -74 52.68 -74 52 C-72.68 52 -71.36 52 -70 52 C-70 53.98 -70 55.96 -70 58 C-69.34 58 -68.68 58 -68 58 C-68 58.66 -68 59.32 -68 60 C-67.34 60 -66.68 60 -66 60 C-66 60.66 -66 61.32 -66 62 C-64.02 62 -62.04 62 -60 62 C-60 61.34 -60 60.68 -60 60 C-58.02 60 -56.04 60 -54 60 C-54 59.34 -54 58.68 -54 58 C-52.68 58 -51.36 58 -50 58 C-50 57.34 -50 56.68 -50 56 C-49.34 56 -48.68 56 -48 56 C-48 55.34 -48 54.68 -48 54 C-46.68 54 -45.36 54 -44 54 C-44 53.34 -44 52.68 -44 52 C-43.34 52 -42.68 52 -42 52 C-42 51.34 -42 50.68 -42 50 C-41.34 50 -40.68 50 -40 50 C-40 49.34 -40 48.68 -40 48 C-39.34 48 -38.68 48 -38 48 C-38 47.34 -38 46.68 -38 46 C-37.34 46 -36.68 46 -36 46 C-36 45.34 -36 44.68 -36 44 C-35.34 44 -34.68 44 -34 44 C-34 43.34 -34 42.68 -34 42 C-33.34 42 -32.68 42 -32 42 C-32 40.68 -32 39.36 -32 38 C-32.66 38 -33.32 38 -34 38 C-34 37.34 -34 36.68 -34 36 C-39.94 36 -45.88 36 -52 36 C-52 36.66 -52 37.32 -52 38 C-53.32 38 -54.64 38 -56 38 C-56 38.66 -56 39.32 -56 40 C-56.66 40 -57.32 40 -58 40 C-58 41.32 -58 42.64 -58 44 C-58.66 44 -59.32 44 -60 44 C-60 44.66 -60 45.32 -60 46 C-59.34 46 -58.68 46 -58 46 C-58 46.66 -58 47.32 -58 48 C-58.66 48 -59.32 48 -60 48 C-60 48.66 -60 49.32 -60 50 C-61.32 50 -62.64 50 -64 50 C-64 44.72 -64 39.44 -64 34 C-63.34 34 -62.68 34 -62 34 C-62 33.34 -62 32.68 -62 32 C-60.68 32 -59.36 32 -58 32 C-58 31.34 -58 30.68 -58 30 C-51.4 30 -44.8 30 -38 30 C-38 30.66 -38 31.32 -38 32 C-34.7 32 -31.4 32 -28 32 C-28 32.66 -28 33.32 -28 34 C-27.34 34 -26.68 34 -26 34 C-26 33.34 -26 32.68 -26 32 C-25.34 32 -24.68 32 -24 32 C-24 31.34 -24 30.68 -24 30 C-23.34 30 -22.68 30 -22 30 C-22 29.34 -22 28.68 -22 28 C-21.34 28 -20.68 28 -20 28 C-20 26.68 -20 25.36 -20 24 C-19.34 24 -18.68 24 -18 24 C-18 23.34 -18 22.68 -18 22 C-17.34 22 -16.68 22 -16 22 C-16 21.34 -16 20.68 -16 20 C-15.34 20 -14.68 20 -14 20 C-14 19.34 -14 18.68 -14 18 C-13.34 18 -12.68 18 -12 18 C-12 17.34 -12 16.68 -12 16 C-11.34 16 -10.68 16 -10 16 C-10 14.68 -10 13.36 -10 12 C-9.34 12 -8.68 12 -8 12 C-8 11.34 -8 10.68 -8 10 C-7.34 10 -6.68 10 -6 10 C-6 9.34 -6 8.68 -6 8 C-5.34 8 -4.68 8 -4 8 C-4 7.34 -4 6.68 -4 6 C-3.34 6 -2.68 6 -2 6 C-2 4.68 -2 3.36 -2 2 C-1.34 2 -0.68 2 0 2 C0 1.34 0 0.68 0 0 Z M42 4 C42 4.66 42 5.32 42 6 C42.66 6 43.32 6 44 6 C44 5.34 44 4.68 44 4 C43.34 4 42.68 4 42 4 Z M40 6 C40 6.66 40 7.32 40 8 C38.68 8 37.36 8 36 8 C36 9.32 36 10.64 36 12 C35.34 12 34.68 12 34 12 C34 12.66 34 13.32 34 14 C33.34 14 32.68 14 32 14 C32 14.66 32 15.32 32 16 C31.34 16 30.68 16 30 16 C30 17.32 30 18.64 30 20 C29.34 20 28.68 20 28 20 C28 20.66 28 21.32 28 22 C27.34 22 26.68 22 26 22 C26 23.32 26 24.64 26 26 C25.34 26 24.68 26 24 26 C24 27.32 24 28.64 24 30 C24.66 30 25.32 30 26 30 C26 29.34 26 28.68 26 28 C26.66 28 27.32 28 28 28 C28 27.34 28 26.68 28 26 C28.66 26 29.32 26 30 26 C30 25.34 30 24.68 30 24 C30.66 24 31.32 24 32 24 C32 23.34 32 22.68 32 22 C32.66 22 33.32 22 34 22 C34 20.68 34 19.36 34 18 C34.66 18 35.32 18 36 18 C36 17.34 36 16.68 36 16 C36.66 16 37.32 16 38 16 C38 14.68 38 13.36 38 12 C38.66 12 39.32 12 40 12 C40 11.34 40 10.68 40 10 C40.66 10 41.32 10 42 10 C42 8.68 42 7.36 42 6 C41.34 6 40.68 6 40 6 Z M-12 24 C-12 24.66 -12 25.32 -12 26 C-12.66 26 -13.32 26 -14 26 C-14 27.32 -14 28.64 -14 30 C-14.66 30 -15.32 30 -16 30 C-16 30.66 -16 31.32 -16 32 C-16.66 32 -17.32 32 -18 32 C-18 32.66 -18 33.32 -18 34 C-17.34 34 -16.68 34 -16 34 C-16 34.66 -16 35.32 -16 36 C-14.68 36 -13.36 36 -12 36 C-12 33.36 -12 30.72 -12 28 C-11.34 28 -10.68 28 -10 28 C-10 26.68 -10 25.36 -10 24 C-10.66 24 -11.32 24 -12 24 Z M22 30 C22 31.32 22 32.64 22 34 C22.66 34 23.32 34 24 34 C24 32.68 24 31.36 24 30 C23.34 30 22.68 30 22 30 Z M20 34 C20 34.66 20 35.32 20 36 C20.66 36 21.32 36 22 36 C22 35.34 22 34.68 22 34 C21.34 34 20.68 34 20 34 Z " fill="#FEFEFE" transform="translate(582,106)"/>
<path d="M0 0 C1.98 0 3.96 0 6 0 C6 1.32 6 2.64 6 4 C5.34 4 4.68 4 4 4 C4 5.32 4 6.64 4 8 C3.34 8 2.68 8 2 8 C2 8.66 2 9.32 2 10 C0.02 10 -1.96 10 -4 10 C-4 9.34 -4 8.68 -4 8 C-4.66 8 -5.32 8 -6 8 C-6 7.34 -6 6.68 -6 6 C-5.34 6 -4.68 6 -4 6 C-4 5.34 -4 4.68 -4 4 C-3.34 4 -2.68 4 -2 4 C-2 3.34 -2 2.68 -2 2 C-1.34 2 -0.68 2 0 2 C0 1.34 0 0.68 0 0 Z " fill="#FFFFFF" transform="translate(630,122)"/>
</svg>
